<mxfile host="Electron" agent="Mozilla/5.0 (X11; Linux x86_64) AppleWebKit/537.36 (KHTML, like Gecko) draw.io/24.7.5 Chrome/126.0.6478.183 Electron/31.3.0 Safari/537.36" version="24.7.5">
  <diagram name="Page-1" id="31e0PoklDtCVechnkARH">
    <mxGraphModel dx="1363" dy="951" grid="0" gridSize="10" guides="1" tooltips="1" connect="1" arrows="1" fold="1" page="1" pageScale="1" pageWidth="850" pageHeight="1100" math="0" shadow="0">
      <root>
        <mxCell id="0" />
        <mxCell id="1" parent="0" />
        <mxCell id="wtZ6A3OOezWm38jqoUYY-1" value="Ludo frontend" style="rounded=1;whiteSpace=wrap;html=1;fillColor=#dae8fc;strokeColor=#6c8ebf;" parent="1" vertex="1">
          <mxGeometry x="25" y="180" width="90" height="32" as="geometry" />
        </mxCell>
        <mxCell id="wtZ6A3OOezWm38jqoUYY-2" value="Ludo app" style="rounded=1;whiteSpace=wrap;html=1;fillColor=#dae8fc;strokeColor=#6c8ebf;" parent="1" vertex="1">
          <mxGeometry x="150" y="88" width="90" height="32" as="geometry" />
        </mxCell>
        <mxCell id="wtZ6A3OOezWm38jqoUYY-3" value="Ludo coly" style="rounded=1;whiteSpace=wrap;html=1;fillColor=#dae8fc;strokeColor=#6c8ebf;" parent="1" vertex="1">
          <mxGeometry x="324" y="203" width="90" height="32" as="geometry" />
        </mxCell>
        <mxCell id="wtZ6A3OOezWm38jqoUYY-4" value="Auth" style="ellipse;whiteSpace=wrap;html=1;" parent="1" vertex="1">
          <mxGeometry x="406" y="63" width="70" height="33" as="geometry" />
        </mxCell>
        <mxCell id="wtZ6A3OOezWm38jqoUYY-5" value="VanillaJS" style="ellipse;whiteSpace=wrap;html=1;" parent="1" vertex="1">
          <mxGeometry x="19" y="245" width="87" height="35" as="geometry" />
        </mxCell>
        <mxCell id="wtZ6A3OOezWm38jqoUYY-6" value="ThreeJS" style="ellipse;whiteSpace=wrap;html=1;" parent="1" vertex="1">
          <mxGeometry x="119" y="244" width="87" height="35" as="geometry" />
        </mxCell>
        <mxCell id="wtZ6A3OOezWm38jqoUYY-7" value="CannonJS" style="ellipse;whiteSpace=wrap;html=1;" parent="1" vertex="1">
          <mxGeometry x="119" y="294" width="87" height="35" as="geometry" />
        </mxCell>
        <mxCell id="wtZ6A3OOezWm38jqoUYY-8" value="3D rendering" style="text;html=1;align=left;verticalAlign=middle;whiteSpace=wrap;rounded=0;fontStyle=2;fontSize=10;fontColor=#000000;" parent="1" vertex="1">
          <mxGeometry x="202" y="230" width="73" height="30" as="geometry" />
        </mxCell>
        <mxCell id="wtZ6A3OOezWm38jqoUYY-9" value="Physics" style="text;html=1;align=left;verticalAlign=middle;whiteSpace=wrap;rounded=0;fontStyle=2;fontSize=10;fontColor=#000000;" parent="1" vertex="1">
          <mxGeometry x="202" y="284" width="55" height="30" as="geometry" />
        </mxCell>
        <mxCell id="wtZ6A3OOezWm38jqoUYY-10" value="Colyseus" style="ellipse;whiteSpace=wrap;html=1;" parent="1" vertex="1">
          <mxGeometry x="324" y="265" width="87" height="35" as="geometry" />
        </mxCell>
        <mxCell id="wtZ6A3OOezWm38jqoUYY-11" value="Sync game state" style="text;html=1;align=left;verticalAlign=middle;whiteSpace=wrap;rounded=0;fontStyle=2;fontSize=10;" parent="1" vertex="1">
          <mxGeometry x="382.5" y="244" width="92" height="30" as="geometry" />
        </mxCell>
        <mxCell id="wtZ6A3OOezWm38jqoUYY-12" value="Flask" style="ellipse;whiteSpace=wrap;html=1;" parent="1" vertex="1">
          <mxGeometry x="205" y="128" width="87" height="35" as="geometry" />
        </mxCell>
        <mxCell id="wtZ6A3OOezWm38jqoUYY-13" value="" style="image;aspect=fixed;html=1;points=[];align=center;fontSize=12;image=img/lib/azure2/databases/Azure_Database_PostgreSQL_Server.svg;" parent="1" vertex="1">
          <mxGeometry x="514" y="96.66999999999999" width="34" height="45.33" as="geometry" />
        </mxCell>
        <mxCell id="wtZ6A3OOezWm38jqoUYY-14" value="API" style="text;html=1;align=left;verticalAlign=middle;whiteSpace=wrap;rounded=0;" parent="1" vertex="1">
          <mxGeometry x="336.5" y="78" width="60" height="30" as="geometry" />
        </mxCell>
        <mxCell id="wtZ6A3OOezWm38jqoUYY-15" value="ORM" style="text;html=1;align=left;verticalAlign=middle;whiteSpace=wrap;rounded=0;" parent="1" vertex="1">
          <mxGeometry x="336.5" y="112" width="75" height="30" as="geometry" />
        </mxCell>
        <mxCell id="wtZ6A3OOezWm38jqoUYY-16" value="DB Migration" style="text;html=1;align=left;verticalAlign=middle;whiteSpace=wrap;rounded=0;" parent="1" vertex="1">
          <mxGeometry x="364" y="153.32999999999998" width="75" height="21" as="geometry" />
        </mxCell>
        <mxCell id="wtZ6A3OOezWm38jqoUYY-17" value="" style="endArrow=classic;html=1;rounded=0;" parent="1" edge="1">
          <mxGeometry width="50" height="50" relative="1" as="geometry">
            <mxPoint x="294" y="138" as="sourcePoint" />
            <mxPoint x="331" y="99" as="targetPoint" />
          </mxGeometry>
        </mxCell>
        <mxCell id="wtZ6A3OOezWm38jqoUYY-18" value="" style="endArrow=classic;html=1;rounded=0;" parent="1" edge="1">
          <mxGeometry width="50" height="50" relative="1" as="geometry">
            <mxPoint x="298" y="143" as="sourcePoint" />
            <mxPoint x="331" y="137" as="targetPoint" />
          </mxGeometry>
        </mxCell>
        <mxCell id="wtZ6A3OOezWm38jqoUYY-19" value="SXvKW ludo architecture" style="text;html=1;align=center;verticalAlign=middle;whiteSpace=wrap;rounded=0;fillColor=#ffe6cc;strokeColor=#d79b00;" parent="1" vertex="1">
          <mxGeometry x="9" y="12" width="87" height="30" as="geometry" />
        </mxCell>
        <mxCell id="wtZ6A3OOezWm38jqoUYY-20" value="" style="edgeStyle=none;orthogonalLoop=1;jettySize=auto;html=1;rounded=0;" parent="1" edge="1">
          <mxGeometry width="80" relative="1" as="geometry">
            <mxPoint x="348" y="143" as="sourcePoint" />
            <mxPoint x="359" y="162" as="targetPoint" />
            <Array as="points" />
          </mxGeometry>
        </mxCell>
        <mxCell id="wtZ6A3OOezWm38jqoUYY-21" value="" style="edgeStyle=none;orthogonalLoop=1;jettySize=auto;html=1;rounded=0;" parent="1" edge="1">
          <mxGeometry width="80" relative="1" as="geometry">
            <mxPoint x="366" y="94" as="sourcePoint" />
            <mxPoint x="401" y="83" as="targetPoint" />
            <Array as="points" />
          </mxGeometry>
        </mxCell>
        <mxCell id="wtZ6A3OOezWm38jqoUYY-22" value="" style="edgeStyle=none;orthogonalLoop=1;jettySize=auto;html=1;rounded=0;" parent="1" edge="1">
          <mxGeometry width="80" relative="1" as="geometry">
            <mxPoint x="474" y="94" as="sourcePoint" />
            <mxPoint x="508" y="114" as="targetPoint" />
            <Array as="points" />
          </mxGeometry>
        </mxCell>
        <mxCell id="wtZ6A3OOezWm38jqoUYY-23" value="" style="edgeStyle=none;orthogonalLoop=1;jettySize=auto;html=1;rounded=0;" parent="1" edge="1">
          <mxGeometry width="80" relative="1" as="geometry">
            <mxPoint x="126" y="194" as="sourcePoint" />
            <mxPoint x="183" y="128" as="targetPoint" />
            <Array as="points" />
          </mxGeometry>
        </mxCell>
        <mxCell id="wtZ6A3OOezWm38jqoUYY-24" value="Socket server" style="text;html=1;align=left;verticalAlign=middle;whiteSpace=wrap;rounded=0;fontStyle=2;fontSize=10;fontColor=#000000;" parent="1" vertex="1">
          <mxGeometry x="380" y="180" width="73" height="30" as="geometry" />
        </mxCell>
        <mxCell id="wtZ6A3OOezWm38jqoUYY-25" value="" style="edgeStyle=none;orthogonalLoop=1;jettySize=auto;html=1;rounded=0;" parent="1" edge="1">
          <mxGeometry width="80" relative="1" as="geometry">
            <mxPoint x="127" y="196" as="sourcePoint" />
            <mxPoint x="318" y="217" as="targetPoint" />
            <Array as="points" />
          </mxGeometry>
        </mxCell>
        <mxCell id="wtZ6A3OOezWm38jqoUYY-26" value="Webpack" style="ellipse;whiteSpace=wrap;html=1;" parent="1" vertex="1">
          <mxGeometry x="19" y="340" width="87" height="35" as="geometry" />
        </mxCell>
        <mxCell id="wtZ6A3OOezWm38jqoUYY-27" value="Ludo devops" style="rounded=1;whiteSpace=wrap;html=1;fillColor=#f8cecc;strokeColor=#b85450;" parent="1" vertex="1">
          <mxGeometry x="463" y="402" width="90" height="32" as="geometry" />
        </mxCell>
        <mxCell id="wtZ6A3OOezWm38jqoUYY-28" value="Deploy on cloud" style="text;html=1;align=left;verticalAlign=middle;whiteSpace=wrap;rounded=0;fontStyle=2;fontSize=10;fontColor=#000000;" parent="1" vertex="1">
          <mxGeometry x="411" y="375" width="78" height="30" as="geometry" />
        </mxCell>
        <mxCell id="wtZ6A3OOezWm38jqoUYY-29" value="" style="rounded=0;whiteSpace=wrap;html=1;fillColor=none;" parent="1" vertex="1">
          <mxGeometry x="9" y="52" width="558" height="392" as="geometry" />
        </mxCell>
        <mxCell id="wtZ6A3OOezWm38jqoUYY-30" value="GtrGH Auth workflow" style="text;html=1;align=center;verticalAlign=middle;whiteSpace=wrap;rounded=0;fillColor=#ffe6cc;strokeColor=#d79b00;" parent="1" vertex="1">
          <mxGeometry x="9" y="468" width="94" height="36" as="geometry" />
        </mxCell>
        <mxCell id="wtZ6A3OOezWm38jqoUYY-31" value="Login / Signup UI" style="swimlane;whiteSpace=wrap;html=1;" parent="1" vertex="1">
          <mxGeometry x="17" y="516" width="125" height="200" as="geometry" />
        </mxCell>
        <mxCell id="wtZ6A3OOezWm38jqoUYY-32" value="localhost/account" style="text;html=1;align=left;verticalAlign=middle;resizable=0;points=[];autosize=1;strokeColor=none;fillColor=none;" parent="wtZ6A3OOezWm38jqoUYY-31" vertex="1">
          <mxGeometry x="2" y="29" width="111" height="26" as="geometry" />
        </mxCell>
        <mxCell id="wtZ6A3OOezWm38jqoUYY-33" value="dghSa webpack" style="text;html=1;align=center;verticalAlign=middle;whiteSpace=wrap;rounded=0;fillColor=#ffe6cc;strokeColor=#d79b00;" parent="1" vertex="1">
          <mxGeometry x="14.5" y="763" width="96" height="30" as="geometry" />
        </mxCell>
        <mxCell id="wtZ6A3OOezWm38jqoUYY-34" value="" style="shape=image;verticalLabelPosition=bottom;labelBackgroundColor=default;verticalAlign=top;aspect=fixed;imageAspect=0;image=https://media.trytn.dev/library/sites/2/2020/06/webpack.jpg;clipPath=inset(5.02% 29% 15.55% 29.33%);" parent="1" vertex="1">
          <mxGeometry x="351" y="895.77" width="78.66" height="104.46" as="geometry" />
        </mxCell>
        <mxCell id="wtZ6A3OOezWm38jqoUYY-35" value="Source.js" style="text;html=1;align=center;verticalAlign=middle;whiteSpace=wrap;rounded=0;fillColor=#fff2cc;strokeColor=#d6b656;" parent="1" vertex="1">
          <mxGeometry x="111" y="859" width="60" height="30" as="geometry" />
        </mxCell>
        <mxCell id="wtZ6A3OOezWm38jqoUYY-36" value="Source.ts" style="text;html=1;align=center;verticalAlign=middle;whiteSpace=wrap;rounded=0;fillColor=#dae8fc;strokeColor=#6c8ebf;" parent="1" vertex="1">
          <mxGeometry x="70" y="1022" width="60" height="30" as="geometry" />
        </mxCell>
        <mxCell id="wtZ6A3OOezWm38jqoUYY-37" value="Source.js" style="text;html=1;align=center;verticalAlign=middle;whiteSpace=wrap;rounded=0;fillColor=#fff2cc;strokeColor=#d6b656;" parent="1" vertex="1">
          <mxGeometry x="224" y="924" width="60" height="30" as="geometry" />
        </mxCell>
        <mxCell id="wtZ6A3OOezWm38jqoUYY-38" value="Source.ts" style="text;html=1;align=center;verticalAlign=middle;whiteSpace=wrap;rounded=0;fillColor=#dae8fc;strokeColor=#6c8ebf;" parent="1" vertex="1">
          <mxGeometry x="181" y="1006" width="60" height="30" as="geometry" />
        </mxCell>
        <mxCell id="wtZ6A3OOezWm38jqoUYY-39" value="Source.js" style="text;html=1;align=center;verticalAlign=middle;whiteSpace=wrap;rounded=0;fillColor=#fff2cc;strokeColor=#d6b656;" parent="1" vertex="1">
          <mxGeometry x="19" y="933" width="60" height="30" as="geometry" />
        </mxCell>
        <mxCell id="wtZ6A3OOezWm38jqoUYY-40" value="" style="edgeStyle=none;orthogonalLoop=1;jettySize=auto;html=1;rounded=0;" parent="1" edge="1">
          <mxGeometry width="80" relative="1" as="geometry">
            <mxPoint x="149" y="895" as="sourcePoint" />
            <mxPoint x="211" y="941" as="targetPoint" />
            <Array as="points" />
          </mxGeometry>
        </mxCell>
        <mxCell id="wtZ6A3OOezWm38jqoUYY-41" value="" style="edgeStyle=none;orthogonalLoop=1;jettySize=auto;html=1;rounded=0;" parent="1" edge="1">
          <mxGeometry width="80" relative="1" as="geometry">
            <mxPoint x="241" y="959" as="sourcePoint" />
            <mxPoint x="115" y="1016" as="targetPoint" />
            <Array as="points" />
          </mxGeometry>
        </mxCell>
        <mxCell id="wtZ6A3OOezWm38jqoUYY-42" value="" style="endArrow=classic;html=1;rounded=0;" parent="1" edge="1">
          <mxGeometry width="50" height="50" relative="1" as="geometry">
            <mxPoint x="83" y="950" as="sourcePoint" />
            <mxPoint x="176" y="1018" as="targetPoint" />
          </mxGeometry>
        </mxCell>
        <mxCell id="wtZ6A3OOezWm38jqoUYY-43" value="" style="edgeStyle=none;orthogonalLoop=1;jettySize=auto;html=1;rounded=0;" parent="1" edge="1">
          <mxGeometry width="80" relative="1" as="geometry">
            <mxPoint x="141" y="893" as="sourcePoint" />
            <mxPoint x="199" y="999" as="targetPoint" />
            <Array as="points" />
          </mxGeometry>
        </mxCell>
        <mxCell id="wtZ6A3OOezWm38jqoUYY-44" value="" style="edgeStyle=none;orthogonalLoop=1;jettySize=auto;html=1;rounded=0;" parent="1" edge="1">
          <mxGeometry width="80" relative="1" as="geometry">
            <mxPoint x="212" y="944" as="sourcePoint" />
            <mxPoint x="84" y="943" as="targetPoint" />
            <Array as="points" />
          </mxGeometry>
        </mxCell>
        <mxCell id="wtZ6A3OOezWm38jqoUYY-45" value="Bundle.js" style="text;html=1;align=center;verticalAlign=middle;whiteSpace=wrap;rounded=0;fillColor=#fff2cc;strokeColor=#d6b656;" parent="1" vertex="1">
          <mxGeometry x="457" y="963" width="60" height="30" as="geometry" />
        </mxCell>
        <mxCell id="wtZ6A3OOezWm38jqoUYY-46" value="" style="endArrow=classic;html=1;rounded=0;" parent="1" edge="1">
          <mxGeometry width="50" height="50" relative="1" as="geometry">
            <mxPoint x="287" y="940" as="sourcePoint" />
            <mxPoint x="346" y="940" as="targetPoint" />
          </mxGeometry>
        </mxCell>
        <mxCell id="wtZ6A3OOezWm38jqoUYY-47" value="" style="endArrow=classic;html=1;rounded=0;" parent="1" edge="1">
          <mxGeometry width="50" height="50" relative="1" as="geometry">
            <mxPoint x="429.65999999999997" y="938.67" as="sourcePoint" />
            <mxPoint x="483" y="958" as="targetPoint" />
            <Array as="points">
              <mxPoint x="483" y="939" />
            </Array>
          </mxGeometry>
        </mxCell>
        <mxCell id="wtZ6A3OOezWm38jqoUYY-48" value="UI Screen" style="swimlane;whiteSpace=wrap;html=1;" parent="1" vertex="1">
          <mxGeometry x="562" y="817" width="116" height="199" as="geometry" />
        </mxCell>
        <mxCell id="wtZ6A3OOezWm38jqoUYY-49" value="" style="dashed=0;outlineConnect=0;html=1;align=center;labelPosition=center;verticalLabelPosition=bottom;verticalAlign=top;shape=mxgraph.weblogos.html5" parent="wtZ6A3OOezWm38jqoUYY-48" vertex="1">
          <mxGeometry x="6" y="31" width="29.74" height="42" as="geometry" />
        </mxCell>
        <mxCell id="wtZ6A3OOezWm38jqoUYY-50" value="&amp;lt;script/&amp;gt;" style="text;html=1;align=center;verticalAlign=middle;whiteSpace=wrap;rounded=0;fontStyle=1" parent="wtZ6A3OOezWm38jqoUYY-48" vertex="1">
          <mxGeometry x="4" y="83" width="60" height="30" as="geometry" />
        </mxCell>
        <mxCell id="wtZ6A3OOezWm38jqoUYY-51" value="CSS" style="text;html=1;align=center;verticalAlign=middle;whiteSpace=wrap;rounded=0;fillColor=#ffe6cc;strokeColor=#d79b00;" parent="wtZ6A3OOezWm38jqoUYY-48" vertex="1">
          <mxGeometry x="41.5" y="34" width="33" height="30" as="geometry" />
        </mxCell>
        <mxCell id="wtZ6A3OOezWm38jqoUYY-52" value="" style="edgeStyle=none;orthogonalLoop=1;jettySize=auto;html=1;rounded=0;" parent="1" edge="1">
          <mxGeometry width="80" relative="1" as="geometry">
            <mxPoint x="518" y="978" as="sourcePoint" />
            <mxPoint x="586" y="925" as="targetPoint" />
            <Array as="points">
              <mxPoint x="586" y="978" />
            </Array>
          </mxGeometry>
        </mxCell>
        <mxCell id="wtZ6A3OOezWm38jqoUYY-53" value="" style="endArrow=classic;html=1;rounded=0;" parent="1" edge="1">
          <mxGeometry width="50" height="50" relative="1" as="geometry">
            <mxPoint x="175" y="654" as="sourcePoint" />
            <mxPoint x="234" y="718" as="targetPoint" />
            <Array as="points">
              <mxPoint x="175" y="718" />
            </Array>
          </mxGeometry>
        </mxCell>
        <mxCell id="wtZ6A3OOezWm38jqoUYY-54" value="On auth success&amp;nbsp;" style="text;html=1;align=center;verticalAlign=middle;whiteSpace=wrap;rounded=0;fillColor=#d5e8d4;strokeColor=#82b366;" parent="1" vertex="1">
          <mxGeometry x="150" y="615" width="60" height="30" as="geometry" />
        </mxCell>
        <mxCell id="wtZ6A3OOezWm38jqoUYY-55" value="Write" style="text;html=1;align=center;verticalAlign=middle;whiteSpace=wrap;rounded=0;" parent="1" vertex="1">
          <mxGeometry x="164" y="693" width="60" height="30" as="geometry" />
        </mxCell>
        <mxCell id="wtZ6A3OOezWm38jqoUYY-56" value="Session storage" style="text;html=1;align=left;verticalAlign=middle;whiteSpace=wrap;rounded=0;" parent="1" vertex="1">
          <mxGeometry x="243" y="696" width="60" height="30" as="geometry" />
        </mxCell>
        <mxCell id="wtZ6A3OOezWm38jqoUYY-57" value="Local storage" style="text;html=1;align=left;verticalAlign=middle;whiteSpace=wrap;rounded=0;" parent="1" vertex="1">
          <mxGeometry x="294" y="715" width="60" height="30" as="geometry" />
        </mxCell>
        <mxCell id="wtZ6A3OOezWm38jqoUYY-58" value="" style="endArrow=none;html=1;rounded=0;" parent="1" edge="1">
          <mxGeometry width="50" height="50" relative="1" as="geometry">
            <mxPoint x="277" y="740" as="sourcePoint" />
            <mxPoint x="304" y="703" as="targetPoint" />
          </mxGeometry>
        </mxCell>
        <mxCell id="wtZ6A3OOezWm38jqoUYY-59" value="" style="endArrow=classic;html=1;rounded=0;" parent="1" edge="1">
          <mxGeometry width="50" height="50" relative="1" as="geometry">
            <mxPoint x="286" y="679" as="sourcePoint" />
            <mxPoint x="286" y="627" as="targetPoint" />
          </mxGeometry>
        </mxCell>
        <mxCell id="wtZ6A3OOezWm38jqoUYY-60" value="Redirect to&lt;br&gt;localhost/" style="ellipse;whiteSpace=wrap;html=1;" parent="1" vertex="1">
          <mxGeometry x="231.75" y="581" width="112.5" height="41" as="geometry" />
        </mxCell>
        <mxCell id="wtZ6A3OOezWm38jqoUYY-61" value="Maingame" style="swimlane;whiteSpace=wrap;html=1;" parent="1" vertex="1">
          <mxGeometry x="406" y="515" width="125" height="200" as="geometry" />
        </mxCell>
        <mxCell id="wtZ6A3OOezWm38jqoUYY-62" value="localhost/" style="text;html=1;align=left;verticalAlign=middle;resizable=0;points=[];autosize=1;strokeColor=none;fillColor=none;" parent="wtZ6A3OOezWm38jqoUYY-61" vertex="1">
          <mxGeometry x="4" y="30" width="69" height="26" as="geometry" />
        </mxCell>
        <mxCell id="wtZ6A3OOezWm38jqoUYY-63" value="Gamestate&lt;br&gt;Colyseus client" style="text;html=1;align=left;verticalAlign=middle;whiteSpace=wrap;rounded=0;" parent="wtZ6A3OOezWm38jqoUYY-61" vertex="1">
          <mxGeometry x="6" y="73" width="99" height="30" as="geometry" />
        </mxCell>
        <mxCell id="wtZ6A3OOezWm38jqoUYY-64" value="" style="endArrow=classic;html=1;rounded=0;" parent="1" edge="1">
          <mxGeometry width="50" height="50" relative="1" as="geometry">
            <mxPoint x="350" y="601" as="sourcePoint" />
            <mxPoint x="400" y="600" as="targetPoint" />
          </mxGeometry>
        </mxCell>
        <mxCell id="wtZ6A3OOezWm38jqoUYY-65" value="" style="endArrow=classic;html=1;rounded=0;" parent="1" edge="1">
          <mxGeometry width="50" height="50" relative="1" as="geometry">
            <mxPoint x="287.67" y="574" as="sourcePoint" />
            <mxPoint x="162" y="542" as="targetPoint" />
            <Array as="points">
              <mxPoint x="288" y="542" />
            </Array>
          </mxGeometry>
        </mxCell>
        <mxCell id="wtZ6A3OOezWm38jqoUYY-66" value="If session storage empty" style="text;html=1;align=left;verticalAlign=middle;whiteSpace=wrap;rounded=0;fontColor=#FF3333;" parent="1" vertex="1">
          <mxGeometry x="181" y="543" width="111" height="30" as="geometry" />
        </mxCell>
        <mxCell id="wtZ6A3OOezWm38jqoUYY-67" value="Gg375 startgame workflow" style="text;html=1;align=center;verticalAlign=middle;whiteSpace=wrap;rounded=0;fillColor=#ffe6cc;strokeColor=#d79b00;" parent="1" vertex="1">
          <mxGeometry x="619" y="52" width="167" height="30" as="geometry" />
        </mxCell>
        <mxCell id="wtZ6A3OOezWm38jqoUYY-68" value=".selectRoom form" style="rounded=1;whiteSpace=wrap;html=1;fontSize=12;" parent="1" vertex="1">
          <mxGeometry x="619" y="206" width="103" height="29" as="geometry" />
        </mxCell>
        <mxCell id="wtZ6A3OOezWm38jqoUYY-69" value="on submit" style="text;html=1;align=center;verticalAlign=middle;whiteSpace=wrap;rounded=0;fontStyle=2" parent="1" vertex="1">
          <mxGeometry x="672.5" y="230" width="60" height="30" as="geometry" />
        </mxCell>
        <mxCell id="wtZ6A3OOezWm38jqoUYY-70" value="window onload" style="rounded=1;whiteSpace=wrap;html=1;fontSize=12;" parent="1" vertex="1">
          <mxGeometry x="619" y="102" width="103" height="29" as="geometry" />
        </mxCell>
        <mxCell id="wtZ6A3OOezWm38jqoUYY-71" value="getRoom" style="swimlane;fontStyle=0;childLayout=stackLayout;horizontal=1;startSize=30;horizontalStack=0;resizeParent=1;resizeParentMax=0;resizeLast=0;collapsible=1;marginBottom=0;whiteSpace=wrap;html=1;fontSize=12;" parent="1" vertex="1">
          <mxGeometry x="619" y="139" width="141" height="58" as="geometry" />
        </mxCell>
        <mxCell id="wtZ6A3OOezWm38jqoUYY-72" value="colyseus&amp;nbsp;getAvailableRooms" style="text;strokeColor=none;fillColor=none;align=left;verticalAlign=middle;spacingLeft=4;spacingRight=4;overflow=hidden;points=[[0,0.5],[1,0.5]];portConstraint=eastwest;rotatable=0;whiteSpace=wrap;html=1;fontSize=10;" parent="wtZ6A3OOezWm38jqoUYY-71" vertex="1">
          <mxGeometry y="30" width="141" height="28" as="geometry" />
        </mxCell>
        <mxCell id="wtZ6A3OOezWm38jqoUYY-73" value="joinRoom" style="swimlane;fontStyle=0;childLayout=stackLayout;horizontal=1;startSize=30;horizontalStack=0;resizeParent=1;resizeParentMax=0;resizeLast=0;collapsible=1;marginBottom=0;whiteSpace=wrap;html=1;fontSize=12;" parent="1" vertex="1">
          <mxGeometry x="807" y="183" width="141" height="90" as="geometry" />
        </mxCell>
        <mxCell id="wtZ6A3OOezWm38jqoUYY-74" value="colyseus joinById" style="text;strokeColor=none;fillColor=none;align=left;verticalAlign=middle;spacingLeft=4;spacingRight=4;overflow=hidden;points=[[0,0.5],[1,0.5]];portConstraint=eastwest;rotatable=0;whiteSpace=wrap;html=1;fontSize=10;" parent="wtZ6A3OOezWm38jqoUYY-73" vertex="1">
          <mxGeometry y="30" width="141" height="28" as="geometry" />
        </mxCell>
        <mxCell id="wtZ6A3OOezWm38jqoUYY-75" value="initGamePlay&lt;br&gt;&lt;span style=&quot;white-space: pre;&quot;&gt;&#x9;&lt;/span&gt;initGameEvent" style="text;strokeColor=none;fillColor=none;align=left;verticalAlign=middle;spacingLeft=4;spacingRight=4;overflow=hidden;points=[[0,0.5],[1,0.5]];portConstraint=eastwest;rotatable=0;whiteSpace=wrap;html=1;fontSize=10;" parent="wtZ6A3OOezWm38jqoUYY-73" vertex="1">
          <mxGeometry y="58" width="141" height="32" as="geometry" />
        </mxCell>
        <mxCell id="wtZ6A3OOezWm38jqoUYY-76" value="" style="endArrow=classic;html=1;rounded=0;" parent="1" edge="1">
          <mxGeometry width="50" height="50" relative="1" as="geometry">
            <mxPoint x="728" y="220" as="sourcePoint" />
            <mxPoint x="803" y="219" as="targetPoint" />
          </mxGeometry>
        </mxCell>
        <mxCell id="wtZ6A3OOezWm38jqoUYY-77" value="" style="rounded=1;whiteSpace=wrap;html=1;" parent="1" vertex="1">
          <mxGeometry x="641" y="368" width="65" height="153" as="geometry" />
        </mxCell>
        <mxCell id="wtZ6A3OOezWm38jqoUYY-78" value="" style="rounded=1;whiteSpace=wrap;html=1;" parent="1" vertex="1">
          <mxGeometry x="824" y="366" width="65" height="153" as="geometry" />
        </mxCell>
        <mxCell id="wtZ6A3OOezWm38jqoUYY-79" value="UI" style="text;html=1;align=center;verticalAlign=middle;whiteSpace=wrap;rounded=0;" parent="1" vertex="1">
          <mxGeometry x="641" y="342.5" width="60" height="30" as="geometry" />
        </mxCell>
        <mxCell id="wtZ6A3OOezWm38jqoUYY-80" value="Colyseus" style="text;html=1;align=center;verticalAlign=middle;whiteSpace=wrap;rounded=0;" parent="1" vertex="1">
          <mxGeometry x="824" y="342.5" width="60" height="30" as="geometry" />
        </mxCell>
        <mxCell id="wtZ6A3OOezWm38jqoUYY-81" value="" style="endArrow=classic;html=1;rounded=0;" parent="1" edge="1">
          <mxGeometry width="50" height="50" relative="1" as="geometry">
            <mxPoint x="712" y="397" as="sourcePoint" />
            <mxPoint x="816" y="397" as="targetPoint" />
          </mxGeometry>
        </mxCell>
        <mxCell id="wtZ6A3OOezWm38jqoUYY-82" value="send msg A" style="text;html=1;align=center;verticalAlign=middle;whiteSpace=wrap;rounded=0;" parent="1" vertex="1">
          <mxGeometry x="710" y="368" width="71" height="30" as="geometry" />
        </mxCell>
        <mxCell id="wtZ6A3OOezWm38jqoUYY-83" value="" style="endArrow=none;html=1;rounded=0;startArrow=classic;startFill=1;endFill=0;" parent="1" edge="1">
          <mxGeometry width="50" height="50" relative="1" as="geometry">
            <mxPoint x="712" y="440" as="sourcePoint" />
            <mxPoint x="816" y="440" as="targetPoint" />
          </mxGeometry>
        </mxCell>
        <mxCell id="wtZ6A3OOezWm38jqoUYY-84" value="send back msg A" style="text;html=1;align=center;verticalAlign=middle;whiteSpace=wrap;rounded=0;" parent="1" vertex="1">
          <mxGeometry x="721" y="411" width="98" height="30" as="geometry" />
        </mxCell>
        <mxCell id="wtZ6A3OOezWm38jqoUYY-85" value="With calculated data" style="text;html=1;align=center;verticalAlign=middle;whiteSpace=wrap;rounded=0;fontStyle=2;fontSize=10;fontColor=#009900;" parent="1" vertex="1">
          <mxGeometry x="732" y="437" width="89" height="30" as="geometry" />
        </mxCell>
        <mxCell id="wtZ6A3OOezWm38jqoUYY-86" value="" style="endArrow=classic;html=1;rounded=0;" parent="1" edge="1">
          <mxGeometry width="50" height="50" relative="1" as="geometry">
            <mxPoint x="726" y="445" as="sourcePoint" />
            <mxPoint x="726" y="540" as="targetPoint" />
          </mxGeometry>
        </mxCell>
        <mxCell id="wtZ6A3OOezWm38jqoUYY-87" value="onMessage(msgA)" style="text;html=1;align=center;verticalAlign=middle;whiteSpace=wrap;rounded=0;" parent="1" vertex="1">
          <mxGeometry x="701" y="538" width="105" height="30" as="geometry" />
        </mxCell>
        <mxCell id="wtZ6A3OOezWm38jqoUYY-88" value="function handler" style="text;html=1;align=center;verticalAlign=middle;whiteSpace=wrap;rounded=0;fontSize=10;fontStyle=2;fontColor=#009900;" parent="1" vertex="1">
          <mxGeometry x="713" y="551" width="105" height="30" as="geometry" />
        </mxCell>
        <mxCell id="wtZ6A3OOezWm38jqoUYY-89" value="" style="endArrow=classic;html=1;rounded=0;" parent="1" edge="1">
          <mxGeometry width="50" height="50" relative="1" as="geometry">
            <mxPoint x="867" y="278" as="sourcePoint" />
            <mxPoint x="756" y="352" as="targetPoint" />
            <Array as="points">
              <mxPoint x="867" y="313" />
              <mxPoint x="760" y="313" />
            </Array>
          </mxGeometry>
        </mxCell>
        <mxCell id="wtZ6A3OOezWm38jqoUYY-90" value="What is event ?" style="text;html=1;align=center;verticalAlign=middle;whiteSpace=wrap;rounded=0;fontColor=#FF0000;" parent="1" vertex="1">
          <mxGeometry x="760" y="284" width="92" height="30" as="geometry" />
        </mxCell>
        <mxCell id="wtZ6A3OOezWm38jqoUYY-91" value="5zpEh UserReady" style="text;html=1;align=center;verticalAlign=middle;whiteSpace=wrap;rounded=0;fillColor=#ffe6cc;strokeColor=#d79b00;" parent="1" vertex="1">
          <mxGeometry x="1058" y="46" width="114" height="35" as="geometry" />
        </mxCell>
        <mxCell id="wtZ6A3OOezWm38jqoUYY-92" value="" style="rounded=1;whiteSpace=wrap;html=1;" parent="1" vertex="1">
          <mxGeometry x="1058" y="120" width="65" height="153" as="geometry" />
        </mxCell>
        <mxCell id="wtZ6A3OOezWm38jqoUYY-93" value="" style="rounded=1;whiteSpace=wrap;html=1;" parent="1" vertex="1">
          <mxGeometry x="1277" y="118.5" width="65" height="153" as="geometry" />
        </mxCell>
        <mxCell id="wtZ6A3OOezWm38jqoUYY-94" value="UI" style="text;html=1;align=center;verticalAlign=middle;whiteSpace=wrap;rounded=0;" parent="1" vertex="1">
          <mxGeometry x="1060.5" y="90" width="60" height="30" as="geometry" />
        </mxCell>
        <mxCell id="wtZ6A3OOezWm38jqoUYY-95" value="Colyseus" style="text;html=1;align=center;verticalAlign=middle;whiteSpace=wrap;rounded=0;" parent="1" vertex="1">
          <mxGeometry x="1279.5" y="87" width="60" height="30" as="geometry" />
        </mxCell>
        <mxCell id="wtZ6A3OOezWm38jqoUYY-96" value="" style="endArrow=classic;html=1;rounded=0;" parent="1" edge="1">
          <mxGeometry width="50" height="50" relative="1" as="geometry">
            <mxPoint x="1134" y="141" as="sourcePoint" />
            <mxPoint x="1267" y="141" as="targetPoint" />
          </mxGeometry>
        </mxCell>
        <mxCell id="wtZ6A3OOezWm38jqoUYY-97" value="UserReady" style="text;html=1;align=left;verticalAlign=middle;whiteSpace=wrap;rounded=0;" parent="1" vertex="1">
          <mxGeometry x="1136" y="107" width="60" height="30" as="geometry" />
        </mxCell>
        <mxCell id="wtZ6A3OOezWm38jqoUYY-98" value="GetUserReady" style="text;html=1;align=left;verticalAlign=middle;whiteSpace=wrap;rounded=0;" parent="1" vertex="1">
          <mxGeometry x="1136" y="141" width="88" height="30" as="geometry" />
        </mxCell>
        <mxCell id="wtZ6A3OOezWm38jqoUYY-99" value="" style="endArrow=none;html=1;rounded=0;startArrow=classic;startFill=1;endFill=0;" parent="1" edge="1">
          <mxGeometry width="50" height="50" relative="1" as="geometry">
            <mxPoint x="1136" y="199" as="sourcePoint" />
            <mxPoint x="1269" y="199" as="targetPoint" />
          </mxGeometry>
        </mxCell>
        <mxCell id="wtZ6A3OOezWm38jqoUYY-100" value="User data (1)" style="text;html=1;align=center;verticalAlign=middle;whiteSpace=wrap;rounded=0;" parent="1" vertex="1">
          <mxGeometry x="1166" y="199" width="60" height="30" as="geometry" />
        </mxCell>
        <mxCell id="wtZ6A3OOezWm38jqoUYY-101" value="Leaderboard" style="swimlane;whiteSpace=wrap;html=1;" parent="1" vertex="1">
          <mxGeometry x="788" y="729.5" width="242" height="305" as="geometry" />
        </mxCell>
        <mxCell id="wtZ6A3OOezWm38jqoUYY-102" value="UI" style="ellipse;whiteSpace=wrap;html=1;aspect=fixed;" parent="wtZ6A3OOezWm38jqoUYY-101" vertex="1">
          <mxGeometry x="75" y="44" width="50" height="50" as="geometry" />
        </mxCell>
        <mxCell id="wtZ6A3OOezWm38jqoUYY-103" value="UI" style="ellipse;whiteSpace=wrap;html=1;aspect=fixed;" parent="wtZ6A3OOezWm38jqoUYY-101" vertex="1">
          <mxGeometry x="136" y="44" width="50" height="50" as="geometry" />
        </mxCell>
        <mxCell id="wtZ6A3OOezWm38jqoUYY-104" value="UI" style="ellipse;whiteSpace=wrap;html=1;aspect=fixed;" parent="wtZ6A3OOezWm38jqoUYY-101" vertex="1">
          <mxGeometry x="14" y="44" width="50" height="50" as="geometry" />
        </mxCell>
        <mxCell id="wtZ6A3OOezWm38jqoUYY-105" value="UI" style="rounded=1;whiteSpace=wrap;html=1;" parent="wtZ6A3OOezWm38jqoUYY-101" vertex="1">
          <mxGeometry x="14" y="108" width="151" height="35" as="geometry" />
        </mxCell>
        <mxCell id="wtZ6A3OOezWm38jqoUYY-106" value="UI" style="rounded=1;whiteSpace=wrap;html=1;" parent="wtZ6A3OOezWm38jqoUYY-101" vertex="1">
          <mxGeometry x="14" y="156" width="151" height="35" as="geometry" />
        </mxCell>
        <mxCell id="wtZ6A3OOezWm38jqoUYY-107" value="UI" style="rounded=1;whiteSpace=wrap;html=1;" parent="wtZ6A3OOezWm38jqoUYY-101" vertex="1">
          <mxGeometry x="14" y="204" width="151" height="35" as="geometry" />
        </mxCell>
        <mxCell id="wtZ6A3OOezWm38jqoUYY-108" value="UI" style="rounded=1;whiteSpace=wrap;html=1;" parent="wtZ6A3OOezWm38jqoUYY-101" vertex="1">
          <mxGeometry x="14" y="252" width="151" height="35" as="geometry" />
        </mxCell>
        <mxCell id="wtZ6A3OOezWm38jqoUYY-109" value="sta_finished" style="text;html=1;align=left;verticalAlign=middle;whiteSpace=wrap;rounded=0;fontSize=10;fontStyle=1" parent="1" vertex="1">
          <mxGeometry x="1086" y="791.5" width="76" height="30" as="geometry" />
        </mxCell>
        <mxCell id="wtZ6A3OOezWm38jqoUYY-110" value="sta_notFinished" style="text;html=1;align=left;verticalAlign=middle;whiteSpace=wrap;rounded=0;fontSize=10;fontStyle=1" parent="1" vertex="1">
          <mxGeometry x="1086" y="821.5" width="76" height="30" as="geometry" />
        </mxCell>
        <mxCell id="wtZ6A3OOezWm38jqoUYY-111" value="" style="shape=image;verticalLabelPosition=bottom;labelBackgroundColor=default;verticalAlign=top;aspect=fixed;imageAspect=0;image=data:image/png,iVBORw0KGgoAAAANSUhEUgAAAIwAAAEDCAYAAADnUeyHAAAAAXNSR0IArs4c6QAAIABJREFUeAHsvQeUVAW2hsta792ZMQMdKledyrG7q6sr5+qcaJqgIgYwPcfRUa9hzGJGjAgqoigqZkVAVEyIAcWEGcSIOSvmgNT53t2nYK4zy4BhdO5YtdZe51R1ha59/t7737GHDKneqhqoaqCqgaoGqhqoaqCqgaoGqhqoaqCqgaoGqhqoaqCqgaoGqhqoaqCqgaoGqhqoaqCqgaoGqhqoaqCqgaoGqhqoauDnaWDokCFDikOGDJn4P29z9HrZb8iQIYNDhgxRft5bV1/9n6QBAcmSIUOGrBkyZAjfI4+uB9NGfffVZwwOXTVl5JqnTxrJv0o26hepPukX04BYlHnfA5DvAs/qjbU4T580csm/CiwrJw/c+YtpovpGP6gBcTFy4b8LFD/0+EaBZuWUwf3+ZYA5cYS4y+rtV9LAzwHLBjDJe4iV+s7bihMGw/8qwMh7f+cHV3/wi2pA/jI3XPR/PgqPmTpkyBB5jpBfOf8+cAk5/t7bv4jHyO9Uvf1KGvguAAip/TaLIY/Jz/4ZXHJfAPa9t5WTBy76F1iZ2d/7odUf/mIaEDP+bRdeQPR9obOA5ruiqO973ZAVk0dM/MUBM3lQrF/19itoQHIq3waY+Rvx2d9lZSQs/86bhNf/AsB8L0i/85ep/uBX1YDkar4NbD9IPldOHvnSLwWalVNGCnCrt39zDXyfS/rBX33lSQNTfynArJg8IES8evs314CQzG+zLhtFPp+ePFj8pQCzcsqguNXq7d9EA8INvilCLr/LFf0QUf77V/olecyjRw9+WyT398+qnvx6GhCgfJsV+bbHJC3/o4jnL1EmqJYDfj0wbMwn/RBgJKyWaOp7o6Lv+qAVkweP/rluaWW1HPBd6v1NHv8hwIilEfckpPNHWRf5Nr8Ij5nc/5PA+pto83fwoRsDmG+6JyG8P4pP/JwywcqTRv5gVvl3cI3+rb6iXHwhuRtE6kTigr6rlCDg+VE5kZWTB+b/VLe0YvLAxiQX/60U+nv9ZcTyCHi+aV2+ef6DBcgNivtZ7Q7VcsAGNf6fOX5Xs9VGu4qnJw8qP9XCyGv/z2iq+otqGhDC+U3L8s3zHywPbNDhTywTiFus3n4DDciFlQv/z7Ix5PX7SPFGRy8/sUywURnl30Cf//Ef+dJ3WImNaRf4Pguz0YD5Ke0O1XLAb4dLiTS+6Uo2nEu080NW5rtKBPIeG80vfkqZoFoO+O0A833tmcITvo2LCBi+Dyw/ml/8mDJBtRzw24FFPlmsyHd1zm2wNgIAAYjwhu9qmtrwXDlujDv7h2/9Y3hMtZ3hH1T3m9z5Pi7yTSBszPlP6k35UWWCajngNwHJP3+oWIWNAcT3Peeif37Tjb2/sVOR1XLAxmr013mecBNxP98Him/7mbi0nz1EtjE8pspffh0g/NhPEWsj/S3fBo5vPibPkTLAD0VTG/X5G1MmqLYzbJQqf9MnSZQkLZACog0ij/0iIPnmN9uYqcjqdOM3NVY9H/ID7Q4/OlyvqvQ/XAM/MBVZLQf8h1//H/31vrdMUG1n+NH6/I9/wfeWCartDP/x1/8nfcFVU0Y++s89MtXpxp+kyt/Hi76tTFAtB/w+rv1P+pbfWiaolgN+ki5/Fy/6tjJBtZ3hd3Hpf/qX/GaZoFoO+Ol6/N288ptTkdVywO/msv/0L/oPPKbKX366In9Pr5QyQbWd4fd0xX/md5WpyOp0489U4u/p5Vq7Q7Uc8Hu65D/vu2pTkdVywM9TYvXVVQ1UNVDVQFUDVQ1UNVDVQFUDVQ1UNVDVQFUDVQ1UNVDVQFUDVQ1UNVDVQFUDVQ1UNVDVQFUDVQ1UNVDVQFUDVQ1UNVDVQFUDVQ1UNVDVQFUDVQ1UNVDVQFUDVQ1UNVDVgGhgsDh06PheU3h8h2niuHbz0Vu3WmaPLhrn9WVNj7YlDKsLMd3qQqKeYlJHPlFPOqojHtYRazKQaDasTkaMq1MthiWZqG5JIaGfXUzWH52L1w8mo/piODz0F9+fV71qv6IGBovK0HHtSnG7HmW/7XrN87YfYVm9wwgz23ebGddhYetWM6OKZvqyJtqSJvJxE9mogULSSCltoJjWk08YyMSMpKIiBtJRA5monky0nny8nkKynmxcT6LFSFOjHl9AtzoUMMyLNJqPjoarIPoVL/dP+6gd+l3FnfvdU3fucy/ZsVth+04r4zUxs12nkW3bjYxpNTEyb6YvY6InY6Q9baKYNJGLm8nGzBpgWtMGShkDxYyZUtZKIW0hJ89JGskkBDg6UlEdiZZ6IhE9DU1GfCEjnoCBQFDAYybcYKApZCAUNCxpDBmmhsP6jf5PKT/t21df9YMaECsymDUXxxRNs8d3KGu273awU4+TiXIUoLSZ2K7VxDYlE6PzRkbkDHRnDHQkTbQlTLSKNUmZKKYEKBbyCSv5hJFC0kAxZaKUtdGWV+goKrTlbRSyFjIpC8momWjESFPYQLDJgDdkxBUw4vQb8PoN+AU4fj0Bnx6fz4g/YCTUYKSxybQm2GCa7WwwykrY6u3X0kB30lzsTZmnjshY14zImBAZmbMyumBjbNHKtkUL2xRMjM4ZGcwa6E8Z6E4YaEvqKcYN5GMGciJxI8WUhVLaRjGlkE/YyIlrShjJJ80U0gqtOYX2gp32gkIxZyGdshCPWmiJmGhsNhFosuBrsGiAUXwG7G49drcOu6seu7MiDnc9Lp8Ot1+Py29A8RmxevSrjc762XWmod/2n1d+LVX+535OsTh0aHvCtF9XwrKkI2GjI26hPWamPW6gI66nI2GkK2mmJ2GiN2mgJ2mgM2GgdQNAonpyGv/Qk2oRl6InGxeuYqOUcVBMO8knFdIxM8mYgWTMRDZuo5Cy0ZqtACeXMZNMmoi2mIlETDQ1mwmFrQTDNnyNVhwBswABk7Meg1KLzlaL3lqrnRsd9RidOkwuEQNGpx6dvY7hpuEM1Q19dIu6LWQBdfX2czUgQOmM6yd1xk1r2hNm2uIWisI1oiYKcROtKRNt6Yq0JkyUokZKMSMFkaRYDjvZuJVUi4FkREcyotfAko7pyQiYUlaKKQeFlINcwk4qaiIWMRCLGEm2mMnGTeTTZop5C8WilXTWSjRmoilspDFspqHZSqhZIRhW8DXaNEvj8OpRXDosAhKlDoO9viIOHUaHHoOzIjqlnhpzDcOMw9hStxVb6bZaPVw/dJJeP3Sj/9HXz9Xvf8zri0VlaH9emdSbta7pyhhpS4n7EBCYNMkLODImukt2+jtc9He66e/00dfVQE9HAz2djfT1hRnRH6Gnu5G2gptsyqyR1lzSQEHeS/hL2kIhqZBN2MjErOsjIgGVoXKe1FEomujosdPR56DYqZDIWQlFDITCFhoiCg0ROw0RB/5GK96QGXfAiNtvwu0z41ovDq8Z+z+JzWPC6jRgVCrAMtnrMSs6THbdarNLP0nx6avA+SFEC1Da845JPUX7mv5WO/1tDnraFDqLNtoLFtryIlbai1a62uz0d7sYM+Bn3NgmdhgXY4fxacaPy7LduBxbb51hzJgko0bF6OlpoFS0k8+YKWZMtGZNtEoUlDaTT1pIt5hIRcyaJZJIKJcxkU2byBYMtPcqdI9y0j7STr7XTrxkwx8x4m404hMO02TVxC1gCZr+Dhiv34zXb8ETsOINWLWj22/Rzn1BG56ADY/fikees/5x7XnymDzfb13tCymTfkhnv9ufp1LKYCHtWN2Wd9DV6qCv08VAj4eRPW4Gul30dzk06eu0M6LbyUCvm5F9bsaOCrD9dhF2mZhhl10K7LxLkZ0mlhg3PsvYbVKMHhunp6+RtjYnhbyVUs5CW64CGLFY2biZRLOReLOBTMpIZ4dCb5+L7n43nf0OOged9Ixx0TnKRb7fQaxNwRez4Gw04ggZsQcM2Hx6LJ6K2Dx6HF4jLq+pAob1YBEQCGA0MPwDgCz4g1YCIRvBBoVggw1/SOF/wEKwyUljs2d1LOaucpwNfxnhsKIkorYlqYRCLu2gNeekq9XJQLeXMQMBxo70MWaEl9H9LsaMEIsi4mbMgIfBfjcDA2623baRiROT7LJrlp12zTF+YpatxycZvW2CEWNa6OgNUGp3USjZyedtWo6lmDYhri0tYXLYSEuzgULRxohBH6O2bWDrHZoYuU2AjpEu2ke6KA04SXYpNOYseGJmHGET9pABi68ek7sOvaMWnb2WelsNeqUWk1KP1Sl8RqInA4rbgM1twO4x4vSaNEC5vSZ8fiOBgIlgyEpDk41Qo42gJgoNYSdNETfRmJd43D8vmfT9vt1UNKzsF2u2rklGFTJJhVzGQVveSXebWBcf2wwG2W5siG0GfRpQxo50sc0ojyZjRnoY6HfR3WOnr9/N2K0bGb9jjHE7xRk1rpnewRCd/QHa+nyUerwU2t3kWl3k8g5yaeEtFjISFUnU02QiHDZQaHMwelwT202MscNucbbZsZmukV5yPQrxNguNORP+lAlP1ISzyYgSNGDx1mN0CVhqqLPVUGsdTq15OHWm4egtdRisdRhFlDpMSi1WR60Wcjtd9XjcOgJeHQG/gYYGCw0NVoINFWsjwGloshNudtHS4iUa9RFP+onGfb8/NxUO65VYs2VJrNlCPGImHbORS9rIpey05h10lsQFuRkzwsd2Y4NsOyrA2AEfY0d6GDfGz3Zj/WwzKkB/v4f2Djv5ooXOHicDY0Kadegb7ae9z02h3UGuw0m+y02xy0u+zUM27yKbdpCOKyRaLESbzYQbLTQ2msgVXWy7Q4Jd/pxn972L7Lh7ioFtG2jt95BoVWhKmwilzAQSJtxhA/Z/AoyApcYyjBrTMHTmGg0oFlsdNnstDkcNbvswvM4a/O46TYKeWhq89TT4dYTEygTM+AOWCvfxmfH4KjwoGFRoaHDQGHYSjriIxJ2rxTJvsNL/0cdo2LreqkhUYiUZMZOJWbRkWSZpJavlPux0tzk1DjN2pJ8xI/0M9vkY2Stuyse4MUHGjBbAeOnp9dHR5aaz10vvgJ++QT89I320dTvJtdnJttopdLgpdfkodXjJ5d2kEg4SLQrxiJVo2EpTo4VgyEQq52Hsdml23qON3fduZ+IeOUZvJ1bGT6HTRUvORkPSRDBuwtNccUlWcUmuWvT2Wmptw6mzDMNkq8XmqMfhrMPjqsPvqSPkraXRW0vYV0tzoJ5woJYmfw1hfy3hoI6moIlQ0IxPgOI143QZUOw6bEo9ZmsdFmsNVqUOxanXgBQM2db4g8rP/jeE/7ZgK4aVobGIcoa4n3yykiwrpiX/oWj5j1TUTKzFQixiJhm1UswqdLU56e1y09ftpq/HR2+3lxE9PkaPDDF6VCOjR4cZu00Lo8Y2M7h1mP7BBrr6/HT2eCm2O8kUFXIlp2ZZim0+SiUf+ZyHdNypASUatmjHxgYLwaCZeNLDiME02+5YZKddS+y4W47BbcN0jfBT7PSQLNgJp8yE4ma8zUZcIRN2vx6bpx6Lqx6LUy5oPS63Dp9PT9BXT1OgjuZADZFADS2BWlqCIjVEQnWEA3U0+uoJ+XQEvQb8XiNutwmn04jVpsNoqqVeP4ytardk82GbstnQzdl06GZsVbMltbphGC11WB26M4Yq/2HV8mJSUTJx+6PZpINC2k1HwUdHwUNb3k0h4yARNxMJm2gMGWmQAl6DkWjETE7S9pKa73DR3e2mt9fHyFENbL1tlG3HJ9h+QprxE9OM2ynBNjvEGRwbobM3SGu7j1zRSSbvIF90U2r1Uip6KOTc5FLuvwOmpclKpMmm8YdA0ERzi5P2rigjRglhTjN2uyS9g420dvnItrqIpe2E41YaWywEwxa8DSY8QaOW8nd59Yh4fHr8fgONQQORkI6WUD3RUB2xYC3RQC0RsSg+cUUVy+N21OCy1+B21ON2GXA4jSiKHpOpDp1+OMNqt2SzYVuwyVab8cctN+VPW2zC5sM2o6ZuSwymGmwOPR6/abXvP8VFFdPucGvaubot7aQt56az6KOnLURPe5CONr92IdNphWiLhSbJnjZWyJ/81UfCZmIxC+mcjUKbna5+L2PGR9hmxzjjJ6TYeY88u/6lyE67Zxi/c5KBMc2U2gPkcm6yORf5nJtiQcDi0475rJt0wkE8ohAN2zRpidgIN1u1zxWimUz5KbY20dreRKk9RL7kJVNwEU85CEdtNLYIYGw0NCuEmoSgmvAHTfgCRnw+gwaWBg0seg0sLcE6IoG6Ckg8NQRctXgctbiE/NprUWw12G01OJV6nA4Ddrsem02HwVhDbf1QhtZswZbDtmCLYZuzxfDNGV67JQZzDYoAxSshuUKo0U5j2L46HHP/365NFTPOCe0Z55qOjJOOnIuOvIf2ko+u9iDdnSE6OoIUW73axU0k7UTjNqIxO9GYg0iLnYawlVCjhUjcQrpgo3OElzE7Rth2Qoztd0mzy545dv5Llgm7Z9huQpzeEQ0Uil4yaRe5rJt83kup5Ke11UdBsr0ZJ4m4QixiJdZsJR5VSCTsyGe3RO00NNpoalSIRT0kkj6SKTk6NZHfqTkq4iQcddAkz2+WSMaigU04UDBgJOg3ai4m7NcR9tfRJNbEU0vAJVakBrtSg81Wh2JfL8JLNKlHUXQodj0Waz16Qw31uqHU1Q+l3jAcvakWk7kOm6LH5Tbj89sIhAQsFTLc2FQ5BhuVCf+2vOT7frF8XJlUSjvoyLrozLq0o+RYSgU3ra1+WtsDlDqCFFp9ZAse0lkXqYyTTM5NJuchmXYTidtpbLYSjlpI5m209rgZsU2IsdtHGDchzva7pBg3IcY2O0QZHNtEa4eHTMZJKukklXKRzXkolnyaS8rnXWTSdpIJhUTMqvGkTMpBqdVDZ3eQto4g7YUAPblG+kvNbNMdZ8cRaXYcyLBtX4JRPVG625rJ50Ok0j5iCRctUYVIxEpzk1nrf5G2Br9XREfILxxGh9ddh9tRi9NeWwGLUovNXo/DodPEbq+nIjrNughgbIoOs6Uei7UOq02Pw2nC6bLg9ljweK34AxI1OWlsrEggZMfrt+HymDUXpTfX/t8KveNh86RMi5VS0klnxq0Bpi0jRT5JzimaRcmWJMz1kRPAiFUoeMgWPeRbvRTb/Np5IuuiOW6nqcVKS8JKKi8Rj4vOfh+9owKa9MlxpJ/Obg/5vEIyadOsSDLh0CxNvuClUPJSLLrIZRQtCsun7Rp/GuxpZOft0uw1oZX9JnRy0E6dHD6xl6N26+f43UZw+l+3ZfLuA0zauYfDduri4Il97DmujYmjC4wbkWGgI0JXPkAmphBpMGiWxe/XExI+FjYTbDTicstFH47VJi6oTgOJ02nA5aqI06lHxOUyamRXOIxdXJPDiNNl0kDi9Sn4/P8rgYBdA0wo5MTns2F3GjGa6zCYajGY6zRrZDTX/98ATThknhRtNJNusVJIOGhLuRH+Iq0CuYSVtITOWYfGC7IlN9lWD5mih3TBTabkId/mpdjh18CUyruIJu1EolYiEkFJkTBrp1i009omZNhBW7uD1qKNUq5SVS4UbGQzNlJJhUzKTiHrpDXvor3gpDNvp7/oYse+Zv46rshBO3Zy2IRuTtxjkOn/vR3nHrQDsw6ZwBXH/ZkrJ+3Owin7smDy3lx77J85f//xnLbnGCbt3M/ftu/i0IkjOGD7Pvbbvpddx5RoS/loChg0HtYcs2kgb4xYNI6jOMSVSC5GpwHF4zHh9ZrXi5yb8HjMeH1iQSqWRNyOiGZVfJXcjNtjxukWEFYedzpN2OwGDJY66vXDNdEZavgfC4PZKuG4/t8bNNFG66SWJhuxJhvpFpsGmFLKRSnlJJ9QtFaDrCTosnZyBQfZkoN0yUky7yCRc5AquBAQCWjE+ghg4kk7ibiVhLilFgvpmJVc3EIhJYVECwWtgKinNWeis81Ge7uNUqtVA002YaUtZae74GL73gb+e1yOk/8ykgsO3ok5R+zCpYfvyuWT9uCKSf8f8ybvxZ0zD2fpeYfzyCUn8PBFx/H4ZZN55JLjefCCo7lr+sHcdsbfmHfCPkzdextO3H0kB4/vYr+t29l76w4mDhZozwVIJV3EUk6iSQeRuNSDLDjd4lZ0uN1GBCx+v5VAwFY5+i0E/JbKedCGP2DD67NqoBDXZLFVRFyUwViLAMJgqNH4jDxmNNdSpx/O8LqtqKnfijr9MPSmGs3amCo///cETTisTIo0WZFQNd5sJ93iIB93Uki6KKacWr4lK6BJigVQSOdtpAsKqYKDeM5BLGMnlnGSzEn+xK1ZnVTOSSpt16ySJPeyUQu5FiOFqJ7WmIFSwkgxbiSf0NGWN9HZbqOzS6G7y0lH0U5nSmHrkptDd8gz54gduPX0v3Lv2X/j4fMOZ/mso3hEZPax3DvzcJbNOpJH5hzLE1ecwDNzT+eJy6bw1OVTeOaa01l55ak8celJLJ99HA9dcAzXn7QPC07al/MP2JEz/rodh03oZ4+xJXYZXWS7ERk6WptI5zxEEnaCjRY8PnEtRs2ifBMsch70WvCJ+Cz4pDjpM2N36rVkXa1+KFvWbM5mQzdlky03YbMtN2WzrTZji6Gbs9XwzampG6rJsNqhbDV8C7aq2YIa3TBq9MOp0w3TwCVk2fzv5p7icWVCLGIn0qQQkXA1YifZ4iAVdZCOOUnFpDlJIZ1QSKdspDcAJm8jlbMTz9hpSSlEknYt1yGgEReVzjvJ5eyaFSnG9bTG9bTH9HTEdHTGKueliJ58VKc1bne2WunustPX5WRMu5v9tkky57DtePDc/Vl99Ym8vuB03l50Fu/eei6vL5zGG9dP5/UbZvDC/GkaSJ6bfwbPzT+NlxZO49WbZvLc3KmsnjeNVxaczeprp/L8Vafx9BUn88iFx3HvjKNYdOoBLJiyD7OP2J3Je47hkAm9HLRTP38e10F/d5RkwqsVE/3S4iBuxWvWLItYF038Nrwes2Z5HA4DTilOug1Y7fXUm4ax+fBN+dOWm/CHLf7Ef232J/5rU5FNtOMfNtuETbfcdD14tmLL2q0YWr8Vw3XDqdHXUC9WyFKPVTFo1ioY/DeJntIxd1gyp8mok2iznWYNNHZawgrRJptmbeIRuwaaTNJBPufUCGih5CBXEksjIFE0UhuJW4kKac3ayRScWnW5rWCjPW9CGqm6UgZ6Evr1oqMrVk9HSz2lljpak3o6cxZ6Sgpbd3o5cfdOlkzbhzduOoPPll3E2oevZO0jV/PVQ1ey9qGr+eyBK/hw8Sw+XXo5n91/NR8vu4oP77uMj+69jI/vu5yP77mMj5dewQe3X8w7N57H2wtn8OaCs3nlOgHOKay49CQeOG8SS885jDvPOoT5k//KhYdNZNqBOzBln204as8x7DS2lVQigNSCxJqIFdkAFr9fweOx4HAKwdWvT/vXIT3Airseg3U4W9Vszh+3+BN/2PxP/L+b/In/509/1ETO/7DZn/jjFpuw2bDN2ap2K2r0w6gX0muRRiwDNrtkjc0EfDYaQ04iTe41sfBvnKfpLvqU1rxvdSHjIZNwIVYm3Ci/oJVwyEpzg5WWRhsCmFzKRTHrpr3kpqvDTUe7g7ZWhWJBrI5CPG4jFreSTFjJZCTDq9BZUugpWegrGenPm+hLG+hN6jTpSerojlekK6anO25iZNbOhO5Gpu4zyGOXTeLDxy5n3VtLUN+/D/Xde1HfuofyK4tRX15C+cXbWPv8zZRX3075zaWo7zxAWeTdB1HffoB1byyj/Moy1j17B189skAD1idLLuLj22fx/k3n8M7Cs3n1ujN5+tITeOLiY3jwgiNYPO1Arj9lXy46fAIz/7Yjx++1NTuNKRCPev8BNEJeXS6TltUV96M4dFgddRpQXOubxe3uenSmYWy21Sb812Z/XG9ZNtGAowFm800067Nl7RbU6odhtumwS/jtFuJsI+BXaAzaCTc4iTS6aGly09zoXu3z/UZFS+mO6yz6V3eXgnTmfRSSTuLNCg1BQbVRk6DfRGPQjBDhfMpFW85Ld6uH3k4XPZ3SKKXQUbBRzMrsj4VMvDLuUUpb6cxbGSjZGNVqZVTJyGBOT3+6nt6kiJ7/6fWlO6ajJ25gIGNju1YPh21fZN4Je/LKoml8/eJC1A/vQ/36CdS1T8K6lahfP4267mkor9KOcp91z4H6CqhvgPo2qO+C+iYqb6GWX4XPV8FHT8D7y1Ffv5fyc7dSfmQu5QeuYu3SS/jo9nN5Y+EZPHvVZB6bczwPXDCJe84+hNtO35/rp+zDBUftzq5bt5No8WigEdIrYbMQWgGK4tJjc+q0iQOZKvCGTJoIcMxKLVsN30yzMH/YfBP+uPmm/GGzTfmvzTbRrMvmwzenzliD1W7QQBIMOpBQu7HBRbjBTXODm3CjnDtpDDkI+G2Sx3lU+S1qT515/xmdBT/dxUAFMCmnlnIXgAR8BnweSWAZCPmNhIMmjcNIs7W0LvS2i0hFWqGrZKNT2i+zMvJh1gbLpLG7J2dmsGhhbMnK2JJYj4p16YjqaI/oaYvo6Yoa6E+aGd/m5fjdOll6zoGsuWcW5ZduhPfugk8foCyAKa+krD5DWX2RsvoSZV6mjBxfocxrlHmbsvoBqvoxKp+i8hEq71PmHcrqa6jqy6jl1fDl0/D2ffDCzbByPjx+JepDl/DVPefz0a1n89YN01l11RQeueRoHr7gKB4+/yiWzTyC607dn4N2GyQV92puyWqrxyh1IKVe4yzSUCUi/cD+Bhldkd5gg1b13qpmM/605Z/Wy6YaUP605aZoYNEPxyIcxWsjKEBpdGvS1OCmKegk5FPw+4QnWXC5zCgOo2aJDNa6M74v6fqL/yyTce1XyvvpKAZoK/kpFbxI1jTWYqOpwaylxwU0kvWUo6TLm0JSiZa+F4ViRqEkY6o5iwYWAUx73qw1dheTBtoSBo2z9OXNjMxbGCxY6S1YacuYKCYMFGIGWmMmepJ+AN7+AAAgAElEQVQ2duhu4OS/DLBsxiF8cv/FsPomeOdO+ORB1LWPoqpPoarPoPIiZV5dDxAByeuUeZMyb2mAUdUPUVUByyeoCHDeQ+Ud1vEGKq+iqi+ifrEC3roXnr0BVsyFFdfCE1fCwxejLruAr+6epQHn7RvO4LV5p/DytVN4ae4pPHPVydw87RAO+/MYWrNNOB1GDTAWe70GEgGINJB7AlKXMuMLmHF59OgtwxGXI8VHkc2Hb8mmQzfXzofWD8NgqsPukK49O8GQi4ZGt2ZhpGwgeR0BiJBek1WH3lqPTmvoqsdoExdo+HVaI8JJnxJPONdkMy6kmCeFvkzWpdVjolEbEekvabDSGLJoTUF+n4STBrw+o9bvIVFUvEXyKibSCTNFbcLQQmvOoo10yFhqKWWmI2OmW4BSstPX6qSv3UV3q4tOqV7nFLrzLnYfleLcQ3fi8UtP5IsHL4cXFsKbd8D798Lny2HtE5TLKyiXBTBiUTYA5ptg+UfAlDWwiIV5RwPTOnlN+QXUr59B/XA5vHonPL0Qnp4HT14DD8+pyKOXw4NzKN95Hl8tPpvPbpvOmpun8e6iabx903Sen3saN555CIf/eTTFdAiHQ4/DpcMblIE4K4Em6eWVhikTLo8RxSEcZjhb1W3JFjWba8DZomYLRLas3ZxhuqFaws7uMuENKHiDdjx+BZfHis1h0OpRBnMt9cba9WRYOv6ELxlxeSQRqKz5VfhMS1xZLQW5ZMpOUop5GQfxtINowkZLVCq/NsKNVsKNikaApSnI7zfh85nwB8yEGqw0heV5ZlqaLaQSNvIZhYIk8+SYkRFVG11Fhf52B4OdbkZ1exns8TDY62Ow18/Yvgb23amNC4/YheWXHMvnD1+Guup6eGkRvHcPfPwQ6mePwtqVlMvPoarPr7cwL7Pu725IALFe1Pf5RwvzQcVN8RrreJl15Rcor12FuuZBeP0uePFmeOo6eORKeOBiePhSePQKeOhSWDobdcn5qLefy1e3nsNnt57DJ7edwwe3zuT5BdO5beYkTtxvIh2FFnwBi+aCBCwaYBoqORvJ5oq7EsDU6IYyrH5LhtZtqYFHALRl3RYMl6jIXKvNOtm8ZiweIyaZe7LpqDPVUGccjk6iJmsltHa4JDss4b3wTIfGa1oaXEt+cffzzTeMJ62T4kkb6awDSappYJF+lowARiHSYtVaBZqbrDQ3KlqI3Sh9qkELgaCZYEg62/73fihkqoAmaSefc2ijIB2l9VMDHU5GdbkY1+th+xEBdhjws8NAiIljWjhglw7OO2oX7ppxGO8tPq/iHlYtgJdvhXeWon74AOUvH0dd+xRq+VnK6nOoPM86VvM1q9dbmndQeVfjKhWwfFRxSZpbeg9VfZ1y+UXK5ecrIoB55z5482546RZYOQ+WX16Rx69GXX456n0Xwz2z4Y7z4bYZlG85hy9vOYdPbzmbj289h/dum8kLC89lwfRJ7L/zGNKJIIHG9dal0YovaMbtNeBwGRCeozdLPkXyKkM1EZCIDJOjUXqHpem8DoNTp4lOqdNAVGMYRq1xuAYeq9Sk3BYNKFKPCgQcNAadNK+PnsKNrn+Na0omFSWRsZEtOsi1O7WGonTBqaXypWgoAIrGlYqFabKtz8coNIcVGhutFdGalRTN0ni8FVclfS+JuADGTod02HW6GNHt0izK1j1uduzzsMsIH7sNBtl9dBMH79rBOUfsyrxTD+Dpa07hywfnwFNzYdVCePl21PeWoX78EOUvHtNEXSdk91lUBDSrUTXCKy5pA2CE7ApYNgDmE8rq26hCjsvPon69ivJXT6N+/gTq20vhraXw4i2w4jp49Cp47Cp4ZL11eeASWDwLbjoH9cbpfH3jdL666Ww+vWE6H990FmtuPoe3b57Fk9edwyWTD2K3cT0kYj6C4o6C4ibEHYmrqkRRJuEcplp0phpNJM8i1kMmJkVqLbXUWeuQKcp6EWutBhQBi1gfcUE2p7ynVYuivD6bVsSUHJCE3X5pkfDb1ijKvyDUjqds8ySVL2DJdzkpdrto6/bS1u2jtcNHseQlnXHTIhnfRoWWJoVoxEG0xU6sRRqkxAKJK1IICcFzSyGuHmk2SsWs2uB7T7uT/q4KYEZ1u9i6y8mO3U527fOw58gmDhyfZdohO3HVqQey9MITeH/JhaiPXQ5PXgsrF8JLt6O+uZTye/ehfrac8uePoq6TCGkVqBI+vwh/5zJiXUTWfAMwH1FW39cAUy6vpvzVClSRL55EXfNwBYzvLoPVt1eipKeuqQDmsSvhkctBSPfdF8Ci6ZTnn8HaeVP5cv5UPps3lU8WnMlHN0zj/YVn8fqimSyfO52zj9qbXbftJRbzItlgKSG43GJhKrkZi01aHHSYpF3TWq9JvaWOOhFrnQYYAU29rV6TOksttevdkUwsmO0GbC4zDrfUpiRJaEaRgqWQYbsBi12yygYUl+mXdU2xpGliPGUhlVfItzsp9bhp6/fQPTJAz0CD1hbZ1hEgn/MRa3ERC9u1ZF0q7iKdkj4UF5mMi6Sk/jVibKEpaKTBp6M5qCcdNdGWMdPTaqO3ZKO7ZKO3aGVE3sa2bS527Paz19gYpx+0HZdN+W9uPOsInrp2Kl88eEUFMI9dDU8ugJU3aqRUXbMM9ctHYN2TlNc+hvr146jlp1HFNakvrLcyQnbFygh/ESuzpkJ01dcor3uJ8perKH/0MOs+fgT1g4fgpTtQX12M+voSeHZRhb88dhksF/4irmkO3HdhBTC3n0154Rl8Nf90Pp17Kh9feyofXXcaa+adzvvXncYb80/nheunMW/a4RyzzwR22LqL5rBLywZLzUkawKVnxqzUYbbVa4AxK3otupFoRwAiQPmmlREA1Yu1sdRp1WoBmQaI9eDQXi+NWZb1z5HnyX2pajsMKE7LL7eGJJYwro4lzCTTVrIlO63dbjoGfPSNCTFi6yb6BsO0dQZJpdyaVYm32EnHXeTTXop5r9YeWSx6yUvPS8ZFOimlAivJZjPJRj3pJh3FFj0dKVnyY6YtbaYkO1xiJrpTVkYXvRy79yiuOO0AbjznSO6bM4UXb5rBZw9ehvrUtfDQlXDPpfD4AnjnHsof34f6xcOUv3yE8lePoq5djlpeoZHfCgkWHvMm67SQWkLrNymrb1FW32Sd+nIlKvryadTPHgMBzFv3or54B7yxFPX1e+DpGysEV8ju/ZfA8iso33ch6tIL4M7zUG+aytp5U/hywWl8et1pfHj1ybx/1Ul8cO0pvHfNKbx65WRevOYU7r3oeE7YdweO+Mv2jBtZoqXRgcdjxOHUI9bFYKnRZIN1ETCIq6kz11JjGs4wg4y0VFyT5p7Wg0CeLwDZIBsslBBgg01mpOoxrV8OIETZ4jai+C2rlV9i9Vo8qZ8UTRiJp8wksxayRYXWLrc2etEzJkjP2AY6BxvItfuISAtj2E6ixUk26aaU82p5mrZWv9b5VpAGqbxTq1bnklbyktmNmshFDOTCBnLNspbDSC4qK8QsZFus5KJWBtsbmXHMX5h/1hHcdv6xPHjFqbx8y0w+f0gszDWwdA7cfQk8NR/1lVvh3TvhQwmtH6yAZu1yyuue1KxMWVxUWaKmN1in5WLeqLggOZcEneRbhLOsWY763gOo7z+E+vrd8MLt8Opd8Oo98MwieOhyWDanYmkevRoevgzuuQBuOxv1htP5av4pfDr3ZD6+9hTWXD2F9688iXcuP5F3rzqJly87kafnHM8jl57IrOP+ypF7juOQPcdTSoXwSkht12Gy1KITLmIcrkU8EvVs4CYaaAQoxuEMF4JrEgJcg7grbXjOIsNz9X93ORZFj0VaJex6rA6ZxjSiuI1YJRrzmlD8ZuwBs6wsOfqbQc6PPteIbtqyOpGxau0I2aKdQluFu4g76h0bomt0iEJviFjeRWNYqfTERhxkky5KeR9tpQCl1gA56arLubQIS/ph8hk7xbSdfFI2J5hJRUwkwkZSzRbSESupiI1UREZSXOy320iunHoYN86YxK3nH8P9l5/CS7fMrLikR66Cey+B++ZUIpdXb4W37oD37oY196J+vlyTshy/epTy2idZ9/VKVAmVVYmAnqP89XMasS1/uQL18xUaWMqv3In6srihu1BfuI3yszfDS0tg9R2w6ka4/zJYdgkIWCQHdNeFcPsM1t00la8Wns7n807ho2tP5oOrTuL9Kyfz9mXH8/ZlJ/DapcfzwsXHsuKiY3jk4uO45tQDOGTX0Ry42xhG9WRobLBXAGOuxWCS0Hg4tQIKgxQXK81RYikEEFoyzlyLzlyL3iLyj4ARCyNuaQNQbFLodBpxuE04PGYcPjOOoBlHyIqrwYq7ybpGCSs/fcFjPG6dlExXKscyZlpsd9Pa7aO9J0DniCBdgzIVGCLd7qc55dB6PyRsjoQVUnEn+bSMdsjwmJd0zk087SSespPJOLSxWBmNzUo+Z32DVLxZBuMtpAQwLVbSMYXetiamHLwrc6cfyaKZx7B49vHcd8XJvHjzDD67/1LUhy+HB+bAQ5dVkmmvLAIRKQ+8ebsGmvL798DnD6/nM0+wTisXPEN57UrWffE45a+e1PI26odCbB9EfX0p6vO3VIAix2cXUX7mJtRVN1F+Yj6qcKfF51O+4zzYEErfPpPyjWfw5YJT+WzeyXxy3cmsueYkzRW9ux4wr11yLKsvOppV5x/B4+cfzvKLJrHwzEM0wOw9vo+9dxlDe6FF4zASVkvXnMlap00JGMzDETHb6rBK9OOoEFZZEaKJcJ0NY7nrAfV3KyMcRayKy4jdbdJE8ZiQNSTOgAWHBCFhG/6YE1/c9dOsjMy5RGK21Ym0tFNWuuBKnRWwtPcG6egP0TGikVxXgFjBTVNM0tOVgTCpWMcjDtIJIbxuMhlp6q60W7bI4FpKIZ2xk805tE7+VNJOMmbTGrPTUSvZFgv5mI1S0sGOo/Kcf8L+XDvtcG6ZdRx3XXoyy648ledunMZHSy+kLMkyEYlSVl4Hq2+A5xdU5NWb4e27WPfOEtRPHqS89nHKXzzKuk8fovz1ClRJ7H31FOUvn0L98CHUt+/T+IpGcF+8DfXlxRpweP421OduR33yetQnFqDefxnqXbNQl8xEvft8yotnwK3nsPb60/n8uil8cu1kPpp7Eh9cPZl3rjiRty4/gTcuPY6XLj6a52cfxVPnHsrDZx/Eg7MO4+ZzDuPEfXdir/F9/GXCINsMtBIIWLUCZaUhXK/lZARANruUAiS6lGyttGuakUyvWA15rhBkAYm0bIrIecXK6LRdNDaXEZvbhMVt0MQqCwJ8JhwhC95mRcBCIOFeEy7+BCvzP+u4JoVl5CMlXXAe0iUv2TYvhc4Axe4grb0NtPaEyLR6tE65SExGTk00hEw0hUw0N1pIxKRbrhIhyURALKVo/S7JjIOMcJmCDJo5NV6Tyyps4DXFqIlSzERf1sGhuw8w5/TDuWbaodx20YksveI0DTAr5p3Ke3fMQH3wkv9Nzz95FTwzD56dX5EXboA3Fldc00f3U/5iOWWJmCRyWvs46ldPVcLmT5/Q0v6SyVVfu7MSnkvoLPmWp2/QLAyrboYnFsBjC2D51RXLctd5lG8/h/Kt01GlQn79aXyxHjAfXjOZ9646kdfnHMsrc47lpdlH8dyFR7Jq1hE8ds7fuH/a/iw79yAWn3ckpx28O7uObmeP7Uew87a9xJs9eKWn12nA7aq0dXrcRnyeynRkwCfZcys+v1Xr+ZUeX2ket8pCIptOi5Kkr3cDaGSThJBcs9tYyQi7dBhdMuJbj8Vj0ADjDttwt9jxxpx4ko4fb2V8zdbVDTE7zSkX0ZyHeMFNvOgmJXNEnX4KPQFK3QFyreJunCQSNm2wvaXJTKTRhIyhphJ2Cnknra0eiq1uckUHyaxCMmsnLVOJJSet0hvT6aGrQ9Z8KFpbQ6fsrIvptfbKKQftxAUnHcTcs4/glotO4M7LT+bOS07koSuO481bp/P1fbPhwdmw7EJ45FJYeU0FNM/Pr1gbsTLv3EFZ+MynD6J+UcnNqOtWaHymvO5ZhLtICC05HPWVxfDqHagv3Ya66kbUZ28EkacWoj50FeojkrCbW+Et91wIS2fB0gtQbz+HrxeezmfXnMgnV5/ImiuO553LjuO1S47hhdlH8uysw3jmgsNYdYEA5kDuO3M/7jv7IO44/yjOOHQPxnVn2H6wld22G0FPa4KQ14rPbcLvMRGQTj2vmVDATGPQSkPQQkjrBZaEXKVpXAAjM0tSWNSvnxwQ0Ai3McjmCIm8hOh6jVi8Bsyyj8+t0462gAklZMHeZMERtuEIC5f5EeO3zgbTRI8MkcWdNGd8RPN+YgUfMRlkL7oodPlo6/PT3uun1OEhX5CRDhuphJWkrP7StjHIBkonfZ1uRvR46e1209nlotjqIFuQjQsuSu1uOno89PZ5Gej3MKrPyUCHQn/eovW5bFPycvqhu3HJqQdz3bmTWHzZydw8+3gWzjiCey+axGuLzuTLe86DB2bB/RdoVWNWXAnPzYWXb4DXxCUtRn33TsqfPID6uYTZT7JOi5SkJ+ZZ1PJLqF8/j/rFUyAW5vW7Kb98O+XnbkJ9bhHllQsoC3CeFrkeXrhVi5LUJwQ0l4JYuAcugiUz+fqGMzQL8/HVJ/L+lUJyBTBH88Lsw3nugkN5+ry/8dS5f2P5WQey7Ix9ufusA7h5xqGccdie7DjQxja9BXYfP8i2gx00hRx4XUZ8LiN+j1nr/Q0FLBWwBKQjwERQ6nNey/rOPQGMTuMxeuE94pqUevT2evTOeoxuHTa/EXvQoonNb8LsM2hi8hupiAGjT4/eU4fBW7vxJQNHyPyou9lGY8pDSz5IrBAk2Roi1eYn3eam2O2ho99PR5+ftk6xHk4ttZ9Ny2iH7Hqxa4uBetvdlWLhQIDBfg/9PW46OmR4TMRNe6dX27rQN+BlcNDLqAEPI2XwvqRoWzG362zi7GP24uJTD2bhhSdw25yTWThzEtedeRD3XHAUL19/Kl/eMxP1vpnwwIXw6CVogHlhHrx2I7xxC+r7d6N+er/GXyR5t26dJPCe0ZJ4EkaX1ddZJ6D5ahXqJ4+hfvAw6ht3oz4r9aLrK1bmuZu1+6ok716/F/Xt+1FfvRv1+UWVIqTUlO46D/W2s/l6oeReJIw+nrcuO5ZXLpnEixcdoYHmmVmH8eTMv/Hgmftyz6l7sWTa/iycfjCnHLQbOw12MKYrx/aDnYwf3UO4waXlYyQnIyO0LodBA5BYnKBYnPVNagEZWdE6+Ixa87j0A0vobHFUtnUaXQZMbj1WnxGnFgnZcTfZsYesmP0mDShGnwGDV4fOpaPOUUedswadq27jsr9KwBR2SppatiHJdF8+SKIoYGkg0xEi2+GnJJFSb8XCFDvc5KWmlBG+opCU2SHZ81Lw0NPuY2SPnzEj/Izu9zLQ46JTZona7LS1uejo9NLR66F7hJeBQT8jB32M7PPR1yEDcFZ2GhFn+qS9NA5z3bnHsGj2ZBaedyzXnH4Ad8w8lBfmT+HTO89i3b3nwIPrAfPM1fDyQnjrFtR370D9dJmWvCtLl536XKV6zfrqtSoNVK+wTgurV6F+9Djqa0tRX5YWhkWoT1xPedXNqKtuQX3tbtQPHkH9YhXltc/CJ0/Cm/dVcjLLr6rkYBafx7obp7L2hjP46FohvMfw+mVH8dIlR7D64iNYNetgnjh3f+6buhd3n7oXC6fszaUn7cNJ++3M+P42+kpJxvQU2Xqwi6Ymj1ZTsjt12gitzVYZpZX+3w2DcF6PAZ/GbSqN5DLOUmkkF3Jr1DiLyW3UACMWxdNgw9uk4G2y4xTAaEARiyJgqaPOUU+tvQ6dqwajT4fZZ/7hDeYWt/4iu2x/DFnxR+w0Z/zEiiGSbQ2k2kJk2wMUOgIUO3wU2jxkcnaSKSvxmIWYrOyImrU5olzWQVvRTXe7m17ZdNnlpK/LQVenk85OFx1dHjo6XbR3uWjvlWlGN30jfQwMBOjv8dBdcrDL1nmmHfVXLpxyMFdPP5qbZk9m3oyjuPqMA7l1xt9Ydc1xvHvraay95yx44Hx4/FJ4/jp48xb48E7UT+5H/XI55a8eQ1233gV9/Szldc9VRAPKM6ifP035kxWo7z5cAYvkW4SzCGgkOnpuMeW3H0CV56xbTXnt86gfPw6v3Q1PLIQHrkS980Kt8FhedBZfLjydj649kQ+uOZ63rxLQHMlLFwt/OZjHztmP+6buyeJT9uDqY3bjlAN34IAJoxnX10ZvKclAZ47RA+1EIj5cki9xyUyTXouOJEKSwqQmYnlcMjEps9Z6rWgplW6334jDZ6wskPYaMXvEwuiQxdPukEUDjTtkQ/GbNDelc9ZS66ilVvbbKDXUOWrQu2uxBPQojeapP5i8M9jrV1ulniGjEU0KwRYn4aSXlpyfeMFPuhQkVwqSKXhJZZ1EE1ZaWow0hw2Em/Q0h/W0RIwaaGSWuZizU8ortIub6VDo6nbS3eOhs8dDmxQxO+wUO+209jjp7vNoS4L6+7yM6PKw14QuZhx/QCVKOutIrj//WK47+wiuPm0/Fp11AI9feiRvLJrC53dNRxXArLgCXr0JPr4XvnoYVbK7ApS1T1Uq11oh8SmtqFj+ciXlz1dS/uRJyu8uR33tPnjxTnhuMTwxHx69FnWFkN7bUFffiSrP+fip9eB6El67F1YuQl12BepdF1G+fRbq4gv5+pYZfLFwKh/PPYkPrzuRd68+lrevPJqXLzmcVbMO4rGz9+Pe0//MDSdMZPZhO3LgzgPsMrqTUV15eltTdOZj9HbmiEaD2kCbFCRlVklE+md8Aasmcl/AJBZINo873fW4fQY8QVNlM7m2rNGI2avH7NVh8+pxBAy4gpJ7MWMTMLl16O111CuyDElWrg3XVq9ZPDqc0lscsa0Jf18iz+isHzTLEj+/BXfIjqfRjrfRRiDioCnpoSXjI54NkMz6iafctMSl+ix79HU0NNTT0FCnSbixXlsymIiZtSG0XMZOSTrl2u10dTvo6nHRJgS43U6maCZVMJEpWSh1OujscdHb52Gwz8uBe47i3BMOZM7ph3HdjGNYOOsYrpt+KNeevh+3nHUgT191LG/fdDKf3TkddflsWD0f9YO7UL9+DLUspYAVlIWzrH0S9cvHUD9ZjvqBpPsfgLeXwZvLUF9fBi/fA89KnuVG1EfnVyzGA5fDw9KCuRD1mdvgtWWobz4ILy1FXXEL6kPzUJdeQfmu2axdPIsvbjmftYsv5Iubz+WThVNZM3cy719zPB/MPYF3rj6GVy49gmdmHczj5+zHXaf/mWsm7cDUfbdmx5E5th2RZ0RHmtZMhHwiTCkbJdri18JmAYlsaZANm03NDpqanTSGHdp92QUsnXmyxEgWSksTuSdkwhmsbPh0BI3Y/YbKpk+vDqu3XrvvlP+NEBArZNBAY3AIOZYl1LXaNnNPg5lQ1EFD3EUo6vputxTraL4o3Z2gdSBHaSBLridBLN9AQ9xJY8JNRCKmtJ+WhJfmqItwi+xIMRBsqNMk1FRPY7OeSLOBaItJGxmRKUepH8kwfKnNTqlN0Xa95Ip2UjkL8bSBSEJHNGkgU7RpIGrvcjKiz8+R+2/PWcfsy+yTD2TuOUdz/bmTuHbq37jmlL9y09R9Wb1gCu+JhbnnbNSn1lsXLXx+GPXThyudd+8tY51EPauuZ93j17L2katY+/AVrH3ocj5fNocvHr6SdY9eR/nBq1HvvwJ16aWod1xIWVon7rqocv+BqzRrw8qb4cG5qPdchnr3HL5afAFfLZnF2iUX8MXiC/js9gv4ZNE5fHT9mbx/zWQ+mH8qa64/hXevOY7XrzyGZy8+nMfPO1BzR5ccvC1HTOhmoK2F0T1ZOnItpFpCJCIhMskwkbAHl9uI2yO7Z2QPjZVwxEkk6taODcJFglYcHsneGnBKa4QsNwqZNNH2BofkD19E6kRSYNQjIHKJFRLRNmgZNOujSONWwIhH1rdF7TSnvVqEHE77Zn+nW9r5sLFr9j5uVw4+7b855NT92efoPzNh3+3oH99O+6gUnWMydA5myLWHiSbdhGMyOyxbsfU0NOtpiBhobDEQER6TsJHNOikUXBSLsqvFSaYgILERT1toicvGJz3hSD1NLfWEW/S0JIwkMkYyeTPtbU4O2297ph71F2ZN/m/mnn0Uc6cdwtUn78O1J+/FXecewKsLJvPhLafy1b0z4Kkr4fn5qC/eQHnVfL64/1I+v/cSPl5yPu/dfBZv3DCVF689hScumsTS6fvz0IyDeGLmoTx5/sG8eNkxvLvgND5eNJ0vpEtu0TTW3n4u65ZI+v981PWy7vZZfH3zeXx5w9l8duNZfHrbTL6880I+u2MWny2WBvCZfHTzDNbceBYf3jSdD2+axpobpvL+/FN585oTWX3lMTwx62/cMmUPzv3vMey9dYHOTAO9pQRdhTitmSiRRj+JaCNer62y206bNzIgK1qlQVyAIiLbNmURtGwbF8A4JAHnk39+URFnwIRwFY9ERiGLBhDZKSy7hV2NUgqwauUAl/xzjaAQYguBiJ1QzEFYvEfWTyQXoDnrX/OtgDl6zn7FYy89gDPmHc/Mm6dz4e3nMmP+VE644Cj2n7IHex87gX2OncAeh4xn/J4j6N06Tb4zRCwjU4uVpT8yuSi7XAQwWrQkO+yyTnJZ6YuxE0tYaYoaCTXrCIbraYjU05zUE80aiGVMtKRMRJMmEmkzXZ1+Jh00kTOO3IsZx+7D3LOO5LqzDuXKk/7MDaftxWNzDuOdG0/mk8Vnsvaec1Efuoh191/IF/ecx5pbzua1a6bw/BXH8eSco7l3xiEsOPEvXHroRGbsNYYzdulh2u7dXHbgWBYcuQN3n7IHT808iNWXTOL9uSfz0byT+fKW6Xx121l8fctZfH3zdPcLcc0AACAASURBVNYums5n1ws3OZUPrp3Ce3On8Pa8U3hj/qm8Ou9UXl1wGq9edzJvLTyDdxaeyfs3TWXNojP58OZpfHDTmby94BRem3siT186iVtP25sz9xlkt5EpSgkvrekm+tsztGZixJqDBAMu2bygrSuTnl5p1ZQJA4eQW68Rj9+sictXGU8RKyPzTbIL2OLWY3bpsAqA/GZcQatWL5L/oqL9xxWxMI1SCrDhaf7/yXrL8CrvdO27z7t3WzyBEHdfWVlxd3d3d3d3DyFKgBAsEIKEACEQXCvUhQqlpV5KdepTmWlnph34Pft/p3T6vPvDddx31urB0ZYz5+XnpY+xtQ6mVrqY2+ojdzCUam82bqbYephh6yETgMHWU/a/3dLouaat2y73Mv3kVuZemGb+pYMcfX6GA4/vZPeFTew+P8rusyNsnuuhY0slBU0xxGS54hdmIakuOIvZXi8TXDxMcHI2wsnJQNJpkfpE0ryvLgprTWQKVcwt12Npq46duxbO/lq4BuviFqyPm78eLt6GuPsak5Pjz3BHMRPdlewZqOPolhbmtzZycrSCZ/c08PGpfv56ZZwfHtnKP57Ywc9P7OC7SxN8cWqU9+f6eXlnE09vreNEbxGbiiKoC3ek0MeCIl8Lin0tqA23YSDdm72VMZzuyOCZ8TJu7KjnzoFOKUj94cwwP50b46ezo/x4epjvFjbw7fwGvjo2wO2ZTt6ebuPFiVqujVVwYaiE8yMVXBqt5tp4La9MtfLebC8fHx/k08VhPj81wmenRvhkYZB353p5fGstWytjKYh2xdvBBBcbE8IDXAnwdMTdyQZLC2M0tFSkbQElMfCtqYSG3jp0DVXRN1aTwLHEKkvuSLyLZTg9Y3UJLAIwAjgisBXNRUOZNvrmmktq5eZCLlYHYyt9TKz1pXfRfDSxFoxjgMzBCAtHQ+RORlg6GaNwMRX2v7Olycs91/ZcG+HQ8zs5/vIB5l/ez5EX93Lk+T0cf2GGxesHOXX9EEeu7WbLXC+1fRmkFvoQEmuNV5C51GvyCpTjHSgyKDmubqY4O+nj7LSk7SLAYi5Xw9RiPaaW6lg6aGHvo4tLiC7uEYZ4RBrhHmqIW5AJPmEW1FbFMdpaxPaeCnb3VbAg3NHmei5O1vLeiX6+ubyJ766MS/bD5c385fQwbx7s5ua+Tp6bbObKcCWz9RkMpAbQEO4ggSTP24w8LzPyfcwpC1LQlejGloIQDtXHc7E/h2c2l/P6rjo+PNDK58c6+epEL1+d7OXL4718NtfB7f3NvLW3mRe2VnF1YxHzLRlMFEfQnxlAfYI3lVHudCT5sq04itO9uTy5pZLrOxt4ZU8Lt0Qd5nAPbx7o4KnJBrbVJlIc44aPgxnW5nr4etji7+mIh5M11gozaZFeGvrWVEZVd510EUVcSNE1VkPHWDyXtialzUkBEPHZ70AR7KJvJlyTUPnUwchcGz1T0RpYkrcXRTwx/yKqvqI+I1oF0meWulJxz1i4KaE6IU772Bti6Wj8/xbxtpzqVZ641Me+Jyc4+uJ+Tr56lOPXD3L42Snmnp1i4fohzrx6nJMvHGH64iQbppooboknLtsd/0hL3ANN8QyxwDfcBr9wG3yCrPD0scDNVShk6ktiQAprceZOHSMLVYzlGshEvOOlg32QLi7hBrhGGOIqABNsjH+kBTVlUUz0lHB4Uz2zo3XMb21mdqicZ/a18PWlTfxwdQvfXN7Ml5c288HiZp6Y7uHk5lYODbWzq6eJ8ZYqNtYU0V2WS1tBCvWZUZRGeZHrb02GhylZHqaU+cnpinNiIj+AIw0JXOrJ4bmRQt7YWcVHB1v4fKGbL0728MlcO+9MN/LqDlGhLWO+JZWJolCa493I9lcQ62xCqI0+ITb6hNkZEO1gQFmYHSP5QeyrT+RkTz6Xhsp5dlsdL001c22inu31yZQneOPrLMPSRAdnOwt83e3xdrPDyV6Bjr7GHwPd4vaSlpiQMxYndJZMXD/RM1JD30RDAo/EKMLtWOhINRYBlvtmaK6NvpmW5KYEmMTnwl0J9hHvf+4rCeDoi8zqD9dlgFzo+v25g917tNZ35FQb2y4MsveRHRx4bB8zV6bYcXaMnWdH2Hd5Bwcu72HH8S10jNeRWxNPZIobPqFyHH0McfAVOvxyfKPs8I+0IyBMKFDK8fER8zBL2nUiQJZZif8gdQzlGhgpNDG110LuroWNny52/no4BurjFmJIaIKChspYdm8o4/TODinYPbqliQP9Jdw8PsjHFyd56cgIC5PdbOptpCg/m7CQEHzcXQlydiDey5lkPxfSA9xJ8HYm3M2BYHdHIv28iQ32JzrQiyhve1I8FZT5C9A4MpHny2x1OFc6knhpvIDbB5v4/HiXxDTv7m3ghU3FnOtMZ3dZJC3RTuT7WhLnbIKfpS5eZlr4Wmjhb6lDoJXekil0SXQ1pyDAmpYEDzbmBjFVG8+ZoTJOD5WxrT6J2jQ/wr2ssJHpozDXx8PFBncnKzxc7dE10ma9UNLUEpN069HQV0NdX8ztrpd+VtNTkVJh4X6kmEWA5XfWkPpFcp2lnwXD/G6CbYR7Ej+LgNhUIQ6DCSCpSxL4QgZfTyZ6ThqSGVstzcnInUxQuP4pjumcLe3tnC2j+1A1PQea6ZlqpW1LHXWDxdQOFdI8VkXLaA2lrXnEpgfjGWCFtbM+ckdt5M46WAl9F38zPMOs8I2wJjDMmoAgC4IDl8zPX4aTuykWdroYiAqiXB19+RJwjBWamNtqSnLstl56uATpE5mioLctnbnxJs7v6ebUzg72D1Yy2VNMT30+uZnJBAcG4OTsisLGFktTYwpCPWmL82U8L5KZ+jSOd+Wz2FfG4bZ8JkriqI5wI9HZAl8LQ+yNdXGSm+JhY0WIk4KSUDsGUl3ZXxnC1Z5kXt9RxqdHO/jL8S4+PtzG67trudSbxWiGL8V+CmLtDAiw1MXVSB1bPVX87eXkxIVSlhFHRXY8ZRmxFCaFkhXhQ6KPPdEu5qT5WFEa5kh/TjBjZREMFIdSn+5PcpADDgpjLM3FPJBIqy2xt7FAW08DFbGTpLk0mil2jZQ0xCGuNazVVGKdjrJUaNM0UpUquUvMoC2BRABHuBphgkWWwCEAsmTm1oZY2BojszGQsiNjS22MLLURABEm2EUyK22MbfWkkQcLlz/tL7XvLzzdOJ1FzY50SsaSyGgKJ6E4gNR8P1LyfEnJDyIlP4TwBHfcfS1wcDfC1t0Aazd95K66KNz0sBXCQL6meAZYSMKGQkw5OEhOSLCCgEBLXL1lyB30MFBooKfQQN9SQ2IbwThGFhqYWWuicNLG3kebqFQrhrtzOb6tnQt7utk/VENTRSoeXlZY2sqRKawws7TETG6Jwlif8eIYdlXEMlEYycGmDM4NlnNe6LXUZTKQEcb2mmwmavLYWJxCRYwfyd72BFiZ4mqqh7uVOW7W5uSEujBVGcXTm/K5PdvEj5dG+eHqGF+c7OO1ndWSyyoVx7ts9XA30cBZZkh4gC9JifF4e3phbmSMia4u5vq6WBobY2shx93ZiZDgIGKiIokJDyI+0JP0QGdKo12pTfaiOSuAkgQvPBzMkJsZYCf+XZxtsJKboqmrzlpVJZRUlVitulqyletXsXL9Staor5FuGoiDGNJci6jmyrXRtdBG7/eY5H5cInpGptYGmIoirI0hMhsjCSxyOxMs7IylGEXEKqY2S2m2eBfxi5G1jmgNSCMPJvYGmDgYnv4jvW7ek3encU8WDXuyqZpMpXgwhsKucIqbwyhrjKSqKYny+mTS8kIIinbAO9QKz1A5bkEynPxNJLfk6GmIi5cxrp5CZswIb28zgoMUhIbYEhRkjZu3BQoHfUysNDG10sTMSgtzhShla0gnfMXT0k4Ta1dtQmNsGWzL4cjmBnb1V5KVHICdqwwrR1NkVjJM5ZaSmZiYUJ8YwGJ3AQcb0thXm8Kp/kKOd+YzmBbCcH4idUlhpPq7Eu1hT5C9HD+FCVGOCuKcFIRameJrbkCAnSVONnKSAtw42lvA9Zku3j41wXsXd/H2yTGe393CdF0KuQFW+NuLEQxffLy9kcvMMNZSx8nUgDBHBel+LhSGeVAY6kmmvwuZQW7EedvjayvHQW6GQibDWi7H3cmemCA3ypL9qc8KJNTPHpmJPpbmYqdLhp1gGH0N1om96vWrWaGykuXrVkgmAKOkuRoVXWXp5I4AhmAUA0vdP8Dy55hEfCcyItGhFpV7MyuDP0AjszWUAlsBFmHS1J390mdGtnoSYARoxLupveEdCTC1W3KVqzZlUT+ZTcvefBqmsqieTKV6SyK1Y8k0bEynoSeL6tYMcsqiiUhxJyjelsA4G/xjxQC4DM9AY9y8jXATK7QeRpIunY+PuQSW8FA7goNs8PKWY+doKJ2+s7UTl1n1cBRyqra6uNjqE+RmTnSADf7eFoQEWtFensBATSoFCT4khDgS4W9LergLZcnBhPi4Y2Fpha3cnKn6DE73F3OoMY3ZpnSOdeTSGuNJaZgHiV4OuFpZ4OHsiJWlDIXMDGuZMeEuNoTbmhNrIyPeTk68owXhbnYoLC3wcHUmwNtTMj8PNzxdHHC2scLBwlwClZ+vN+YyC0y0tbDS08FTbkaClwv5Yb5UJYXQVZBET34ijanhFEV6kRvqSnqgK5HuNvjYmuNha4HCzBQTE6EXI8fH3ZlAX3fkMmMszAyxVZhJWZJQkRL71KvWrWTZ2uWSCdD8BzBKEmAEIEwEg9gYSsPcuuZaaJmI1VlViX3+7KpEDGMgWwp2TRSiBqOPoQCElfgz/pMVmdoZSMwiwGJsp/+7SzJbCnwzG2N989rjqR5Np25bJrXb06mcTKFyWxJ1WzNo2pRP62AZNR2FZJclEJHkQVCMLSHxwuQERohbRGLcUszoGkvVXaG47e8nJzTYhtBgW4ICrPH1tpR2lTwcjfF2MsLXyQB/Z0NCXI0pC3PhTGsB1/dtYHFHD10lidRnhdFXEE1Tkj+5oS5UJPozWZXGe8c28ORUJ6HervjaK6Ri3GJvITPVCcw1ZzKQGkS6i4JUDxtyI7zx93LC2dkOC5kRNlZm+Ho6kB8dQEmUL1FyY1LtLWgId6c1JQQ3R2tkcjlOdtbE+7qRFuhJrK8rDpbmqK5fh7qm2Bg0QV9bE3sjfTwsTPGxkuFnp8DLTkGolwsBznaEONqSEehBaaw/mUEuJHjakuznTIijJf52MsJcbfBxssPY2AR9E1NMzWVYWdtgbm6KhbkRttYydPQ1JcWGFWtX8LDyMslWqKxgtfpK1mqvYb3eWim7EexhLrkWE0ysDSW2EQwjALNk4p7T0u612MFeum6rIU3e6ct10LXUQs9SEwOF9h9uSYBETN+Jp5mjERaiFuMuQ+5uavtAWmVUbGp1CHmtoRT2RpHXH0nOhjDyh6Oo2pxG+/ZKxqY3Mr5nE92jXRRVZREe645PoBl+wcb4BRrg66cviSqLcUxfb1P8vc0J8VcQEWRLRLAdYf42BHlbEuBiRrCzOaHOJoQ5GRHuYkyOvxWPNOfwy1Qv987v4dfXLvL5E8d4cns3e6oyiLA1JdRFRl6MF9tqUnnjUCcfnhigqzCeEGdrjrbncqIzh/nWTPZWJVIV6EBNiDOjeTFMVmZSm5NAWLA3gYEehAZ7khjqSU92PF1JYVR5O9EXFcC2rEiOteUR6++Gt70VB+tSudyYzuW6VM7VJDNbnkBnZgSmxoZoaGnjbW+Jv40FnjJTgh2tCfFywcHeFmtra0xNjDE2MERhbIC/nZxYTwfCnRVEuloT7eFAqJMVUe52pAd54iuyIWNjDM3MMJHJ0TM0wMREKF8suSTBLit+Z5cV61awWm01yloifllyR4I9BLvI7E0k0JjaGEiA0TVfGr/UNFZDw0gNVf31rNcTx79ER3q99JkAla5MCx0LdbQt1NFTaGEsXJOIYewMltyQg6E0GC4Nh7uaIXeX5T5Q3Jrem1YZRnS+GyFZDgRl2hGYZ09EmRtZXVF0TzUyfWYPC4+d5PD5OUZ2D1JQnUJAsEw6pOklLrS66+DvaUSotzlhPhZE+cqJ9bMmLsCO2EBbYvysifayJNpDTrSbBZEupkQ4GxHtYkx7lBtf95XxZX40f+2v5O6ZaXj5PFw/xfdXDrK9Lpv6jDBa86OZ6y2UCl8fHOliX3s+Yc6WnOot4JGhUi70FrA9L5S+eE8OVCVxrqeEM73lnNrYzERTGZ0l6XQVprC1PJPj7WWcai/jeHUWC9XZnG7K5rH+UnLCvMn0ceJKRRxPV8TzWlshz9dnM58Zyo7MMGL9PDDR1yMnzItwJwURjlbkR/iRGReKi7MDdnbWmJmZIJebITM2xNrMAHszAymG8VGYkuDjTKynPfFeDmQGukljmabmphiYmqFvYoaGjhZGhtq/A0aT1SorWbluBavWr0RZfQ3rdNaiqr9WckVixkXELyKFFqARJvaLhIsSQBImvhegUTNQkbIqATRxNU4wzlJQLE4QqqMlU0NXsIwIdm31EEGuYBgT+/8ARuZkiszRrPeB5sGKA9lVcXiEW2Htpoe1kw72bvo4BxgTkOpISV8+209u5+QzZzj59Cl2L+6gaaSC6EwnfP318XPRIcjFkEhvOfF+NiQG2JAaYE2qv5VkKf5WJPspSPGxJNnbkngvC2LFXSJnYyKdjRhJ9uGb8gTeclLwVnII325q5rejm7l7YYpfHt3P2U0NDFWlsK05h6d2tvDBXBcfH+visW0NRDrKOd2ZxZMbC7jcms751nQu9xZwtbeYi12FnG7J4UR9DostxSy0FrHQnM8xAYDaLA6XJnG8PInzTXk8PlDKhf5SorydiJCb8mxDJv+4NMOvT53g54Upbm/pZqYwCR8HW2zMjKmK96M1NYKmuGAGchMYrs4nMSIYP1933N0csbUyx8tWjr+TJa5yU1wtTPC3tSDM0ZIEb0fSApzJCHKhMC4QBwdbjMzM0DE0RF1TFT1ddWRmhmjqqKGsuhol1VUoa6xhvY6yNLeiYbTkaqTs6HfQ3AeHYA3xLkAjgCQAJJ7icw0jFdQM1klg0RNFPTH4LRdZlYYEGB25yF51MbDWx8haD0MrXQzFLW47I0xsjTC0NkBXprv/gZbeimuJGSHS5RCZuQY2ci2E9Ls4bScORcRm+9O+pZmdp3ez/5EDbD87Sc/eZnKbo4hOsScmVEFigC0ZoS7kRriTF+ZKfqgDecFW5AZaSpblLyfD15x0H3NSfGTEe5oR7WZMnLsp+4oi+CInnNfsFXxcm8vnw7V8uamen2Y38PcLO3hhXx87WnM41FvCm7N9fHlyA18v9vHWgS4S3BSc68ji1rZqbmwq5a3t9byxo4kbEw08P1zJtd5irrbnc745h8XaVObLEzlSksDhwjgOF8VypjadRzoLeXa4krn2IvwcbWn0sefHxW1w52m48xw8fZq/HRjnmf46/OxssDY1ojcjkomSNLYXpXKgroCjnVUc7q5nd1M5g2VZ9OWl0pIcTmm0Dyl+LoQ52+BrbUq8tz3Jvg7kh3uQH+5OUVwgbq7O6BoYoKWthZu1HAcLI8yMddHVVZPGL52s9LEw05KOd2kZL6XRWiZLR0kFWwj2EANQwsSh0vusI8BiZmv0RzAsajJ/BtR9MOlaaKFproqY69W11JFAo2+xVMcRwLpvYtRT3Vj99AMlhbHXwvxscFPo4K7QxsdaFx9bPfzs9Ql2NSImzJ6S2mQ27Ghj8sQ4Oy9MMHain9ad5ZR2JlJSGUVFUQw1hXE05MVSlx5KRZwHRSHWFATIyQ+UkxdgQY6/Odn+5qT7mZHkbUqClwmZfjLON2bydU48t3w8+X64hb/tHeLTTc18uaeDH85s5vXDg8z0lnBucyMfndjIX88N8eO5jXy20E9BuDsLrRl8MNXAR3ub+fxQj7QD9OH+bt7Z3cqtbY1cH6ni2YGSJeA0ZLFQkcyx0kTO1mfyRG8pL47U8PymevqL0gixUfBkT7k0HMVnL8JfXoJXL/HPQ1t4d6yVovAg5Aa6bClMYmtePFuyY5nMi2dPaRp7SlLYXZTEloJ4BtMi6EoIojbah7wAZ7IDXEj3dSTKWU66jx3V8d6URrtTkhCIm4sTjrZWmBgboqq8Bme5Ma4yPdrTIlhsK+ZqayFb8+MJdJWjZ7a0ASBNyOmpsFZ7Leu016Kiu04CjGAdAQwBBhEM3weMeBef3S/mCdYxtBTsoycBQkesnQgToBKD4WaaaJkIVlJfMkN1SYNGVU/1xgOx/tYfBdsbEGijS4idHmEO+kQ4GRLtYkSSpznpgbYUpPnR0JTJwLYmts0PMXFqkE3Hexk62MHonnY27ehg6/YuJre0s3lDDZ1VyVQkepATZEmWtxmZAhxexqT7mJDiZUyKtwmpPqYUBsh5tb+Sb/LS+SQlgV93buDuiT38fXYb30z38teFIT441M+xoTqe3NnJ1+dG+fHCKP+4tIlfLo0z1ZBJR6I3Xxzq5uvDPXxzdCNfHhvi87mN3NnXwZsT9by8sYxnuvK41lnIo51FPNlXwXNDNby8qYE3Jlt4f283FwaqyQwJpDvCl3+d2w3Xz8Kn1+Hr1+ClC/wyPcztwWY25aRirK3FeEEsM9Xp7CxKYlN6BGNpkWzKiGQyP57thfFszY9lPCeSnpRAmqJ9aY7xoTctiN7UANoT/GiI86Q6xp3S5GCcHOwoTovGzd4a3fXrKPV35VRdLq+PNHFnpInbPeW83prHeEYEdlaGCJWpddoqrNUSlV9lqfqrorNWYhoBmD+7JAGU+2Yg15W+E+yhJ9NBz1ywiC665oJ5xOyvGOfUQttMpOUaqBuoS5Ii67TXIWytlqQWceeBQHv9jwJsdQm01SXUwYAIJwNiXIxIcDUi08uMvAArCiJcKM0Iob4+nd7RajbubmJ0tpuJEyPsObeN/Rd2cfjSNPOXZpg9uZ3NW5upKYshI8yOBOF6nPWWzEWfODcDEtyNSfQwpjTQmvdHWvm+JJ+vSgu4Oz0M5w/x76tH+dvCVr45soH393VzaqyFl/b18P2FMX46P8S/Lm7m7tVtvDrVQZq7HTe3NUprHd8c28hX88N8c3yUb+dH+fLIMJ/PDvHJwY28v38D7+zr4919fby/r4/bB/r48GAfN3d1sLkimygbS55oyoWzu+CpefjwOe599Qb3njjFT7sHeLenlmOVOdiZGFER6sJCew7zzbnMVKQxmhJGS6gH1QFO1Aa60BLuTkeUF82RHlQHOtMa6c7WvHAOVsZzsDqJ4ewQ+rJDKEmNwM/dieGGbIK9nAn8nym7w0VJvNZfyxv9NbxQm8OpGC9OhjlyLCecQAeZpNAggLJK1GhEBVhtNUoaopC3VrqbLVZKRC1GmI6YjREzMgIIpmIYXCywaaNtqo2W8dLPAhzC7oNG/DMisxLyIUugVGKN+u+mpnTnAXeFLh7WOnhZ6+Jnq0+wgwGRTobEuxqS5mlCrq+cvCB78sLdyIv3pTA7jLLKWOp6c+ibamLzwhC7L0xy8LF9zD99hPknDrHr2AhNXXmkxLgSLmotttqE2GoRYqdDiIM+oY6GhDkaUhpgx52xTv5WV8HPfQ1waJy7Czv49fI0fz+xmc/3dnBzqo2FoTremB3gr+dG+PHsIP+8MM6/r0zy49ktjObH0xzrx/vT3Xx7bJBv54clsHw7P8ZXx8b48ugYXxwZ4ZPZQT46PMidgwO8s72V9/f38MbeHhYH68kN8qEj0IkvdnXCiUl4/Bj3PnyBe5/d4O7FI3y7qZM3Osu42lxEhJMtgdYmTFclcqY9j3OdRZxszGWqJInu+CDKfFzIcbYiy1FOobsNHRFe7CmIYa42hZNNGZxqy+ZgTRI7qlPIiA4lN9KP/X1lpEQGkOJlw8GSBM5VpjOXFcWguxV9FjpsVRiyP9qbWDdrSehw1fpVLF+7imXKK6Uq8ErVlSiJwFhPDHGrSXp3GsKNSMpUqqiLeV3jJfeiaSwyJ03E9+IzqTZjItJwTbSEGWtI7k2wiuhdiTaEAOVqtSWAPiDJvFvqYKfQxdFaHzcbA/zsBNMYk+xuTo63nHx/G7L9bMnwsSHN1xqxYJad5EpZdQSNg9m076pm41w3286Os/vSJFtPDNO6tZzUXF+CvM3xFjeh5Zq4yzXxUGjhodDB20qXHG+F9Jv7c1MFv052c+/AGP/c1cPXG8u4VRjJKzXJ3Jpu52hfOW/ObeSbM4P8dHZYYph/X9nGv69M8P2ZccpDPRjIieLdvV18fWSjJKsh2EUA5S+Hhvjq8AhfzI3w2aFB3tvVwfWeYl4Zb+D0UCOlCZGk25nzaFUC/1oYgysz8OwpuHOdex+9zN3FA3w32sGtngqe7iyR6jdmmuq0xPpwtC6dix15PNJdyNXeUi71lXOqvZgjDbkcqMxgtjqD+boMFuszONOYyUUBsPZcjjdnMVqVTXygN7MdhRwbqKQ4OZL8ACeGkv3oDnakxtWcOnszWiz02WCiy0y0Jxn+jmhpqbBi3UoeVlrBQ2tWSM9lystZvnYlSupKEisIlyUYQsiXib94Nf31EmgEcIQJBhEm3gW73GcfbRNNdIw1pNkb0SFX1lSWwLJKdZXEZqKX9YCLoyGO9vrSMQlnW0Pc7A3xczIm2lV0WC0ll1Qo4hh/G3J8rMj2siTTy4IsfwtyY2woyPUgvzaE0g2pNO+qov9wG/2HW2mfqqSwNYGYRHe8XE1xMtfG3kwTB3NNHGVaOMu1iHQ05tmWYn4bbefe/jH+ub2P78db+LQpi5diPXi+KJwvzm7l9Egtb8xu4JuzQ/x0XgBmnLtXJ7j3+A7uPjLJZ0c20pUZRWt6JM9sbeHLo8N8MTvI54eH+XT/Rj4/MMjHMxt4b3c3b2xt4dXNTVwZ76YwOopiX1f2JfnwxVQr9x7fDy+chNcuw1/fgi9ucXfxID9tBaFYvQAAIABJREFU6ef2cAsvD1Sz2JyPQludAGszduTHcFoU+NpyuNZbwpMbKnimv5wn+8p5qr9Mej7WXcKjncVS/HSxNUcCzeHWfLJiw2nJiObx8RqOD5TTkJ1EYbArzaHOlDma0epjR6+/E/0u1gxamnEgxpe8EHf0dNWkk8QPr1nGQ6uX8+CqZTy0RlSCl7NSZZUU14h4Q4BGRWedVKwT4LjPJPefAiji8z+7Iz0zMTejLUmYCe0Z4ZL+F8NE+xoR4WNIhLcB0d6GxHobk+RnQYa/grxAG0qCbSkLtqckwJYCHwU5nhZkeZiTKcxLRkqgjLhIS+LSnUgXwBlIpX6ygMYdxVQMZZFRFkZAkA0Ocl2sTTSxMtXAylQdWzN1iWUW6vK4d2I3947t5u8jbXzeVsInNenczArgu1Oj/PLiPJfGG3lhTxtfnR3i+zMb+fnsCIJheGovXNsFT0zx6/OzHOgqpzgqkP78ZM4O1PHq1AbenB7g1t5+XtvezQtb2rg83MKWmhLyQoMZTgtlrjCE1wYL+PfV3fDk7FLAe/s57v5yh7vffwCXF/hl5wifjnfx1qZWiZnqIj2QaamS4+PAXEUSl1vzeKK3jGf7K3i+u5gX+sp5sb+C6xsrub6xiusba3iuv5KTVcnMN4jqcyLJAZ6c7ink8dFyFvpL6CvPojjMnaYgFzaE+7Alzp8dCcFsDXBj0s2RwwmBVER4YainxiplcWtAyMmvkEAj2Gapz7QKZSE+JKTNhGzrnwCxFL/8OZZZCm7vs4uIdfSEFIiJ0PvV/EPvd52GMmvVlVBWV0JJbQ0P5IbLyA4zJyfcjNxwc/Ii5BRFWlEcbkNpqC2VoXZUBttQGmBJvpeMTDcT0pxNSXQ2IdbJmFhPGdHBVkRFOxKT7kliQQDJVYHkdsRQ0puMqCIHRtpjZ62Hpak6chMNLEzUUZiq4yzXZrI4mXuPHOXe1Xn+Od7DV+1l3ClL5k5bJv98cY7fXl7guZ3tPLW7mS/OjfDdmQF+PjvMb1cm4NpuCSzSQvyNee6+Ms8n57ZzeXMbW8pyaE+Lpyk5jvqUOGqTYqlPjaUnO5nd1dlc7Cvj0a4cTtdE8tFUM7+d3gKPznDv5iXufXuLu7/9hXvf3ebelZP8Y88Yf9nczZujTbw8Ust8fRaJjnLsDbUp9HVmoS5LAsxzGyp5vq+UlweqeHVjNTeGa3ltpJ5Xhup5vr+CxfYi2koyyQj15UBtGs9urubx0TKOdhfSXZpKYagr45khHCpJZn9ONPP5iRyIDuJwSACPlmdSH+OPsZ46q5TF/YHlLBO3rJVWSu5IuAvhQoRQogCLiEX+zB73g1rxvA8STWONpWV9AS5J/05dAookGaKryjpNZZSFqLQAiwh8BWAq4xWUxVtSFi+nPN6SingrKmKtKY8UAz8KSkIsKQqQkedtQpqrPnH2uoTb6OJvrUuguwUZacHUNufS1l9NU18lpU1ZJBT4E53vTlyRN2HpTtIIp52DDlaW4vaAOFqhhqW5Gg4WWvSkhvDro8e498pF/j05yE8bWvi0KpdvdnZw990L3L1xgg8Whnl+uoNPz47y1eIGfji9kX9d3sq9x3bC47uX1LjFfvPL89x9+hB/v7iTvxwd4fb+AW7u7OCliRaeHa3j6eFKnhmu4PnhMh7vyuJMVQRPtKfyl32d/Ov4GPeu7OPerUe5990t7v58h3sfvcLds4f4255hPhpr5+X+Kh5vzWeuMplyX2vyvEST05Y0Tyd60iKZrc/jUnsxj3eX8nRfFc8M1PLUUCNne+vYUp5HRXIcNQlhnOku5LnRcp4eLeNifz7TTem05SeQ7mJNX6QHe9JDOVoQx4XyDE5lxHEhNZFnmkopC/VGX0tVusom2EUAZrm4Q7B+jeSKBFhEOqxp9J+4RKTNwgRIhDuSaiuGGpIg9H0lzqVBrbWIIa37JgCyYv1KVqquktySCIBF4PtAVYrdRxUpdpQkyilONKM4yYKieDn5kTJyw2TkhlqQEyQjw8eEOCddgq1E8KqOo5U2kTE+NG+oYdexSQ5fPMiBs/vYNruZlpEqchuiicv3JiDWClcffexdtKQlN4WNBgorNSwVqthaalAZ6cbPp6e59/pVOLCFX8c38Pctffx6Ygd3XznJvbfO8+WFbby8v5ePTo/y+ck+vjs1wM/nN/Hb5QnuXd3OvSem4akD3L12kH9c2s13J8b4/NAGbu9u59ZYFTcGS3mht5BnOrN5QrQPGhI4UxHOldpYbk828Y/zu7l7ejtcPQA3xZajWJ19DV55hH8vzvC36VHujHfw0oYanuwo4VxLLv2JPpS6GtMT7kBPrCdVUb5kB/mQH+xLZVQQ9fGRNCbFUJccS21qIh2Zycz8TzP1pS2N3Jio54XxKh7bWMTx9gy2VsTRlBFFjKkBZTambIv24nhuLFcq0nmsIouny/N5uq2GVA9HNNXXskK4oLUrWbFOBKPit18U8ERzUQS3oiO9xC4Sk5iIzEfz98LbelR0l0ShBRuJ9FykzMLVCDl6Mai1RnUNgq2WrVvBg8oP87DKcgk0AiwrVVffeaA43f6j/DQbUpNMiYvXJi5eh/g4PZLizMlKdaAw24OCdDcyouyIELegFRrYmatKt5oTsiIYmhrg2KPHuPTKZS6+fImFJ+fZ/j/ZRs+OOsra00jM88c3TIajpwZ2zmrYOqpjbaeGwkYVays1Ev2suLN7kN+eWYSnFrg7NcZvh7Zz79IR/n15mrs3TvLd5e3cONjLu8cH+Oh4F1+f6OOHxSF+OTfOr+e38uu5SX49v4ufL0zx4+kdfHlklDszvbyxqZrrXTk82ZTCow0pXKqJ51xlNOerorkojnANlfEPUXd57iRcmIGrh+DVK3DnRbj1FDx3kXvn5/jl0DY+n+zlzZFmXh9p5u2JTq72VVMfaEuFmyFjsc4cL49loTaJY9WpnGjKZbGtiDOdpZxrL+RqTxGvjNZwa3MDN7Y28PLmOp4ZqeBsdw57a+IZKoqiLiGEIlcbap0V7IwL4GhGFNeqs7neWspL7eVcaS4nyFqGyrrVLFdaxnLl5VLmImIWARah0atm8OcUeikLEirhQsNXsM9/6iprWKW2eslUV0t/jkjVBSjup88iJnpYdMrXrWDF+qUsaYXKyjsPpOfY3ohKN8M7Xh2XuJW4JSzHP1WDlHIXyttjqOsV03aRZKR7EORrgZ1cDUuz9ShstIhID6RrRzf7rxxi8aXznL1xmZPXTzPzyBSbF/rp2l5JaUcSMRkuuAfo4eixHnuX9Vg5qGBpsx5LKxVJXvViVzn/mt/JvVuXufvKOe6+dA7O7ePuuT3cfWo/P1ye5NaRDZJaw0fHu/lsvosv5/ulhTMhbfq3o0P87cgY35/YzhdHJ/n4wCjv7OjgpY1FPN+Tx5MdWTzWks7l+kQu1SZwpTaRR+qT+XRnB/cuHYJHjsCJXXBqDzxxknvPXoRri3B5nn+fmOEfc9v5aucAH4x38PZoKx9u6+L9HX1sz4ulxF1GrbeM4QgHpjP8OFsZw7WWVJ7ryuXF/iKuC9tQxIsbSrg+WM6LI5U8M1TB5Z4i9tcmMZIfSm9uGJ0ZEUzmx9Lj48BEmCcnc+J4ubuW1wcaeaWjism8ZKyNdFBSWsFKARYV0ZRUXtLpFWARur5CPOhPKbPoNQm3s1SpXZoJXkqRV0lgWa62iuW/p8wCKPcLdEuFQeHqxEjoElh+B9ITD4RnyE/7pGjjGLcMu9iHcE5eRXylAzVDKXROFtI5kU9VRwKp2d74+Fku3UOSL63HekXaUNCZRf+hDey6vJfZp45x9Ol5Zh7dw7ZzI4we6aRzspy8xiiC4q1w8FTH2mEdcpu1mCvWYiZfi62lKiO5Ufw0s4m/HRji7itn4PaT3F3Yzs8HR/jt8Wm+vTDB28c28sHiIO8f6+BTsS90apDvFkckpcofjw3z18ODfDIzwGubW7i5pYk3J5p4Y0sNNzZV8vyGQp7qzOHx9kwebUrhQmkkV6vj+MuONu4tbOffR7bxy76N/LxvgF+PbOHXwxP8NruNfx3ZyS8HJ/l+1zCfburgzQ0NvNpbzRuDDbw52sLRmhyK3RVUeMpoD1CwMcKJHSmeHM7151RJBOeqYrlUn8ijLek83pbNE135PNZdyIWufOabMtlaFEVXuh892aFsyArlRGsBm0M9mU2P5rm2Ct4e7+ZGfz3PtlVSFxmIkehgr1vF6nUrUVJTkgbE1YQ8mb76UsFOFO0M1VA3WC+NMYjqr+g13Xc/AghLf/ECBEtg+DMgxPd/tvtsc/+5SnX1Ew/4xhoecI1WwS76YWxjH8I/15jS/iTaJ0vo3VVB80guORXhxKb5EZHgQ3i8D8ExLpLOnUe4OVFFPpRszKHnUCe7L00x+8QcB6/tZ8+V7ew8P87kyVF6djSRURGNS4A5ZtbrMZYpY2i6RjJTU2XyQhz4cnYLP+3ayN/mxvhNZCuvn+HfL83z/aFuvpwf4M6ZcW4d7eWtIx28d7STzxY38OXiEN8KtcqFEb49Msgn0128NlLBKyPl3NreINmrYxVcHyzlud58nurM4tmeHF4ZLOPmSC23x5v4664uvplo46ORSt7uL+KDwQo+G6vjL5ua+Wqym68mevloqIVXW0o5XZDAfH4sV2uzebw2l5n8BOoCHGkNc6Yj1JHBeE8mUr2ZyQnkWFEEC+WxnKyKZ1FYdQKLdaks1KcxUxbHZHE0G3NC6cgMoDszmMmSBGbLEjmUGs216iJu9tTz/tZ+Xmwr52JzGVEuNmhqrJPWZ8W5YTG+KRbdVMXxCqFrZ6D2x87SfQkPMT8jglUBGOGOhOv6c21FjHsKwAhACBNgES5OmHi/zzjiKVoRK1VX7n/A3Ven1zlgPQ6ha3CIXEtYgR3lfSk0jRXQMFRAelk4oQluxGeFklOZREFDKrm1ccTneRKcYkVYtgPprdE07ahh2+ltzD5xlGPPznP0qTmOPXWYY0/OsffsFO2bmonJCsXK1Rh9E3F6brVkBoZKeFnr8NJYE3cvzvGPxd38ND/ML+c28/ej/XwxVsxnBzv58PQm3p4f4M0jnbx9pIMPj/fy+cIAX84P8s3RQT7f18Un053c3tPO27uaJbDc3FbHa5sreWmolOd783ihv5CbYzV8sLOTTw8Mc2d3P2/1l/NMXRqL+eEsFIbzWGsmz3bk8mJ7Hje7S7nRXsKVslSmU4IZjvRgJNqbHfH+bI/3ZTDGm43JAYymBjGS4M2WFF/25gVzrCKWMw0pnGlK5WR9MserE5krjeVQaSz7imPYlh/BxqwgurMCqE/xoicrmF358RwpSOJcUSYv1JXxdn8zt7f0c60mn805Cdia6aOmvpa1AizrVkmAEUe2pDUUcZBCb73ELiITWpq0U5VYZp0Icn8/YCEyKHUDDclNCRCJkv9SP+o/gLkPmj+YRn0dSurrWK2mzCq1Nb0PuDvp5rq6auLkrYJTkCpBKQoyq0IpqI8lIS8A9wBLvEJtSMgNo7A5g6r+PEq7k0mt8iEix4bIPCcyGyNomahmx5mdHHvmJKdeusC5ly5x4ZUrXLxxldPPnmHX/A4q2krxCXGRtEy09dago7cGXT0lZCYqDGQE8+ujR7j3win++cg0v17dxW+P7Oa3R6f46ZEpPlgc5c1jfbw938utw23cnu/mk2P9fHa4j09muvh0upOPpjt4b28bt3Y08oYQHJqo5ca4KKAV8spwKe/uaJFaBd8f38oPC9v5+vBWbo01M5sTQbOnnFInE7rCnZivSuRCfRrny5M5lhvJ1jg/GgKcSLA2wd9YkzQ7cwpdLOgKc2NvYSwHyxLYkxfBrqxgDhSGs1CdwNmWdM51ZHK6NZOFhlRmK+LZWxTFRE4oG9MD6EzzpSnNm4oEN5qTvNiVHslCThJPtZdxo7+Wdwebeb61lEP5KUS72KCttZ61KmtYrbySNaINIICjJljmd9DoiD7Sf0r9GqZCr04NFYMlKTINEw00TbXQMtOS0msBMBHbCDaRMqU/uaP7zCKBRgKMCqvFuova6tgH3G21bV1sNHFwVMXBXQ3PYCNC4+wJjXPEzd8Me3d9PMPkRGZ5kFoVSnp9MIk1HsSV25FQ6kRmXQg1A7kMz/Sy/8oBFp47y9lXrnLx1ce4fOMaV28+yYWXLrP/7AytQ42EJvhhaqWDjr4S2rpr0NFdg6GBMgG2+tzc0cO9pxe495y4QXQSXj0t6eL++uJxiWFem+vknRN93Jxt4b2j3dw50sOd2S7e29PI7X2tvDfdwjt7luzWzkZubKnitU0VvL65ig+nu/jm6Ch/P7Wdf12Y4l/n9/Ld0W28vWMDF1tLGU8OpDbAnmIPS5qD7dieGcTe7FC2pgTQEupOhKUhNhrKKDTW4aijSryNKUNxARwpT2GxPovjdRnMliYwWxzFQlU851syuNCdw7nObBaaMzhYEc+O/AhGMgLoSfahKdGDigRX8iIdqI91Z1tSCAu5CdwYa+TlsUauNRYwmxFJY7gvpnrqKCmvZLnoHa1exgrl5dIZvz8Ao/X7TIyRmtR1FkNPujJttMy1UTMW+nUaaIqxBTHK8HtNRjQplzrSS6C574rug2XJTYli3VpWq65j5XolVq1X9n3A19ZA2UGhiZ21OnaOmrh46eHpb4q7rylOQk83yJigZBvC8xwIL7QjIMcUv2xtQvONSa/1oqIvmfZtNWyeG2X/I4c49swiiy+e4/SLFzn30mXOvHCBI48fZcvhcap6C/GPt8PMURU9UyW09Vajq7cGQ8O1yIxVqI324oOZIe5dnObe5X3cu7SXuxd28cOxET48OcSNw528Od/F64fb+PBkL7ePdPHBIbH33MR7+1p4Z7pZen9rTyM3d9ZwY6KSt7c38NGBXr46KqTchbT7Ln67OM1vl/bz3dGtvLNzA8+MNHOqLZ/N2WF0xHtR6mNFkaeCYk85WW5mBMt1cNRbj722Ci76mgTI9Ml1t2ZzRjjzNZmcay3gbGsBJ+ozOF6VxInqBM41p3GuK1NShjjalMK+cjEnE86GNH+aEz2pS/SgLN6VvHAH6iKcmS6K5cr/TP092V/FieoMJsJ9mEwMJdxBjorKapavWs6Dy5fx4IqHWaa0HKHqIEr2UqFNe60kOSZYRFeoUsn10JPrSAARYLkPGsEu/y9gVKU5lz/cz/8vbpFAo7qWVevXslJFCWXl37V7rS3UP1JYamBjr4WjhzZOPro4CRHmUHMCU+2ILfEkrsKd6BIHgnPM8EvXJbbElpLuWNpEcDzdxOBcH5NnJ9l7ZZqZRw5y8JFDHLhygKnzU4zMDVI+mENooR2OMSrIfNZgZK2ErtEqDI3WYGaqjJmJMtZmGtTHeHNjpIFvpnr5cU8PX25t4EZ3Dm/NdfPKgVZen23n1pF2Pj4zwHuH23j3QDPvHWjm3f1NvLO/ibdnGqXnu/tb+GB/B58cHuCzuSG+mhdp9xZ+ObuDvy9u5+ezU3wzv5U7+4d5eVs7T43Vs9Caw0RhBK0xruSL2WNnQ+Jclhbt/WRaBCsMibAzIdnVgupgZybzo1hoyOJCRzEXO4s53ZTDidpUTtSmsFCfyGJrMqc60jjWnMZ0VTwjOSF0pvhQE+dKeZwbBVFOZAfb0xTuKs02T2aHsSsnkt1pESwUpjGSEoWZjjorVi7joeUP81/LlvHfyx/mYaXliLqJqMaKWERkQqIGI8Cgb6mPgaU+enI9iVXuA0bVSB11YzHCoCVVgkUarqIjOtJLLmmN2hKbrFETsc1aVqops1JViZXrlSWwrFi3ZmmRTWyzuXvJTzt6mmDjoYOdrwbOwTq4hpvgl2xDaI4zceXeJFb6El3ogm+ijMBUBcUd8XRtr2DDgQa699fSsreCtn219BxsY+PhHoYP9zM02yvN/1aNZhJf74JHpioO8SuwDFiFke1qDMxWY26mhIWFEhayNZgYKSEzUiXZQ0Ffgr/0P288JZDmCCee3NnAjUMt3Jxt5Z35Tt4+1s6b+xt5c6aBt2YaeG+2lTtHO7l9tHPpOdvBJ0f6+WRuAx/s7+KzIwN8uzjGj2e38svF3fz9wh6+P7OLO3NjvL6nh6c21XGuu4AjzWkMZwVSG+ZAkqsx2X6WpHtZkuouJ9FFRpqHJaXBTtSHu7GrNJaz3UWc7y5isTmb811FnGrNZbE1ixNNKSy2prDQlspcUxJ7auOkhfy2NF9Ko13Ij3AiK1RsD9gynBHCzrxoJrKjGE8L42xtPo91VpHoboey0ioeXP4g/738If6/hx/iv5cvdanFSIPIckR6LGZhBAB0zHTQE4CxMpSeglmEjKqKED00VEPVSAN1YdI03RK7CBYRmdJysdIizhz/bsvXK7FsvWgPKC0BRmXNf1Zl04qjamNz/HGPlOEQoolrpC5+SXLCc5yIKnQnrtSH+FIfInNdCUiwJ7EohM4tdWw5NsDWE31smG2geaqE6olsysbSKRxIJrcnntyuWPK6I8nu8CehwRHfHAPsolWw8FmHobUSRuZrkMmUsJQrIZOtRVd3NWoaq9HWUsZcXwMbIy1sDNRwMlXjzHgVby/08ZYAxalebp/q4+3Dzbx1oIG3Dzby4XwnHx7r5IMj7Xww18FHQrnySB/vTrfx6rYa3t/fwZcnh/j29DA/Xp7k61Ob+WJhE+/M9HJjVzvPbW3ksaEKTrZlcKAmkYFUP4oDrKiOcKAsxJaSYDuKA2ypCHOiKdaDniRfdpfHsdCezWJHLud6ijg/UMrZ/hIWe/I53prOQmsa822pHGqIZ1dVNAO5gTSleFMY6UBGsB1pQQ4UhTiwKz+K+epMjjfkstCYx8WmIsayYjHUXM9Dyx/kwWUP8V/LHuT/PCSAs4wHV4qxhod5aM1DPKz8sAQaAQJdcz2MrE0wsjFBz9KA9YbqrNVTYZ2eCir661GVbkOK0cslsIh4ZYXKKmmr8iGlZVIjU/SnBGiWiYryujWS/Q6i/9wfKG3N9M2ujSMwxQGXSEPcoo3wS1YQmulEbJE36fVh5LfFUtKZSE5DDIVtqfTuamFiYYSdZ8aYWBxm7MgGOqcaKB5IIaLcHp8cE3wyzIkucSS51p3EameC8y1xSzDEMdwASw8tzGxVkFkpI7Ncg7HZGjR1VrJObSXKwlRWsE5lBSrrVmCkq8zJsQoJMK8dauVtwTDHu3jnaBs399fx7lwb78218t7hVt6dXbL35zp5eXs1z42X8fyWMt7Y28j7sx28d7CFj4/2885MOx8c7OGdmS5u7m7l5R0tPL+1kWtDVVzoLmS2OomtuaFsyg1lMCOAgbQAOhM8aU/wZDgrmNHsYKarE1nozOFkVx7H27M43pHFfEc2hxpTOVCfwkxNHLONCcy1JLGzMoqN+UE0pXpSGuNMToQTSX5ifMSBycxgZgvjOF6ZxsmabDZnROJnbcbqVSt48OGHJPvvhx7k/zz43/zXMuGaHua/VzzMgysflsYaBACMLI2xdFRg62aHlZstMkdLtGV6rNVTZZ244CYuuUl3IpdmggVYpPK/8hJjPbR6GQ9LA1lLDc37TCOeosG5Sln5P7Jltb25ykVCu64miqSKUOJL/Ikr8iWx1J+MujDK+tNomyylb6qG1olSqobzaJusYehwH+PHh5k4Ps7m2RH6drVR3JdKSIEC1yRN7MPV8Yg2IiTdmog8G0JyrAjOtSEk2xbvBDMcQ7Sx8VLB0kUJczsljORr0DZRYr32KpRUV7B6/XKU1q/AUFeZ+bEybsx18MqhZt442sEtYbPNvDpTx80Djbw71y6B5Y2ZBl6fqefGVC1PjBRwpiuFR0YKeXaiguuTVbwwUc7L2+t4dXsD7+7r4eO5ET46PMqdwyO8s28Dt6b6eH1nL88PN/JUfw0Xu8o43VYk/fbvLYlnV1E0M1VJ7C6LZbomkcPN6exvSGWyJIrdlbHsq09me1kMI7lB/F/2zgK6rvNK1DOFxA7YssgCgyzLJFuyZDEzMzMzXV0xM1tMFllsZmYMOHGgYW7ipmGqS2mTNMn33n+u5aSZZt50OjPvvTXjrL3OPedeyyu+nzf9G7qT3ZiSBzBfEsqYLJDGBGcKw23ICDQn2nObBEyq2zbawxwYjPGgO8KdAg8rbDesQnXZA/z03nv4qdAqd0QAI8zSXWjuX8QStWWs2rCajcabMLU1w9bFHmsXO8wdrdA3M2DFJh009LRR11kunSctJOVEg/89S+/l50vuVRRiPbiYRUoPcN8yhWZZAEbAIuSuw7swwiGtJuZqXmsyBR1p5DXFk1IRTFyxN0kVAeR3xFM/IadttpSGcTkFXYlktsZQ0JdD9Y5S6kfqqRuoQdacSXiBBw5xupj4q7DZYRmG1ppYuq7FIXATTlEGeGeYEpBjjleaIU6xOlgFq2Hmo4SphzKmruoY2muiZ6yKxloxA+VBVLSXsnaNMpN18bywv45XDtbxyv4aXtpXybOzRTw3V8xzs0W8treSV3aV8/RYHk+NyXh8OIcT9VHsKQ3kcHUkByvCOd0Qz9XtmTw5VMozA+W8MFDBq4PVvNxbxYud5TzXUsRTdQU8XiPn4Yo8rlfkcb4si+MFKezLimEmJYTptGDm5dHszA2TfBgxYqQ5zo2KMDtqoh0lKQu1oibCjpZYJyby/NlVEsZYbgANSW7Iw21ID7Ik2suEQAdDHIx08TLZQJDlFuw267JWQ4WlDy6WYBEmSPJbBCT3KnwY8Ux6vuhn/HTxz1HWUEV3ox76xlsws7XEwd0ZO1dHrJ1tMbU1Z4ORPms267FyvQ7K2mosWa44HhDALFq2WAHM9zWLijBTS1ksrgv+jNKD1xY4uXvNbIvtKxnMompURsVgFrKOWFJqA0iq8SO7LYLywTRqR3OpGEgnsz6E8EJXoor8iSkKJyIvjMA0H1zjrLCLWod5iCZbvZTRt1fFwFYbM5d12Pjo4xBuiFeaKf67vvA1AAAgAElEQVR5ZvjlGeCerotL8gqcE7VxTViFa5wOjuFrsPBZzRablegZiw6+FWw2WMlkYwovHajjxb3lvLi7nOfmi3luvoQXdpfx/FwJL+0q5aW5Up6ZyOfJkTweHc5lf1UIswW+7MhwozXCmgExz04WxuH8GI5nR3E8OZQjUf4cjPRlb4gX+4I92R3oyYyPG2Mezox6OdPv4US7sy1NTlbUOZnRICri/OxoDHKkOcyZlihXKoJtyfbaRrJo3HPbTLzTOoqCzKmLsGcg3YO54lBGcvyoS3AhN8SaRF9TYjyN8XM0QEdblaVLFrNkySLuE2bhvnv4+SIBys/4yaKf81PJf1GYIaFZFoD553sU7y9VW8aa9WvYvFUfU2szrJ1ssXKyxcLeGlMbCzZu3YzupnXobNRDdZUmSzQUaX/h7ErF5MqilGGJAhDVO6AIYER0dMfhvV95yb8ciigfTHUsGcmkbCyb4qE0crZHkljnSXyVGwnVolE/kIzGEDLqgkgo8SQw3Rq3WDMJEgGKW4INXil2uCeZYB2ui2mANma+q7H2X49D0BZcwo1wjTXCPcUY7yxjvHP08c5ej2+uQnxy9PDJXo9/5iYCMkwJTHMkPN2P6IxwEjPCme8p5Nk9NbxysJoX9lbwi9kiXt5XzQt7qnhpbyUvzJfywlwJL04X8+QOGSebY5mS+zCa7U2V/zZSrNbjtnYFxppq+GxYRbG1Ae1uJjTYG9Dja8l2D1Pa3U3oD7KjzWUbFabrKTHbQKGpHhkGesRv0iXZUI+YLWuI2qpHpPEGwow34me4Fq+tungZ6eJvupYQKx2i7fWQ+ZtSHWHHiMyfuZIwhvP8qYl3ljK78T5mxHib4edkgKaGEosW38PP77tH0hhCawj5yaKf8c/3/lS6CkdXyAIw/ySZpp9JfsyDKg+io7cKfYMNbN66kS2mW9hsaoj+NgNJ6+ht3oDupvWsXq+H2kpNlDVVpOMEcQ61TDo7Eok7FZZpqrB0ucjoikTdMpaoK98VKWF3V7V870XhUMpt+WASuT0xpLYGEFftRlSZExGFjoTmOxEhdyGuyJPoXBfC0h2IkrmTJEoxmyLIbI4lqyWJpJoI/HPssI/ZhF3EepyjNuMea4xHvDFuCVtxTTLELW0LHhkb8M3SJyDXQLp6ZqzHNUUXnyx9YktdKWxLpmVHDX2zXQzMdXN0Vyc3Z8p55VAtzwitsqeSZ3dV8MR0CU/PlvHi7gpenC/npbkybo7kcbwumhm5D8NpbszI/DlaGs2RwkS6IvzJtDKi3N2S4QQvuqIdmC0SJiaAfY2p7G/JZCTLl3pfE6r8zSkPMCHPxZBwI10SHY3wMVqN40ZNLPU0WaumxNLFi1j085+jvPgetmovw9d0BVF2euQHmFEbZcdwri875UF0p3lQGeNEqp85ER7G+DtuwdV2E+rqS7lXACNC5+9BI4D5iQSM0DIKDSPMkxChZUTUJJxecZ60SlfM612N3sbVrNmwGq01mqhLB5KaaK9dhZbuKtRWaqOsqYaKlhqqWuqoaKqhqi0cYVEvI3ZhL0d1hQbKWmos01BFSUOVZZpq4v5vD3YW3Mh7E2eyO6NJaQ0mvtaL6FIXwvIcCMywISTHlugCR+IKXInOdiWh0JeitgQaxmU0zRbTMF1ExbgceW8GKfVhBObZ455oiFvcZklcYjfhHLse++i12EetwTlOB/ektXim6OGauA6bqBVYhC/HMWEtcWVe1A0XM7y/l9lT08yfmeXQgT6emK/ghX1VPDlTzLO7ynl8ZwEPj8q4OVnE0zOlPDtTwkvzFTw7WcLVjhRO1UdxtSuVV2fK+fBgO58e6eaz/QN8PNrJ+31tvN3RyCtN1bzQXs9T22t5emcnN8a2c357ObsLk5gty2BMQJYeSn2CP3UJgaR7WxFqY4CbgR6btVRZvfRBTLU0iLc2JtvDlHx/U6oibamPtqcr1YPxgiCGc3zpSPOSzo6i3bcS4GSAt+1GbE3XorTsfu5Z9HN+dscnWYBGmCOhYf75HiEKv0VchXZZiJZEeL1MfRmr14otsWKM/CppmKJYTSyiIGF27qb61RSJOeHzCGDUtJejtlJxGClgEYeSQiSAxHtCVmigtlLrx0fHJ9YHOsZWehNR7EpEoRORBQ5EFTsTXeZCYq0bKY2uxFc6E5IjzpXcKWpLomW8kLa5UprniqiZKqBsLJfioUzkXUmk1YZIwHkmGeIcuw7biJWYBS+XHGLzYHVsIjSxj1mFXbQO1hGrsAzXwCZKE59ME3Ja4mmaqKV/fy8DB3oZ21nN9akSnpgp5em5Mp6aKeHGeD6Pjst5ZFTGU9MlPDNTwlOThfxitozHhnO50Z/Fa9PlfHJ8O384N8SfLo7wp/NjfHFmgi+PT/L1kTm+3jfP1/v28dX+/Xy+by+/3TnJB0MDvNHWwnP19dysLOPh4kIu5OVyMiuDPUkJDEWG0hHkS7mnA6We9jSFuTOYGsBIpj9TRWGM5gfSl+XFQI4PfVnetCV7UBHjQFqAOaGuhvg7bMHPYQsmW3W478F7+em9P+Wnd4AR5uif7/2ZBImAYwGQBc0ifBfJfxHh9v2LeWDZA2itVJegESuH1bRUpDJLyUdRU4w7k0aeqTzAYtUHpXJOoV2EqK1QgKKxRhNNXS0JGAGPBM1KddRXaaK+Uivwe0bor186Jhopucaa3HaO3oZ3ohnhBXYkN3iR0xNA/nAAeUO+JLU64pdvjKc4pZZ7I2+Oo2IghbIdiZSMJlIxmU3bngoGDjbRu7tOcpTTGoLwzzfDOVkP6/AVGPmosM1HBZtwHTxSDCVAfLNN8MraimvaBlxS1+GXZ0liTSj529Mo7s1i+2AuZ0YLuT5RzKNTJVwbK+D6hJybs6U8Mi6XwHliqlgyUY9PFPDEmJwXJkv49f46fnOigz+eH+CLSyN8dWWCr69O8tW5Cf58dIyvjkzzlwPz/GXfbr7as4cv5uf5/c5JPhvcwftdXbzV3MQbdbW8WFLKk/lyHpXlcTY7g4M5iUxnRLAjNYjRrCCm8kM4VBXD0fp4dhYEMJzny0CuL60pblTFOZERaEaclwkBTpvxcdqEu/0mNq7X4p7775H8lAXf5fvALGiWn4hoSZgoSesI30YRXktZ3/vvY7HS/XcGJyoc2e+XLCxkchcKpcS5kbKWKirCHAkoVi+/KyKfI0QAc+f63XHAX6Py3Z2h89o+Q2ddrII2ElHiSE5vIGXTUZTNRVAwFUBqnzNh1ea4Jq3HLkwXv1Rzkms8yOv2p3A0nJq5dAZONDJ3eYhdl0cYO9VB00wBqa2+BORvwzFGj22eGpj5rMI/zY70ukgKu5LJ3R5DUoMfUZXOhJfZEl3uTFpjCPLOJMqH0mnoSeHIkJxrEyVcHsnnwrCMy2MyHpku4vGZEh4ay+faSJ5kom6M5PHsVCGv7a7ivSNN3D7RwR9O9fDFxR0KYK5N8ZdLO/nzqR38YX8/v53u4neTXdwe6eTTvg4+aG/lneZGbjXU8EZVBS+XFvOcXMaNnHQu56RwLCuOucwwJrKCGc8OYkYezoGKGE42JXGiKZG9VTFMFIbQn+tPXaIzBdH2JPubEe62FR+7DXjYrcPRagMrV6p+5+ze0TALYPzkXkWkJKKkn9+3WPJXvg/V96MnoWlEU9s9ovVkmTgyUBRFCThEU5u4CtO0cC+SeAtwiKu4/76IZ1Ij3Eq1HzdHC8hssdVxNHBeiV3UFuIa3CkcC6d6bwKVe2MongtDNh5IaqcHAXJDLMJUJH8kotSOvP4QquaSaDkgo/9UA9OX+tl9bZSpS/10HapBPhBNWKktdlHr2eKohZnHRmLyAinrzKNtupr2+UrqpgqoGM+mZDiNkqEMKkdzqdtZQOtcCV3TReweyOXcYB7nB7O5OJLP5VEZV4VZmizibE8aFwayuDqUzc0JGS+LMHu2hLcP1PHpiXb+cKaHP18c5ouLI3xxaYzPz+/gD6eH+M3BHj7e1cG7Oxv55UAlL7cU8kxFJjeL0rhZnM4NWTIP5SRxJSeRE+lR7E4LZSw1kMG0AIYy/JnIC2FPSTTHahI41ZjEkfo4JguCGZWH0JbmRX64DYm+ZoS7b8XPYRPuVnq4Wq7FynQt6hrLuOd+kbW9568cXoUfo3gmHNt7H7yPex5YJHU5ivd+IiKp74XbP7tvET+7X/G+OJi8T/lBCRCRpFNU2X1XwrAAxgIw4n1lLVGJJ9pqRUfBd/CoaasZLXDxr15tI9Ze9ZeZk97tS+VcPA0H06g7kELt3mRqdiVTPBpDbLUD9rFaOMatJarCnZLRJNoPF9FzopLB0w2MnG1n/HwXo2c76DxYRcFgHKGltpiF6KJrpsImcx0C4r2QNebQOF5D1x5xLtXC0LF2ho51MHhUSBt9h5sZEBtWjrWxc7SII91ZnOnL4JwEjYxLozLO9mZyRgImk0uDGTw2IeP5mSKeGsnh5ZkSPjzWzO/Odktm6fNzA/zhdD+/PdHHJ0c6+fBwJ+/u75Ca85/fUcmN7kIuN2VxqjyREyUJHJBFslcWyT55HDP50Yxmh9Kf5s9gZgAjuYFMyUPZWxbN4coYjlbHcKgulqmScHpyAiiMdCDe25RgVyN8HTcT6r4NH7tNOJuvxWDTCh5cdp+kYSRg7r+Xn94BR0Dys/vvlSARmkNkYKW0veh0fEDAced44E64/ZPF4vOK5+LzEjDqos9a0TK7oGUWABJQCGDEcyFKmgoRwIjnkg+zSv2ZfxWS77/pk7dJHlVni3wslLp9KTQdzqT5UBYth3NpPpBH5c4UEmtdcUvchHuSEbFVPpSNZdB5vJrBs00Mn2tl+GwLw2daGTzZxPaDVRSPJBFaZo9JyGpWmSihsU6JzWbr8Y7yJKk0jpJuOe2z9Qwd6WTsVD9jJ/sYPt7JwNE2hk+0M3W2j+l97ezansXxngzODwktk8elsQJO92RwtjeDqyO5XNuRIznBv5gp4dmZQp6fKuD944385mwnvzvXw+/OdPFbsfTqcBsfHGjhrblaXhgu4qlu0eSWxZW2LC60Z3OyKYOD1cnsF2M9qpLYXZXIVEkMA1nBDGQFMp4fxlheENMFoewujmBPSSiHqqLYXRHOVFk4jameZIfaEumxDQ/rdThb6hLsZkygi5igqccKTWUW3XevdAotgXIHEgGD6JeWgBFmRjI1oule0eUoGvDveWAxQquIcFvK0SxomAcVfdaiZ0n4LgsmSAHFMgmOBQ2y8GypxjIphBbhtPBnhAMsoiWNlRqJ32fiX32dWO+olNbtfrtyNpaWQ9l0HJPTebyQzmMldBwqoWYym/TGMOJK/UkuDyW9MZrSkQy2H6li+FwLY5c6GbvUzfjFHsbOdzF0qo2W3eVkdcbikmLCRgdN1Nc9IKX+NfSWo2+5EZdwR1LK4ynvK5R2NHXMN7B9Ty09++sZONLCxJl+5s4Ms7NXzoGuHI52pnC+P5NzQ7lcHpVzcTCbCwOZXN2Ry42JAilH89rhBt4+1sS7R+v55HQ7n57p5LOTHXx0sIn39zVya66a54fzeaw9mSt1kZypCOdoeQTz8iBJa8wVR0gmRxwyjuYFMlEYTl+mP8N5QQxl+TOU4cPOvEBm5EHsLglmf2UE8xXh9MsCKIp0IErkWxw242yqg6O5jqRlPK03YGm0FlVVRf7lZ3cSdQuQSNpDaJo7Jkhqtl+6+M6UhvulxnvpswKSO8k8AY8ASzTkL/RYC1iERhFgLJilBZMjrnefaalK+Zflq7XQ0l0hiYaO5v/Z2f0hQbnD/vU1u5JoPyqj50QZA6erGTpTT++xasmJLepLp7Qnm5KubAq70ijbkUX7gXJ2nGth/HInE1d62Hmlj6mrg0xdGWLH6T5a99SR0hCJfbgxutuWo7JSOGdisvVSNNdrsM1pKx7RTkTkBZBSHU3+9hRqR+Vs31VD/8HtDBzqoLtfxnhjErua4zjWlczB7UmcHsjmbH8Wj+ws5OZMKQ+NyHh0PJ9fzJXwy4O1vHO4jg9PtPDZ6e18erKD9w808etdtbw6VszTvZk83BjL2bJQThSHsF8WyHS2D/MFIQyle9GX7ElXghsdca50J3vSkehKb7oX3cmi0t+bsRw/ZgoC2V8ZxsGaCOYqI2hM8yA1wIIAx814Wq/H3WodHtbr8bLXx9VqAxvWanP/g4sVNS7fA0Z86T+/o1G+e/0dBMKZFU6tOFmW/BapAk84xHemN6iKtlZRVLXsji+i8EkUJkbRu7QQAS1oGlWRi1mlxfLV2miuWSmJxiqt70oZfgjGj93LpwOV6nan3O48VsjQ6VrGLrQydbmLsdNttM9VUNaXR2V/ARU9MuQtKcg7kmmeKWbsTDszEii9TF7pY/rqILPXRpi+MsHI2UGa52vJaIzDPcoOA+t1aG3QQHmVMku1lqCkvRTNdepssFyDdcA2/FJdSCwNQ9aSSmmvjNL+PLp25DPTlspoRQT721PY25bE6f5sLo/IeGSigIfH8iVgrgxm8ux8Oc9PF/Hrg7X85kwHv7/QI5mlT4938NGBZt6eqeKVkQKe68vj0aYkzlXGcKwojPlMHyZSPBmMd6cx2IaGUFvqQ21pjrCnJdqB7lRPulM8GM/zl4qjDlZHcrguhv11sewoCqEw2p4IN0MCnbZI00VFkk5oFhfL9dJeAVW1pVKp5YLvIsEhxnbc8VcWLXuAe5WEGRKwCPPyoFRZJ6rrRMgsngtgRPQkKvAEQPeriB0ECliE9lD4ImpSsZSiW0CYG9F8L/qqFTUxCmjUpCMD9ZWakqZR0V5+S0NHQ+fHuPhXnzftz67vPVHO+PkW5q71sffhEXae6aZlZzlZdUlkVSeRVhFDZK4/ETk+lHVnM3qkjb3XR9j3yCjz14eZvjLA5GWhZUaYujrKyJlB2ve2UNYjJ7UklqAkfxz97DCyNpCmIokqsiUa96O9QZ0tNutwCDDHN9aFgCQvApI9kZeEcnE4n/mqGGbr45msjeH8jgKuj8m5KpJ1E4U8trOQG+Nynpop5dU9lXx8qo3PL/fx5ysDfHltmD9dGuL3Z4Xz28ftEz18crSXDw92c2u2lRcGy7len8HxwggOycKYTvdjPNVbmgHcn+AuHWAOZXgxmR/M/vJITtbHc6o5lYN1CYyWhNGS6U2irwkhLpsJcTGQgBEjaX3s9bExXsNGPW0eUFI4r/cu+c7ULFIS/dIPcJ/Kd8k2MflbACJ6iUTBthABjeiploqoBDD33ctipfukhnnxOdESuxABifoXAcsCKFprtaTXQssIqISzK/qylZarSKI4P1L6+7XLAkW9R+VKgyfrbk9f7mLvozs4eGMnEyd7Ke3MxSvOGacwa2wCt7HNfRMm7vrEyILo2FnD7oujHH58hsOPTbH7+ogUWo9f7GPi8hATl0bYcWaQgcPddM230DBajbw5h7C0QIxstqC8Uon7VBZJ0KjpLGONvhYbTcRKubXS1cVJn1OtyTwxUsDuxgSm6+M5MyTjyohM8l+e3VvDU7Nl3Bgr4OZkMbeONnH7QjdfXBvkq+vDfPPEDN88u5+vnz7AV4/v489XZvizaOK/Ns/vzozx6eFe3tvdzq9mmnhpuJynugu43pzB2ep4DpdGcKgskkPlkRyriedCSwrXO7O52CljviKOzlx/yuJciBOz/Zz1CRNaxmGzBIur9UYsjNdKzWiLBShKi6RJUiILK2ViRQ+ziuhG/A4YUX4pnFfFFClFj7R4LQ4cF7SSGCy0MEhIvKcARoTGiulTArIFcDR1hUOr0C7CbIn6XVHcLRVJLX1QzJu5tWjRon+fdlmAZuRsU/38tT4O3Zjg0KPTjBzpJrM6ASOXjejbrWGjzSp0TTVYvVUdM/etpJcnMrB3O3uuTHH0sd0cujHDrus7GL/QzfDZ7Qyf7WbkfB+jFwYZPzvIyOl+eva3UdotwzPKWZp9L/ya+1UXs0TM1dcUQ43FzsNlaKwWrbUrOFQTy5uzFVzqzWVnbTRHujO4MJjNQ6P5PDFbxpMzZVLB+At7annv9HZ+f7mPrx4a5surQ3z58E4+vz7JF9en+csje/ny2py0PvhPl6f4/OIEt0/08eHeNt7d1cJbU3W8PFLKM/1yHuvI4HpzEg+1pvLw9kwe7c7hRm8eD3XncawhTZrA0JIdSH6kI3EexsS6byXC1ZAQZ0O8bDbiaKqHmcEalJTFF6NIsAlQhAYRIl4vZGMXnol7IeLLVVTLKXqJxM4k0Ywv/Blp/4C6QgsJYAQgC7AIbaToeFSWfr+o+13wYcTPFOULojhKRGD33C+ZuX+/dlkAZvpqr9Leh4ZvHbk5zaFHpujf20pycQSGTnro269mk80q9My0Wb1Vg7VmK7APskTWmEn/nu3svryTg4/Osu+RCaau9LHjbBt9J5vpPd5E/6kWBk63s+NsFyOnummZqiY6PwgDu42orl7GEg1RFS+AEUVUS1BfoYTGymUYbVnJgeoYfjVXwzMjxUxVRzLdGM+p3nSujeZzfVTG45PF/EKUch5s4ONz3fz+cj9/vDzE55eH+fR0H++KnuyzQ3x4rJffnx/lt2d38IcLY/zx/Ci/OdLDRwfa+WBvO7+eb+aNKRFJFfF0n4wbHZk8sj1T2vl4oy8PIRc6MunPEjkXe+RRjkS7bSXew5h0f3PiPLcS5roVT5tNOJquxdl0A8rKD3DPg/ewSGnR3YysAESAsaBtFjSOAEJEPcI3UcAgzI1IsilJfs2Dy4Vvs1Sa1ysa09TExrbVin4j8XlFpKSIlhR+jeJ0WpgsCRgVAd4DiklW9y/++yOjBUh+eN1/Yyzw6M1p9l2foGOqlqBUDzZYrWKj7Uo2WK1grYkmeqYrMXHfgk+sG5kVydT0l9Gzp03aEbnr6ghz14eYuNjF0JlG+k/W0Xeijv4TDYycaWfiXDe9BxrIaorDLsgYna0aLNcT89mWoqylAEZVeykaK5Qw2bqSIzVx/Hq2hjcmK7nYlcXOymj2tadybjiPC4OZ3Jwu4rndFTy3u4q3j7fy3tEWPj7Vye3zA7y5r4EXpyt5c18LvzrQxvtHu7l9bpjPTg3y8eEuPtjfJslnx/r48FAn7+xt4ZWJcp4ZLOKRzhwe7pFxpjGVkw3JXNiezZHmNOqTPEjyMSPJz5Q4L1MSvM3ICrQk1tuIYLHJxVQXX8sNeJhtYOnSxdL5kTBJAgZhhr4PyMLmElE+KUShRe6XfBcxwFlMyhSiIl1VUBNTwNcohh6q3wFGOLMKH0VRLLWQjxHPFt4Tz+5XWcJ9y5aweOn9LHrw/n973uWHgPyt+6OPz12dvzhC7UARjiEW6JhooGehzXqrFWywWo2lhzFh6QHk1WVS0VlCRWcplQOlkuYYONLKxPluJi/3MClC7gsdjJ5tZfRMKzvPdzFzqZ/h/z3wsLArBdcYcwwc1rDOVIuV+mqorlrC0uVC2zyAisaDGG3WYl9pBLemqrk1W83TI3JOtGewqzmZY/05XJLMUilPzZby3O5Knp8r5839dfz6SAu/3N/Ac9PlvDBfxyt7mnltXxtv7GnhjbkG3trVyFvzjfxypoZf72rizZl6Kfv78kQlz48U81S/nIutaZxtTWdvZRzTJVHMlsYwURpDRYIHmSEOxHqZEOlmRLyXKal+FkS6b8PXTh8Pcz3CbQ3wMN2Aqpr4ghQ+jIBBRENifOqiZfdJcPwQGAU0ixROrYBETGZYo4a6rvrdBrXleuosX6smjR9TaBjF+ZDIwQgwFqInoVWEiGeSGVR+gMVLpSzydy0kf+vL//c8O/rYtM7Eib7bha3p2Ppvw8BeDzO3LVj5GOMUbE1wii8ZVSmUdRVTN1BNaUcx6bUpZNTHU9qfRdvuSkZOtTN3ZZBdV4eZudTH+LlOdp7rZPpiL8MnWikdSMcv3Q5T7/VsEdCYrUBzvTJLNe/nAVVR+/EARps0JIfz3dlabk1X8/J4KTcHZRxpTeVQTw5HerOlg8nrI3k8PlnEYxMFkj/z6v4mnp+v4fHxYm5MlPPYZCU3Jip5emc1z0xU8sLOKm4OFHJzsJCnd5Rxs1fOE30FPNaTz/Xt2ZxvSedkYyoHa5MZyAumPd2XphRPmtL9yA6xI8nXhmB7A0KdDIl23yYl7QIdtuJlvoEQa9HbZIin2QY0tIXv8J35kbSM6An63tY1AY1UoP3gPfxcaiX5HjBr1FBbq4aARPRPa4jFE+tFk5o4eVacMgtz9H04BDACkgUR9+LPE8MURQ7nH3Z0fwyojul6eVJpGI4hZlj7GuMcao1XtCPBqb4kFkSTW5+JvF2GvFVOZk0qUbIgQnK8iS0NRNaRRMNECcNHtjN1ZoCdp7sYPt7C4PEmhk8203e4jsrhbMLyXDDxXI++3WrWm2uzQl/01Yh5JvehpHYfZpu1Od+Yxvvzdfx6uprXJkp5ZkTOo0MFHOnMZn9HBke7MznTmyaZp2sjMq6PFPLIeBmPTVbw0GgJ18fKuDZSyqWhYq4MlnCpR84VId15XOnMlURokvNirU5zGscaUjhQl8R0WQwjBVFUx3tQGe9BWbwH8mgXEnwsiPYwJ9jRkDBnIyJcjQl2MsDTfD0BlpuIsRPjag3xs9rECl01lKSx7wtDk8W4sCXSwMGFUgQBkRChgb5vkpYJUySa0nTVUBdaRU/0TStE+C/C2RVaRQDxfUgW4Fm4ij9HACPGtf7svkX/uKP7Y8CI50EZbledQs0kaDyi7AhMdCc2L4zcmnQKW/LIrksnVh5FUKo/folu+Ke4EJLpTkyBL5m1MdQMFrF9uo7O2RoaJouomZBRN5lPw2Qe+dvjCM1xwtBZhzVG6uhuXc4qfbGlQ0xaeoDlK5bgbKbL9bYsCZh3Z2p4c6KcF0aLeGJHARcHcjnSnc3BzkyO9qRzqi+TSyMFnOjK4WR3LheGCjk7UMCZwSJO9sg43pXH8e0y5qqT2VOngD9QZsQAACAASURBVOJYUxpHG5M53JDEofpEZkpjGZOH05sTRFtWIKVx7mQG2ZAX7kiqvw3RHqYEORoQ4rxVknB3E8LdTfG13oS/5UbCbfSJsdtCov1WAmy2sGbDcqkPWmyFFQ6r+FevtFxJmiYlvmTxZQpZiJTEnFwx40WKdu6YJNHRqLFO+Hka0oQGYaKUV4iDxL+e67KgUQREC0cEwo8Rz4WWu1fpP9DR/TFoPCMtdZwjLG47hZrjHm1HcKon6WXxFLfIKG7NJ608Cd8EL1yC7XAOscUzxgH/FGdCslyJyvcitSKcvIYksusSSKwIJaLQm/ACL6JLPIkscsErwYTNdtporFvKqg1q6G5Zztoty1mzeTkbDLVJCLXh2eEiPpiv5d1pMeKjklcmynhyRyFXB/M41Se0TDr7OzOZbUziQEc6h7qyONqTw7HuHPa1pLGzJp6ZhhRm6pIYLY+mPSuAljQfhvJDmC6LZr46ln31SUyKttkUf5oSvalL8SUvyoUoz23EeFsQ62NBhOs2Ql1NpAq6YJet+DvqE+ltgZf1JgJs9Am31SfKVp/YO8AE2W9BV180x6uismoZy7TvDPAR0EjV/IrSShEOi6HMCidXBXVd0Xajjjh30xQito2IaQzrNFmuuxwVsdlESzFpagE2cf0hMMLhFWG3gGaJutLtRRr/YM7lxyD54XPnUCu5fYgZbtG2hGV6k14eR359Fnm1WURlhWHvb4ODnzVuYY54xjoSkOZMWK4rYlVgXJEPsYV+BGe44RJlhYmnPluc1rDNYw22Ieux8NFlo6Umq/VVWb9Fg80m2hhbrcLaWY/AcFuOzHfx3v4OPtxVz3uztbw9Wc3rOyt4criQSz3ZnOnN5GR/Drtb05lvSWe+OZXZpmTmW1LZ05bBVEMy/aWR9BSF054XSF2aJ2UxLhRHO9Kc6klfbiCD8mAG5aE0p3pREetOYaQLmUH2xHiaES4WltpvxstuE/7Ohvg5GuJrb0CYhymh7iYEOBrgZ6tPhL0BsY6GJDgYkmBnQJLDVkIcDVi7WRy8il5nRb5kwQkVkAhTJcaMiR1IGmvFPmoNxVoafS3FmmGxEGvzClaKXY1ipMcGbWmMqiKEVminBc0kgFFoJ0UuRpgr4eOIxJ3IxShpKst/+L3+p947hlj0ecTaE5LhTUxeCLF5kQQk+GHmYoq5qynuoc6EpIhOSj9Ccj0Iz3clMt+NsFxnAtPtcAwzxNBhJWuMVVlloIzuNhU2Wmuw2U4LfUttNhprsdlIG2OLVdLW2qh0R06cm+f2W8/x/u4WPthVx3tz9bw3Uy+tunl+pJQLbWlcHsjj4rCcE7157GpNk/qZJuqTmG5JZ6QmkYGKWLqLI+ksiqAuw1fKnWQG25If5UxFgiuVCS5UxLtQm+pNaZwbOeHOxHhZEuBgiJe1Pp52BjiYrsHNegPedvr42G4mwHErYR5mBDgZEWBvQLjjFmKdDEl0MiLRwZBEe0NSnLcR7mTIOgMt1NepKYBZqYKSthLLViyTwmQ1XRU01ql+b0OaNqu2rGC1wSpJxMa0BVm5aQUrNq6QNIzCyRVOrWKag9A2y4SJWqG4qoqhiWJgopjeoCemN2j+yz6j/1Ra/umf/skx0VEpIM3jmcicIGJkEYSkBmHva4e+5QasPc0JTPAmVhZKXEEwMYV+xJX4kljmT0KJL+G5LvgkWuAcZoitnz5WPpsw89DDyHEVRg4rMbZfxVbLFRiYaLPVVBsLRx1q27P45JP3eP+Rk7w/V8eHc7W8O1PHO9N1vL2zhlcmqni4V8aVfhmXh+WcG5JxejCf2dY0JmoTGa1KYLAinr6yGNrzQ2nJDaY80RNZpKMES0G0K4XRTsgiHMgNcyA/3IH0QGuiPSwIcjLGy94AT7steNgK2YyvoyHBrsYSKDF+1gQ6GeFtrU+YkxHRYuizkxEJjltJdjQixdGIdGcTEtxNsbTdwurNqyT/Q2WNKso6yqjoLkNdT+XO7kUNdAy10DHUvrM3euX3gFmB9iYtaXua9kZtaZyHmMqgvEpVsWxL5GlELkYMRtRTTKASU6iEryOGCWlvlGbG3FLSuTPn5T8bkh/+/ER5pE5GbcqtvMZcsquziMqOwiXYAbdQByknEyMPIa4ohPiSQFKqQsiujyK3MYrM2jBSygNILPUlvsiLuEJPInNdCEi1xivWFLcIIxx89TGzX4ORxQq8Ay145PGL/Om3H/PcRDMfztdJ8sFcA+/NNvD2eC1vjFbxzFAJjwwWcHlQxvnBPC6Myjnan8NsUxqDpTH0lcTQVxbL9oJw2mQhNOeGUJXqS0m8p+TEFkW7UhLnSkG0CxWJ3uSEOhLmZEyggMPdWKr0FyYoyG0bYZ6mRPtYkBBkR4SnBf72BgTbGxLlJDa/bCXVedtdWNIcjcl0NiFL7FCSpxCVEIqthzUbTTeyYrM2GhvVWLFZg9WGmuhs1ULXSJs1RtqsNtBm5WZttDdporXxTvi8To3l60RI/Z3Tq6qjJjnSamtUpedaYleS2Ky2SeuOiE1rK1mlv/qWzkadf+ys6IcQ/L33JdtLjCp6K25X9laSW59NVHYIgcneROUFEV8URnxJCPFlwaRWh5HXFEtBWzwF7QnI2mLJbY0htzUKWVsMeS1RZDWGK2AqCyAy2w2PMFM8Ak3pGWzkT3/+I5+9+SpPDZTz4VwNH87W8MFsPR/MN/POZD23Rqt4daScJ4eKuTFcyOXBXK6MiIgojyM9ecy2pDFYEUNnQRgdcqFhgugoCKc+K5CGTH9qUryojHejJdOf6iRPyuNdKYp2I9HbgmR/G+J9LEgOtCHB35oEP2sSfK1JDrIjwd+OGE9LotzMiHU1JcHNhBTXbaS7mZLuYkK687Y7YkKmpxUZ4T5UFGVRUpZHanYy9l526BrrSHCs2boCIbpGYlmnSClooLlBHXU9EUoro6qrIomarmJu3cJkKXGVNMk6sVJY6+7uRrHDcYW+QrMI7aKjr/Nvq9H9eyH4ez9f3luZWNpThqw5l4SiKMmviZIFkFgSQXJ5BMlV4aTXRZDTHIu8I4HCriQKu5MQTf3yzngKexIo6k2iuD+Z0oFUirqTyG2OIq08iPrt+bzx5kt8+823/OZXr/PcSCUf7arlo9laPpyt58P5Jt6dqudXEzW8NlbJcyPl/GK0jMd2FPDoWCGXhvM5N5jPgc4M5ltSGKuOpy03iOoUT2pSPGnJ9qdHdCbK/OnPD2JAHkZrlj9Vie5UJLojj3IiJ8yO3AhH8iKdyA5zIC3YnkR/KxL8bYj1sSLW04JYDzMS3c1JchXAmJDuZkammymZ4rWzMZmupmR5WVKcHE5JdiLFuclUlcuobqrAxH4bOmKT69aVkqwWMwD1NdFYryaBoqyjhBAVHRVJxJAgAcgCMMLkaIhdAmJvo3CMt4gF5uJniLl2mgiNo71x5X9s6v/vheSHn89uyq5PrUkkWh5IYJoboVneEjBZNfHIGhOQtyZR0plKRW86Vf1ZVPSlU9abRklPCiW9KRIolcOZVI/kUDOaQ8VgGi1jBTz14iP85esv4Ztv+OytV3h5opZPdtfx6XwDn8w18vFcE+9O1/P2tDhbqua1qWpeFBnc0RJujhbyyGgh5wdyOdGXw8GODOYbkpmqiWegMJT2LF/aMr1ozXCnLcuDzkxPWtI8qIh1oCzWgdJYR+SRdsgi7MgNt5Oa6NODbUgNtCYl0Ib0YDsSfSyI9zQjwd2EJA9Tkly2keJiTKabCVlupmS7m5HjZkaWq6k0uSo32lcCRpYYTnleGrv2zxAUG8TabTqSz7L6fw8eEF+2yN4KzaKyZpkk4rUQtbVCy3wHjABFa8MKtIR/snHBBImrAEiRr9Fa/++ooPvhF/yfcR9fGlofIfPEM94aj1hbQkQxUXE4mVWxyJqSKe7IoKI3h5pBGTWDuZLUDudKo89qhrKp25FL3UieJA2jOew+PcyfvvgD3377Ld9++w1/fO8Wr0418tF8DR/N1t0FRkRKv5qs4q2pGl6fquG1mTpemKzkyR1FPDZSwHWhZfpzOd6ZxcGWNOaqYxkrCaUnz4+OTE/a0l1pTnWmIcmR6jgHCiOsKIi0pCTGjqIYB/IibMgMsSDJz4QkPzMSfcxJ9rMiM8iOVD9rUnwsJViS3U0V2sXVhGw3U/Lczcj3sEDmYUGO0DAe5qQHOJEZ6UdqkCcZ4QEcPrKX4qpiNplvlCKg7/wVhSkSgAiHWJgmhR8jRo+JKEsBjZiOuVJ/lSQrxCBE4etIPs5y1MVxgZ76f24m9x8FKVLmXe8Ra4mV72Ycgk3winUiOFWE3sGklkaRVR1Pbn2iVNZZ1JFOaVcGZV2ZlHVlUdadRUVvtqSBOndW8PIbv5BgQfr1LV/95iPe3t/Dx3MClgY+FRpmppF3dtbyq4la3pqo5s3JWl6frefl6Rqen6jkF+MlPD5SxJUBGadEBrg1jV01MUxURNCf50dLqguNSQ40JtpTE2dLaaQN+aHm5ASZkB24jewgM9L8TEjwMiLOYysxbgak+JqT4GlKsrcFqb5WJHuakeRuSqKzMamuCu0ihibKPS0lYAo8LaXXMk9rSuKDKU2PJT3Eh0Q/D44c3kv/yADG9tvQ3qiFunROJNL9CmCEVtFYr4r2puV3fBrF3DplsUdAzOUV6230V0lOrXBshcZRWyugUhcHlf9vw7IAm3u0eb2J22oM7bXZ6qiLias+1j4mOIZY4hFth1+SC8EZnkTk+RFbEEh8UQgJxaEklUaQXhlNYXMau49OcPu3n/0VMF/+7hM+PD3OR3P1knb5dL5ZMknvTTUoHN/xGn41WSdtjH1pvJIXJ6t5TiT1xkt5aCCfM9uzONmWzr66WKYrIhiWB9Cb6832DDfa012pjbelONxKgiXNx4BksfrHQ59o101EuWwmykWfeI+tpPqYkeZrIYGS6m1Biqc5Se4mpIg5v24m5LqbIyAp8LCUrnIPCwq8rJB52VCaFEpVXjJ5McFkRgZy+swx9hzai7OvC1rrNFBdrXxXewhYlq9Tk4DR2qguaRlxLyX9xKm1WM0nFmYpwmWW62lKc+2UV6uh/P8LLAvQGDpq1G+wUma9hSq621RZa7ScdWbabLJdhYGTHsZuGzDz3oxVgCG2wUY4hJngFW9HeIYn5S15/OKFm/zlL1/dMUfCJH3Ll5+9xydnJ/h4vp6PZxv4eKaBD2caeH+mkXenGhVaZryaX07U8spELc+OV/HsVBVPTJTx8JCcS715nG7P4HBDPLuro5mriGS6LIzxwhAG8vxoT3OjKtaOwlBzsv2MSPHYTLSzWMyuR6TzJmLdDEj2NiHZ04R0XwtSvcwkaBLdTUhwMSbZZRsZriaSCVIAY0GhlxWF3tYU+diQ42lJsrct2VEBZEcEUFOYzdmLZzh14QyZ+Zms1V8jjXu/W8KwVk0yK+J0WvJfdBUZYgUw3/Nj7iwlV5XyMcoorVD+/0OzLMCycF1nqZS41lSZlQZKrNyoxOrNIqOrjp6ZJuustNG312Grqy4mXnpY+K7HLcqMiHQPJncN8Yc//o5vxX+S//ItX33xJ37/qxf5+Pgwn8w3ShpGOL0CmHen6qRI6a3RKmmp1hujlbw6XsPz41U8N13NzbFSHhkq5PpAERc6cznZnMbxJnHAmMieymhmSyIYlQXRn+VDS5IL1dF2FASZk+VjTJLbFmKc9UlwMyLZcxspXqak+ZiT4WtJmrc5KQIaD1OSXbeResd3KRDRkI+NJEXe1tK11NeWXC9LopzEfDtHUoI86Wmr5+K1S5y9fJ6eoT7MbExQX6UqFUipS6NSFb6KMD/KOsuQrqsVkZKKSPjpqEoiui6kRRSaS28raSj9vxUNLcDwb73qGCkZrTJUuqW1cSkrNymjY6gqnUTrmWuxxUEXcy99bAMMsAnYhFvUNhJkPtx48grffPPNXXMkoPn8N5/w2TPX+PBAFx/PKYD5YLKWD6bqeG+qnnem6nljuJxfChmtkhakv7izmucmq7k5Usojg8Vc6y3g0nYZZ1syOC3qW1rSOFwbz97yaKYKwtiR4093qgct8c6UhdlQGGxFtq8ZGUKjeJtLgKR7mZHlZyVJpp8VacKP8TAjw8OcDDdFRCQgWQClxMcGAUuprx1yHxuiHc0Jd7Yh0d+d+alRrj16jXOXzjK7Z5awmFC012qjulIZFck0CSCUWbZa+U5YLcyVCuIIQTjDKmtUJIiWaCvx4PIHbylpK/2/kWf5t8LxY5/TMdLQ0TXWvLXGaDm6xuqsM9PC0FEPh2Az/JNcCc3wxCfeFo/obZQ2pfLxZ+/dhUXh8MLXX37BO9dP8cGeNj7Z1SxpmA+n6/hopp53J4XTW8PrApYdFby+o5xXx6t4XsrJlPPEjlJuDJZwvbeIK11yzrVlc6Ylk5NN6RypSWRfeQyzheFMyoIZzhTQ+FAX7SjtA5D5W5Lra0mOr4BHcc3yMpfuc3ytyfC0INPTgiwPC7Ldzcl3N6fISwGMgKXc15YKXwU0xb52RNqbEGhjRlZUEEcOzHPl+kUuXTnH/sN7qagtZ6PBBmmy9zLtpdL50kJYLRJ3Ilpavk4VzQ3CrxEmSQVRI/OA1tJn/stOnn/sS/6Pfm7kqKNk5Lihb6v9Ogwd9LD0McQn3om4/GAyymNJK40kozSCE+f289VXX/4LYP7yxee8emoP78w08cmeVj7d1cRHM7V8KKZ83wHm1ngNvxyp5PWRCl4T+x5HK6X5uwKWR/uLudpVwKUOGefbcjnbksXxuhQOVcaztzSG+cIIZuShjGUFMpAWQGucGyUhNuT5WJDrY0mOt+Ka52ct7amU+duQ62dNtrcV2Z6WZLtbkOtmjnBwS71tJSnztqbCx5rqAHvK/GwpDbAnwtYYz21bKEyO4dSJQ1x76BLnLpzi4OF9jIztwM7JTholJoARLTfKq5WkPIzQKAIU4fyKDLAQjfXqqOiq9P1fOxv6j4bkb/08vxhXuW+sy22vaCeCUjyllTrVnYXs3DvI0y/c4PM/fw7ffrOgWO5ev/7LV/zqoXO8M93MJ7ta+GR3Ex/N1fHBdK20WOvtnXW8NVbN68MVkrw8VM6zfWU8MVDOo70lXO+Uc6VDxsW2XC605nBKTO6uTeNQeTz7y+MkaHYXRzElC2NHZiDdCV7UhDlR4GdDrrclOT6WCFgEKPJA4eM4kB9gT563LTle1uS6W5DvbkGhpxVlPraSZqn0s6Pa344qfzvK/Wwp8rclzMYA+81rJYf32rULXH/oMmfOneDAob3sO7CX6PgYNHU0Waq5BCWtpSitXCqZIwUwAhZNVm0R2Vzt25qblv/Xlij8rS/0v+JZZGakTro8/lZ5QwG7Ds3w0uvPc/v3v+EbCZRvASF//Us4wL9/5y1+PdnMZ7tb+HRvGx/vbuaj2QZ+PVGD0C5vjlXx6qBY4lnOKwMVPNVZyONdxTyyXc7DXYVc3Z7PpfY8LrbmcKYujROVyRypTORgZYIkByoU2mZnbgjtsZ6UBir8jnxfa2S+1hIwAhZ5gC3yAHsKAhyReduQ62lFvoelpF1KvK0p9bKiws+WSgFLgD1VgQ5UBthT7G9PgtM23LdtYntzDQ/fuMaVaxc5ceooew/sYt+BXZTXVKC7SVcqVViisZSloshq5TIpuyvyNKs2r0Rny+prOkb/lw8R/ytA+eGf8cat1+r/+Pkf7zq4wrn9W7AIdMRbX3/xJ97e1cdv5hullX0f7WrmfXFaPVEjaZdXhkp5bUcFrwyV83xPiQTMox0FXG/P56GOfK5tz+dKWy4Xm7I4K4CpSOJYRSKHKxM5VJXIgaoE9pZGM54VRLM4ufa3pdDHlmJfW4r9bCkMsKMw0I6iQHvyfe3I97El38sauac1BV6KaKjCz45yXxsJlrvABNhT4W9HkZ8dKc6mRDlZMjk2yLWHr3DxykWOHD/Mnv3z7N43S3d/N9usTFGWKv6XoqSlJJVfqq1RZ8U67durNq3676FVfgjLwj2g8+233x5bCJ//Wq8IUBZCaxE1fcOnj13i/Z2KY4EP50QOpp63J6qlyOiVoTKF/7Kjghf7y3imq4jHtxfySFs+11vyuNKay+WWHC40ZnK+IYPTNWkSMAeKojlYFsf+slh2FUYwkuFPo1isFWAnwVIWYE95oELKghwo8rcn39sGubctBZ42kohciwilBTBCu5R6W93VMAIcYZIKvK1Jc95Gpr8bx4/u58KVCxw7c4K9Rw4wt2eWXXvnGZ0YxcXbleWrliOmYYp5uipaKqitXn5NR+e/oVZZAOWH16+//jrx22+/vaXQMt9h8x0wCjP1pw9/zTu7uvlwsoaPZhp4b7pOipB+OVYtaZfXRyp5baSSl4YqeL6/nCc6i3m0Xc5DrTKuteRxuVkBzDkBTG0axyuTOFQSx4HiGPYWRDGbF8ZQmh/14c6UB9hREehIZZAT5QEOlAc6UBboSJGvPXIvG/I9rCjwEsBYSxldEUoLYCRAJC1jK8EjIqVSXxsKfGxIdthKZWoM165f5NyV8xw+eYxdB/Ywu2eGPYd2s+fAbrJlOWw1M0JLR5qKeUtFS+XHJ1n+8C/yv9s9UA/cUpihBe3ynU8jwuv3Lx3h1o5KPpiq592pWqniTji8b03UIJJ2ApgXhysUTm9XsaRlHusouKtpLjVmSRrmTF06J6qSOVIm1s7EsSc/kqnsYAaSvWgKd6QmwI6aEGcqgxwp87ejLMCBUn9HinzsJBFmSO4poBEmyUryYQQcwm8RWqbM14oyX0tJ25R6WyP3sibWajN9DRU88vhDnL18joNHD7Jr3yzz+2c5eHw/J8+e4MrVy+wYG75tam1er6Ojo/TfjYG/+/9XmKkFcL6vYaTX3/yF3775Cq/vbOa9nTVSlPTuZB1vCad3vJY3RWg9XsNrozW8OFjJU92lEjDCND3WXsCjrflcb87lQlMWZ+rTOVWTypGyBA4UxbJbFsFkVjBDSd60R7vRGOZMTYgTlYEOVAQ6SFqm1M+eIh9bKdUvICn0sqbQy0bKvZR429yNkEq8LCnzERGTtfSszMuGXFdTYmy2smt6lAvXLnDi3AkOHt3H7v2z7D20i2OnD3Py3Mnb1x++Xv/MM8/8Dyh/LzkCnG+++aZ+wVQtwPPNN3/hsxcf47WhCt4Zr+bdyXp+NV7Hm6M1vLGjitdHqnh1uIKXh6t4tleM7ChRQNMm52abnBvNMq425XKuPoMztWkcLUtgf2EMu/IimM0OZywlkN44b1oj3GgIc6EuxInqYAdJ05QLf0aYJ38HyoSD62dPua89ZVKSTiTqFCJ8GCHieakAydOabEdjiqIDOH3uuATLoRMHJVD2HJjj0LH9t0+eP15/9OjR/wHl7wXlb33+jo/z7AI0X/7ht7y+Z5hXe4p4a7iKX44IWCp5Q0rciclSVRIwLw1U81x/Jc/0Cie4lCfbCnisWcZDTTIu1mdJwCj8mHj25UezKyeS6fRwdiQF0BPrTWukO00RLtSFOVMdIvwahaYRvk2FvwPlIufibUOFry01AfZ3ReRehIikXbmPDYWigMphGztaa3jk0atcuHyWIycOsefA3LVd+6blR49O/w8of+uL/0efAUZff/31zDfffHPrN798mWcHanmps4DXpd1H5bw2VM7rI9W8MlrNi4MVvDBQxQt9lTzfWyFdn+su42ZbAQ+35HO5MYdzDZmcrErhUHE8+/Oj2ZsXxXxWFDtTw+iL86Ej2oPWSDcawl2oCXWhKsiJqkBHqgMdqfJ3oMrPnmp/B+oCHagLcqA20IGGYEdqA+2pC7Cn1t+ecuHnuJgg83Pi9NG93Hj8+u1zl073HT168LstZ//oX8z//P7/89/Al5//PvC5+aGZm/U5t1/YXsjLfWW8NlTFa/+rvWvbbeqIov6EfkqlPrSqVMkJJomSpgRiciM2TgiUcqtD0lyb1rkQ52rnAq2QqBpVSLRFhQhUHhoJ0otU+oIdopLH+g/4hF2WmyXtjs6xjcgNs0cazTkze/bsWXvNnvGJc/zVF7J1dTifny4PSzbVL9m5fnmaGsgTB5Hm8XSP/DpxUdZGP8kT5qfeqNzubpfvL7XLzfMn5MaZJrkaOyKpSJ3MtNXIeHMovz0lGg/JaDgkY+GQJI5W5MuxcKWMhStk/HiljIcrZAL3x4L531Qaqf9A+qvflcuH3nne29qwsrZ2P5jJPLJoUty9uyuxmYwHN6d6Fp6lBtefLQzK1vLQf4RZGpKN+UHJTvfJxjZpMrN98njqsvw++ak8HDsvD0ZOyx38hHBPRG53R+TWxROycq5Vrnc1ynLsI0m110my5bAkW6tksqVaki3VMtVcLcmmKplsrsoTZLIpJMnmw4JyMlwpE40VMn40uJ748P2FgZr3LJLsrvtfTXsmHX9ra/nz4N/LQ4mNxaHVbGrgH0QV5OxcnzyZ6ZU/k93yx5W4PBw9Jz8Pd8m9wVOy2t8hd/s75Ifudrl5qV2+OdskX59qkGudR2TxZL3MR2plPlIn6WidzLfVyGxLlcy21shMSzXK3Gxbzep0cyieDIeCiYagRZFXc+P+9gaJNtMDwcxcX8NfV+KJ38YvrKyNnF3/ZeTM+oPhrtz94c7cvcFOufNZTH6MR+RWPCrfXWiTGx8fl+unj+WudTTklqL12aVo/epirH4lHa1NpCO1sXRb7dvpmJFjf71roxsChoAhYAgYAoaAIWAIGAKGgCFgCBgChoAhYAgYAoaAIWAIGAKGgCFgCBgChoAhYAgYAoaAIWAIGAKGAP47EK/qKo+X6pg/CyIAJ+OfzL8NBAKPVL67XV/K685XAoGABAKB1/uVXQVhskZ8ORoEgaORn79weO7Fb1+sBwKB7PY920CmQsQxwpQ5n75URAEZ/L5Zj3qSAYQ66YMLZSzC+AD0OleTLPit5FLPHJCDPCKOF7lKIQy+yQ896F9sE23WSAAAA3RJREFUXMjqiIZ79PMaG77QunU/Lz+hHfJMuPezSevVfdi37Es4Ck6H84sB64KBvogy6OuCV4gwkAVJ0ZdbHG3wi0jUB0eS4Oyj7cIccNbSenGd8Zkf5NGObRfXektGPXQRl7SHXtjyRiUC5DqKTgVgkMGvhgE4fPLRb13CPYB1X15MB3vpZWQCYSCHvvitZuhB9nIC9ZEMOFOhDpkJ9rm6YTfIQN3uu13QB22QQV9k9IE9JDTmD7Joe7VOjQdtKctSRxc9QdQTeAKNknUomUAsAKnr0EYHu4RhPVa8G5UYsTCWu9WwH9pcnbSFZILDXd0kNmzVbSQM9KK/20bSoISsThgH/UCoNyJhZWDCeoVwlQIgvRo1iVxyMEppQOlg7VztHC2rwaZjXSdQHw7kXgkEw1xc27Qs7XTni37IXjYVGhfkYl89TtlecxvQqxkOBggaVALg5xQ6Wesh0Jow1I1x/ZJ2gl7tXvq0Dq52L7spx/E16UhiP6JxXMzRK71RhOGK0yuLddpZGihEHhfcUglDp/qBz3GwXcERiGpMdJwmINtQ0m6UIIRX5paF8weTEYZIlFDioRwcoxPqXEIUay+VMMWcznHo/GIRi/Io2YcrvlBphNHIvcS1H2EQRfzSXkaYlyEMt1dEIESNYpnzswhDJEoouSoBGhOB13Vs8wPXq49XNMH5Aisf4/ql3TzDeI3pNyfKch5+2ygjGeXLuiQY+tMQnYrnDm7iAzN3y8KZw62jbn3mIBkQpbwIifF4MNXbBuq99Gn7eCCHLX4JMpirPp8ZYfzQ8qgnOfTqAZhwPlYOSAOQcfgkWeBstHG7oA79yQND+TmYB1841iWNfg6jiVZIn54WI6YX2TEW56V1G2E0gkWu9YrXohpchlyUIBYJouvhCNf5foTRhEQ/EA166WyOo+3BtZ8+Laft1rrx6YhEhx6djDAajRKu6SgQQSc4FisRzkRmRIEMrhEpAD7aIOumQg6GPNs18eBU1w7qpbyODmzTJQhAWVc3bHWTEcZFpMg9AIOjkPVzjyLddqQZxAH5kGHHTiate6/ntZPzOJC6sGq5Gv1W+IE03IzaPwTw6YGHQpTYcvTKx4pFFAC5eO7YP2tt5AOBAAiB/Z/EYdTxKgv9PehATMaM2FsEEF2wPeGgCBIh49p9jrG3Vtlo/0PgX0icH/T3THscAAAAAElFTkSuQmCC;imageBorder=default;" parent="1" vertex="1">
          <mxGeometry x="1156" y="713.5" width="56.76" height="105" as="geometry" />
        </mxCell>
        <mxCell id="wtZ6A3OOezWm38jqoUYY-112" value="UI" style="rounded=1;whiteSpace=wrap;html=1;" parent="1" vertex="1">
          <mxGeometry x="1043" y="809.5" width="41" height="31" as="geometry" />
        </mxCell>
        <mxCell id="wtZ6A3OOezWm38jqoUYY-113" value="" style="shape=image;verticalLabelPosition=bottom;labelBackgroundColor=default;verticalAlign=top;aspect=fixed;imageAspect=0;image=data:image/png,iVBORw0KGgoAAAANSUhEUgAAAIwAAAEDCAYAAADnUeyHAAAAAXNSR0IArs4c6QAAGc5JREFUeAHtXVlTFcm23j/Bn+BP8PHGlY7g5d7uFjhyeji3bztP4IjYDjiDs6IyqOCEiqLHWXHGCXCeLfbAOY90xD2h/cZPyHu+gqSTomrvzBqzdq2K2FG1qzKzMr/15cqVK4dKpeggBAgBQoAQIAQIAUKAECAECAFCgBAgBAgBQoAQIAQIAUKAECAECAFCgBAgBAgBQoAQIAQIAUKAECAECAFCgBAgBAgBQoAQIAQIAUKAECAECAFCgBAgBAgBQiDhCAyVlk76Wl5S/7Xsm6F/n1kUvy9lJcYf5SUrkZeEi0Pv4n/9rnRylESZQM6yqUNfv/uPyXqjluDcaUUWrt3Kpg6RptGQlF+nfTN3Qg3nQov4/KVsaq2GkCU7S1/LS/p0JQzylmzpaFj6L2Ulv2tLmLKpQxpCluwsEWGSLX/l0hNhlCFLdgQiTLLlr1x6IowyZMmOQIRJtvyVS0+EUYYs2RGIMMmWv3LpiTDKkCU7AhEm2fJXLj0RRhmyZEcgwiRb/sqld0MYxHHzUx6zorEkZXkGHkGJMBVTMRuv1G2mvlaWTv6jomRYmjhEGLdQBxdPkTBnvObkS3lJCxHGK4oRxlchzL+mlbR4zeqXsm86iTBeUYwwvgphvpSXDHuZa/t/5SWlStNBqUmKkBkOr1YhzJhmwMoCNz/VKZ9EGAepRXjbFWFUBe82PBEmQmY4vJoI4wAM3bZHgAhjjwvddUCACOMADN22R4AIY48L3XVAgAjjAAzdtkeACGOPC911QIAI4wAM3bZHgAhjjwvddUCACOMADN22R4AIY48L3XVAgAjjAAzdtkdA5+0+vpSX9Nvnmu5GhsCXiqm1Y6PQbgcJA4r3r4r/nBsZMPRiewSGK0snfa2IbiNER7JW0N4w9hLT4C7m2mpFGswdrqRNETWghnMWoGn+qJha+6W8ZMCx1gfU9PD3jRrgDUOVtO2qs6ToCSFACBAChAAhQAgQAoQAIUAIEAKEACFACBAChAAhQAgQAoQAIUAIEAKEACFACBAChAAhQAgQAoQAIUAIEAKEACFACBAChAAhQAgQAnkQMAxjkmEMTjEyg3ONdLZhIJM7M5AdvDmQzRkDucEh85fNsQG735/P+wayuT7ERRpGJlNpGNlSpJ3n1fRIdwRGyJEtNdK5WpMUELgdEfy8l8kN4V0mkYhEulMklTJrejrbYmoAP4ngLa0+I51tQd70R7DIc8i1yEjTkhsOXIN4Iw6aumGzKctkKotcNHoVT9AkcSCJvU2E5gt2kDE4RS90iyQ3pjYx7ZEcjE57IcT3vmFkMrRY3w+ugijp7GC9qc7jSwg5gmdyQyirYRiT/cAuUWkkiijWikDEked6ooniQBx59BIWEk6wAdOXUXQ2ilyTZCUM/5/JDZGNI1QGtNma+U68CZgL2vfz4M3E2zcjnthY+FC0IREMY6G+JeOStIrHZhfNVFJ6U6RVPJLlz6ZuGFgWrYoxe0CZXHMROt4iba7SmVwzsC0q4ow2QQaRxTftMp6kxdREGYODU6i7HBBR/myeGDAG1rHWNOlcbk4i3Pqi4CK+BuaxJE160BwDGq86IwYzKU1i7LreRJYQmqAClS82pCGyRE8Wrkm1Jw2RRR+yaE8aIot+ZNGWNKO9ITJwC9gVXIBRnLXpPZl+Fo2BikI4mr5zOHI/jenBpTks8dGsUXqEMX5BHlx97ZY8Ws6IZOwJg155MhWfWpfA5hSyC9UbPDpFwZYUZy5fZ1saW9mu1mPsYd9z2zC6Ee3Vuw/s2t0H7NDpc2xn61G2YU+T+dvR0s4On+5iNx88Yu8+fY5FWWSxDW1qxOjI84RFZB8+G2z55h3sv35dOPabNmcx29/ewT4OpLUDu6f3Gdt75DhbsHYL+3bmorE8i/kXr7+bVcXmr97MGttPsgdP+7UrjyxRhHDDoUzCsrNbPg2k2dodjY6gr6zfzfpevtYC5AvXb7Gqunr27YzCJBEJI17/94xFJtGQliCAOF73Bdo0OTnnnr1+y6bPX+5IGID9Y9VKdv9JXySgGpkse/zsBaut35M3jyIpZK9rtuwy08Y74kiewJqm0abIFhRoD9S6QiD/dVEN6/j7FRYmuGgO2zrPs5+qawvmr1D+nZ7/tLiWHe+6yD4aA7b4aE6kYJqm0c13bAF5/f4j+9uS36QE8v2sKrZxbzN7+/GTbVp+gvvizTu269AxNm32Yqm8ORFC5v73sxeb74qpcexv04SFVPkECRumsb1DSssAfGijNTsa2dMXrwLTNm8/fmYb9jax72ZWBU4WTqiyOUvYxn3N7N3H+PWosJDQN3vGztC1Egiqf1/bSaXaPGtlHbvYfcf3XhSaBnSJvRi2nASq529nVrEdre2haFCrDDz9H/ECe59M7mTo2mUOpDl06hwrn7NEulb/dWEN67rW7ZumgX3UcrKT/WXeMuk8qJKiUHg0T62nzvlWJjusg7iH7dY8aRm3Y0W3eh6xmTV10gKDjQFnH3w5XoG4cf8h+2FRjfS7Cwnf7fPKhSvYjXs9nsvjFQ/F+DCA3WsZFe1izdiLt+9Z1bp6JcEtXt/Anr546Rrkj0aaLds03nnoVuB+xKteX88+pzOuy2PFNIz/rrWMW+0iFgo9hr1tJ6Q8qVxA6KJ2P3jkCuTOy9cZPLI8rajP38+qZueu3nRVFhHHkK/daRkv2kUsIGyKs1duKDUTsAFaOs4q1U4Yuj8vXqUNWThZkadEaBmZnpFIjELXcO6hV8SBlDmj6/3uk5xdc/riNaW0Zd7vV5ii1zKF/C6FyOH0HI60fGNOVgHBXwM7CKPehbzDqxr8d/tb8+P2/2/b9satWWJKQwbmduoBzROBYXqs6yKDk0tWAD9W17LTl66xTw4GJLRQ2Zzgvbmy+bWGQ95kNaVTZYvgvpz31zCMKUFnDoLHvBmM78iMQUEAP1StZEfP/t3WIXb9Xo80+azCDOv/rZ7H8dMyMjuYG+lMZ9CE4enfe9xrdoNl3ffQSrBr+l+9GQd+y8mz2hOm9dTZcXnmGOh8xrb3BR15fhu7hQCB8DHtQFbTIBz8NXcf947ZNVv3H9KeMA0HD8eOMNhIIa8jz9zJMiDbJR9x3n82WNuZ80rjUD9Xr2Lnrtwwx6FWbNmpPWGQx3wY6Pos74c1wmyOrAChF3T51l32s+Q0CdgeGFLY13aCzV+9SXvCII/WMsfifyZ3xrFZ0mEvl94Xr9mCNZu1J4CqsTyndkM8CZPNDdsSxshmS3VhPIYU0OarCkXn8IvWbY0rYZhtswSLWBfC8HzA9xLGbLkwiIaJ8LxccTvb9pZ03I0bdg3WC/2ydE3stc3W/a2xJQy4Ma5ZMpe9RtA7kq1p6Hqv2dkYyQw6v7TPodNdcSYMG9e91sl+cSIRSAN/i85DAPnIdfO+uykbTniEfX+cHYNJM2FnwM37MLEbdk2QS0byCd3ts+kLlrMP8VyCMqYVxw1GGulMtxsBRhHH9Nfcvs/m/rZR2jvsVtB+xVtVv2cM+Cgw8+OdRibXPWbHhD0c4EcB4K9ZtW1vqMtI3BKo60rsZt1NJHgmN2QSRneDNx+5zCmgR05o3YP6Zelq35fR5MMkyGem4RsHg7cQCOev32Lfz67WjjjfzapmnZdvTKytGvdI82FtbnkW1YBjvoy5efao/zn7dcU6rUizcuvuotEukIn5KcG49JBkSIRZbau3N2phDP9QVcPuPnpaNNrFJAwWuhmZXGgTpmSE7jUMFvljyS5WHrg1Ur3Gq5i/zFx9WWgesteyhh4fI9c6Dgl4BQLzhq/d62E/RbDsBOuisFQ3plt/5NWIZte6GAkDwqF2Y2+6FZt3htZEYfH/+j0Hbecde60EWsTPDRopI5v7XYvMBNRzwHqohqYjgY96owls7TjL4I0uWjzhiyl2wkB42PBo/9EOpV0lVOwYDFW0nblQVD0iW9KDMLYPAqrtUb/ryp17DGu3VciQLyy2NVm/pynWe9ypyiRRhAE4vS9esdm1GzyRBpsG1WzdxW4+eFi8zY+D0kgcYUAaDCls3NukbAzPqlnP9hw5wR72PkscUbgmSiRhUHj0orC0RWWnKvhXsCNn0flXHLQJJ4l4TixhOAj3n/Qrza/BQrodzW0Mvh6eRpLOiScMhI3dPFU2fQZplm7czjDFIklkQVkT0a2WEeqHzwNsX3sHw65R+XpG4jN4kq/evZ8c0iTFDyNDGIR58+ETO9Z1iVUuyL8Nvkga7Cpx8sLl4vXuivbNqB/GkAU0KeHuPHrKZq1cL61psKvEtua2CbtKFBteRibbn4rTfN4wBYD5NUs2bJPuesOuWb19X1GTZoQwRTa9wU9SYVeJPYdPKM3m+9viVezG/Z7iHCbA9IZimkBlRxb4TJ6/eccud99lR850sT2Hj7Onz+X3Akb8jgtXlPw1WN7bdOJ00RnD5h6+RmYw74cn7ISg+71H/S9MQ3T1tn3sf5ZO/MoKdgq/1H1HyQGHbz3NWLFW2q7BV942Y3fzmK9HEmVtZP5RmQpjTzvxpUFdo4dz5HQXW7h2s5TdgYlOzSc7lb488vLde7ZpX4s0adCbmrFiHYM9FFS5w0zXXP0Y52UmAAtEwWaJlQtWKAmSd42xyOzNh4/SAv2cxscvziqth8K3L6/fjd13ByZgMra+Oo5zYvDlFHzdDTUYo8ecAG7O2MAIH9SQra2way7evMOwHazs+8rnLWUHj5+K79dpc4MjC9mwmi1uXevbPU9Y3a4DDDVXVmCFwk2fv8wkoMo2770vX7Oq9fIf4MDX6LDJc9+r+A0pjFsqi4XWsrUrynCo2Vdv32NzVq2XslMKkcT6HN+kxARuTH+QLSd2lcB3rmV3lYC/BpsL3X74RMnols1PUOHMHhJfXB2H1Y/YDBrTESBUq6D9/l9bv1vJAYd5vIc6zpmbT8vmBTP/zly6pkTOoMggk+747T4MY5JMpKjCgCzYGLl87tLAycIFjj3pnjyT99cgj/hAhspWJGVzl7ADx04p9dSiksGYwcu1jK7LTdAMYTZ+FHvdYV8XfIMJeZAVFJyCi9Zuke5FwWBfu7OR9b8ev7u57PvCCGcOCXCi8LOOmyICDCxm99oL4lrDzRnvbu3oVHL1wwba2XJUSRv+7/I1rKe3X5qYYRCFv8N2U0Qd7Zie3mdK4zhuCCEbB4bqy7fvpQWK3lb72QtKX4hDE4XuOheULudx9gvXMDjrsLEzBwkfDJX9eLqs0L2G+3XFWqUPf6Ipu/ekV7kcDU2HdTKG7Td2BmF0WZiP8Zd1uw8oqXSvZJCNjxWO2GdPxa5BL6qqbqtSeZZt2s6evX4bvbbJDTpvHa9Ls3Tl9r1Id18oRB44DHcqfswcu0rsbD0qXS74a+at3mRqNBVycg3t19kccBSbIfF6dFxp2K+XuUnn1bsPbOHaLUq1sZCAg3gOgaLrrTIRHCsN8MFUla43yNneeSGaUW9xOEAkingddW/p/LXuQLy4QZAGaWI3T3w2GX4YmQqCcF3Xb7G5q+R3AcU4VP3Bw+a8Hpl3+BYmX3PESRNls4ReSFWd/NhMUCRQTZd/XlBlSAGaCVM6Zf1L+Grd8s07TCPaN0KIE7xtrs097Tgx8p2jcuJduHFbuo1XFWrQ4TERHLPsVCZMYVcJzADEon6Z/KEZ/HX5WlOjBW7XYC8Y2SOKwUjMM1m3a78UcDLgRhEGAsXnBZ+9fiPdi/o0kGGnLl5hP1avlC47hkiOd11UciaqaiXMxJTlC2bhYWwpVOP36fNX7Jdl8f9qCYiKvXnR05MVErTFw75nyruAbtjbpKTRZPMzIGPsWtlkZMP9/gA8nJgHG4VmCOKdFfOWmvOKpYU0OnsQdopKfhbVbfXdXzNuKoOVGE7/w9YyO1rVxl5UQI0qLMah1u8+oLRBIoYUMAVUZRdQTGpHd90XuyY3OGT885+TnXiR935YWgbtOBaNRSXYoN8797cN7IXCOBS0EjQuiCCbN5BzZPdOb7tKuNIunEVhaZknz1+yGTV67eItKyjZcL8sG7FrZLUAwt3qecwWKDgxYXRjCujLtx+k7adxTaYX7TJGmhBsmcu37rHp8+UXwMsKSbdw2Lzo4PHTSk0UVl9uamxR2lUC68JvP3ysTBpP2mWMMOgx5QaHxjHRxsnj5fnpi1dj5d31QsS/zF/Gdh8+rtREmWuuOs9L7yoBTQONdu7qTSY9qd1Nz4iTxHoO+gMWh06dk26rvQhLl7iwN6rr6tmDp33SWgDjULBrZtbUSWMFZ2Jj+0n2aaCwXaPkd7ESxO5/kN7fxvYOaRB0Ebof+Zi5ss4kgYpdg/k1C9dtkdbI0DYnzl/KS8xxS0jshO/mHrpaQTnzkkoYkA6bF7V0nFVywKGJ2ri3WXreMNaXv86zutN1N7oQkYIaMkB30I8aG9c0sE3aul0HGGYZytqC0EpYIizjr4GW6X9pP8ncF0M3H3GCaJqu3XnApi90tzY6riSxyzeW7OLbCLKkQbirt+8X9NdUzFtm7w3209B1Ik0QTRNqy7amI4nWMpxAmFx1/nq3ktcWJMMkdZ6G9bxm5347w3c4sKbISp4gmia0y1hxWEzjSVbByf6fNruaoeeo8s0leMu3N7dNsGswexFfqrNqLSOXq7XKNdD/RjbbYs2E1//wGaB52nXomLleGWuWk/rb135S+VM60NTAb3tTm+nsg43z5uOniWRJZ1sCJYdd4qPDBrQDp89OTK+VrmB8uP8NY5KdTAO/Z9ozAXuBCwIQN4FFmV8/xoq8sgrzPoPyzxBZchOaEy+YSM/R9UqKQvGLcWNFL4LRMa75zelCggzzeVhzZ3QUhu55Ctw555ZoRBp/mxA/iKgtWTjJiDT6kEZ7shBpiCycA8pn0jTRkSc2msXKKuo9hU6aYe16Q1ZSFPpv+mnIueerP8XWGIZTbnBwSiF5xOI5eYQD1zRGaCPPYTEO4xdBDFja1rYo3e8hvxvbs0Q2NhQGeUanRoS6brtISTUc+hSFMAhi9w5qorw1Udg3t+iaIDuiWO9R11uZOMnRKlay8P+oKVjmUKTNhm+9o8RqFU4U69n02VD3eyLB0F3OZCqteNH/UQTMZoqIA+IMA4ui7gH5xXqzmcImAMkkDhHFLZESRhwiilui2MWDjWNksgPFZhybxmw6V0tNj53UfbiH8RLzmwjxbq6GTQ9tNlvqAySUhCwC6D2MflAjDp7jYSOd6cTG2aRNZCUcYDhTEBhXyWT7dWm2RpqbbAvyFmDRKWmvCKAGjxKowXQKhtB84dvfeBfGykiLeJWgBvHHSIRmLJ1tMJsHjMngB2Fnc787aSb+HEb3CCkynWYaMMRhU0W1klADXCkLhAAhQAgQAoQAIUAIEAKEACFACBAChAAhQAgQAoQAIUAIEAKEACFACBAChEAxIoCZ9Q2pVKo4FqQXo4R8LBOEjJ2pz6RSqT7hd3P0vsxHKztTqRRLpVLy31v2sQCUVDgIYGIRCAJB4zf8b4H/nkql+lOp1MDof/4MZMpHHCJMODKL7C31AlFABqdZabjPyQBCzXHIMQ9DGsYBoDjf5mQZUrA50GwhPDSOHblkCIMt05EO4heydRBW1Gj4j3h274YsxLTFeHZywnOE5wf+O+VJTFeMw+MW/RmCgtAh/ELAWsFAXGgZxLWCl48wCAuSIi5v4ngenDQSTw+C5ATnccR8oQywtcR0cW04lA/h8RzNLq7FJhn3kRbHpdkmXeQlUQcHyCooLlQAhjD44gaAQ89H/FQL/gNYnMWDC9guXa6ZQBiEQ9xuQRh2QuDpcTLApsI9/PiB/FnTRr5BBuQRP+u6aMTBfYRBXPwQB/nhhEb5QRYxv2KaIh48L0V5FrWLWEDc58BzoHHm93DmB4gFIMV7eMYFbCUMv48ab9VKXGPhXdamhsfDM2uaPC+cTBC4NW1ObORVfMYJg3QR3/qMkwZnhBUPvAfxQKhEHKgZKLBYQ3gtBUBibRRJZCUH11IioFzAonBF4YhhRbC5YK1C4OnBILc7QDCUxZo3MSzPp7W8iIefXZ7yvRfk4nHF9xTtNW8GxNoMAQMEEVQOgJNQuJDFdDjQImF42niv0yEKQaztdumJafDabpdvHo6/XyQdJ7ET0fh7UUa7I1GE4TVOrFn8nigsEShoHiu4soThQnUCn78HzRUEAa3GDy44kYD8Gc483ziDEHY/3mTB/uAHEYYjIXGGUw6CEQ/csxKi0HNZwhQSOn8PF34hjcXD48zj8Bqf70yEEZFTuHYiDLSI0xGmhlEhDG9eoYGgNQr9ePlIw3AkJM68VgI0fnDgxXv8mRO4dnHstAnsC9R8vNfpCNKGsXunU5l4WF4Op2aUazIevqjPHAyxN8SFCr+D9eAOM2uTBZvDeo+nLdocnAzQUnaExPu4YSo2G7hvl56YP26QIy9OB8KgrKJ9RoRxQsvmPieHWHsAJoSPmgPSAGQYn5wsEDae8eaCpyH2PPAqJwFzwxeCtZJG9MOIRMuXnlgsrjHtyI538XKJaRNhRAQLXIs1XgwqgstVLs4gFieIeB+CsArfiTAiIREPREO6XNj8PWJ+cO2UnhhOzLeYNnpHnOhIRzyIMCIaEtdcUCCCeECwqIkQJn5coyAMrqEpAD6eIaz1yCdghOfPReJBqNZ88HR5eFE78GfiGQTgYa1pI6/WgwhjRaTAfwAGQeEn+j0KRPPlMYgD8uGHfPh5iGmHXS4/y6FlWqi1vDY61XAtM06Zig4B9B64UYgzmhyx5qPGQguAXNzuiC639GYtEAAh0P5z4nCtY3fONx6kRWEoE+EiAO2C5gmGIkiEH66tfoxwc0VvG4fA/wMw3HLUCWJ9rwAAAABJRU5ErkJggg==;imageBorder=default;" parent="1" vertex="1">
          <mxGeometry x="1169" y="825" width="61.63" height="114" as="geometry" />
        </mxCell>
        <mxCell id="wtZ6A3OOezWm38jqoUYY-114" value="" style="endArrow=classic;html=1;rounded=0;" parent="1" edge="1">
          <mxGeometry width="50" height="50" relative="1" as="geometry">
            <mxPoint x="1218" y="774.5" as="sourcePoint" />
            <mxPoint x="1265" y="774.5" as="targetPoint" />
          </mxGeometry>
        </mxCell>
        <mxCell id="wtZ6A3OOezWm38jqoUYY-115" value="" style="endArrow=classic;html=1;rounded=0;" parent="1" edge="1">
          <mxGeometry width="50" height="50" relative="1" as="geometry">
            <mxPoint x="1206" y="813.5" as="sourcePoint" />
            <mxPoint x="1264" y="812.5" as="targetPoint" />
          </mxGeometry>
        </mxCell>
        <mxCell id="wtZ6A3OOezWm38jqoUYY-116" value="sta_userIcon" style="text;html=1;align=left;verticalAlign=middle;whiteSpace=wrap;rounded=0;fontSize=10;fontStyle=1" parent="1" vertex="1">
          <mxGeometry x="1266" y="759.5" width="76" height="30" as="geometry" />
        </mxCell>
        <mxCell id="wtZ6A3OOezWm38jqoUYY-117" value="sta_name" style="text;html=1;align=left;verticalAlign=middle;whiteSpace=wrap;rounded=0;fontSize=10;fontStyle=1" parent="1" vertex="1">
          <mxGeometry x="1266" y="797.5" width="76" height="30" as="geometry" />
        </mxCell>
        <mxCell id="wtZ6A3OOezWm38jqoUYY-118" value="" style="endArrow=none;html=1;rounded=0;" parent="1" edge="1">
          <mxGeometry width="50" height="50" relative="1" as="geometry">
            <mxPoint x="1224" y="933.5" as="sourcePoint" />
            <mxPoint x="1233" y="813.5" as="targetPoint" />
            <Array as="points">
              <mxPoint x="1251" y="930.5" />
            </Array>
          </mxGeometry>
        </mxCell>
        <mxCell id="wtZ6A3OOezWm38jqoUYY-119" value="" style="endArrow=none;html=1;rounded=0;" parent="1" edge="1">
          <mxGeometry width="50" height="50" relative="1" as="geometry">
            <mxPoint x="1223" y="915.5" as="sourcePoint" />
            <mxPoint x="1239" y="774.5" as="targetPoint" />
            <Array as="points">
              <mxPoint x="1256" y="915.5" />
            </Array>
          </mxGeometry>
        </mxCell>
        <mxCell id="wtZ6A3OOezWm38jqoUYY-120" value="MM8mf" style="text;whiteSpace=wrap;fontStyle=1;fillColor=#ffe6cc;strokeColor=#d79b00;" parent="1" vertex="1">
          <mxGeometry x="760" y="645" width="68" height="36" as="geometry" />
        </mxCell>
      </root>
    </mxGraphModel>
  </diagram>
</mxfile>
